<?xml version="1.0" encoding="UTF-8" standalone="no"?>
<!-- Created with Inkscape (http://www.inkscape.org/) -->

<svg
   width="512"
   height="256"
   viewBox="0 0 135.46666 67.733332"
   version="1.1"
   id="svg5"
   inkscape:version="1.1.2 (0a00cf5339, 2022-02-04, custom)"
   sodipodi:docname="icon_calendar_month_absences.svg"
   xmlns:inkscape="http://www.inkscape.org/namespaces/inkscape"
   xmlns:sodipodi="http://sodipodi.sourceforge.net/DTD/sodipodi-0.dtd"
   xmlns="http://www.w3.org/2000/svg"
   xmlns:svg="http://www.w3.org/2000/svg">
  <sodipodi:namedview
     id="namedview7"
     pagecolor="#505050"
     bordercolor="#eeeeee"
     borderopacity="1"
     inkscape:pageshadow="0"
     inkscape:pageopacity="0"
     inkscape:pagecheckerboard="0"
     inkscape:document-units="px"
     showgrid="false"
     units="px"
     width="64px"
     inkscape:zoom="2.3236875"
     inkscape:cx="399.36523"
     inkscape:cy="147.17986"
     inkscape:window-width="2527"
     inkscape:window-height="1408"
     inkscape:window-x="33"
     inkscape:window-y="0"
     inkscape:window-maximized="1"
     inkscape:current-layer="layer1" />
  <defs
     id="defs2" />
  <g
     inkscape:label="Livello 1"
     inkscape:groupmode="layer"
     id="layer1">
    <path
       id="path822"
       style="fill:#325d88;fill-opacity:1;stroke-width:0.132292"
       d="m 18.520833,0 c -0.873125,0 -1.5875,0.71437568 -1.5875,1.5875 v 6.8791666 h -6.35 c -3.505729,0 -6.3499998,2.8442704 -6.3499998,6.3499994 v 46.566667 c 0,3.505729 2.8442708,6.349999 6.3499998,6.349999 h 46.566666 c 3.505729,0 6.35,-2.84427 6.35,-6.349999 V 14.816666 c 0,-3.505729 -2.844271,-6.3499994 -6.35,-6.3499994 h -6.35 V 1.5875 C 50.799999,0.71437568 50.085624,0 49.212499,0 h -5.291666 c -0.873125,0 -1.5875,0.71437568 -1.5875,1.5875 V 8.4666666 H 25.4 V 1.5875 C 25.4,0.71437568 24.685625,0 23.8125,0 Z m 0,29.633333 H 23.8125 c 0.873125,0 1.5875,0.714375 1.5875,1.5875 V 36.5125 c 0,0.873125 -0.714375,1.5875 -1.5875,1.5875 h -5.291667 c -0.873125,0 -1.5875,-0.714375 -1.5875,-1.5875 v -5.291667 c 0,-0.873125 0.714375,-1.5875 1.5875,-1.5875 z m 12.7,0 h 5.291666 c 0.873131,0 1.5875,0.714375 1.5875,1.5875 V 36.5125 c 0,0.873125 -0.714369,1.5875 -1.5875,1.5875 h -5.291666 c -0.87313,0 -1.5875,-0.714375 -1.5875,-1.5875 v -5.291667 c 0,-0.873125 0.71437,-1.5875 1.5875,-1.5875 z m 12.7,0 h 5.291666 c 0.87313,0 1.5875,0.714375 1.5875,1.5875 V 36.5125 c 0,0.873125 -0.71437,1.5875 -1.5875,1.5875 h -5.291666 c -0.873131,0 -1.5875,-0.714375 -1.5875,-1.5875 v -5.291667 c 0,-0.873125 0.714369,-1.5875 1.5875,-1.5875 z m -25.4,12.7 H 23.8125 c 0.873125,0 1.5875,0.714375 1.5875,1.5875 v 5.291666 c 0,0.873125 -0.714375,1.5875 -1.5875,1.5875 h -5.291667 c -0.873125,0 -1.5875,-0.714375 -1.5875,-1.5875 v -5.291666 c 0,-0.873125 0.714375,-1.5875 1.5875,-1.5875 z m 12.7,0 h 5.291666 c 0.873131,0 1.5875,0.714375 1.5875,1.5875 v 5.291666 c 0,0.873125 -0.714369,1.5875 -1.5875,1.5875 h -5.291666 c -0.87313,0 -1.5875,-0.714375 -1.5875,-1.5875 v -5.291666 c 0,-0.873125 0.71437,-1.5875 1.5875,-1.5875 z m 12.7,0 h 5.291666 c 0.87313,0 1.5875,0.714375 1.5875,1.5875 v 5.291666 c 0,0.873125 -0.71437,1.5875 -1.5875,1.5875 h -5.291666 c -0.873131,0 -1.5875,-0.714375 -1.5875,-1.5875 v -5.291666 c 0,-0.873125 0.714369,-1.5875 1.5875,-1.5875 z" />
    <path
       d="M 122.6156,26.340707 H 109.17589 L 96.816854,4.7106288 A 1.8831362,1.8831362 0 0 0 95.182313,3.7628282 h -7.70235 c -1.250015,0 -2.151954,1.1959218 -1.808583,2.3977237 L 91.436971,26.340707 H 79.341343 l -5.080022,-6.773363 c -0.355132,-0.473901 -0.913699,-0.752597 -1.505193,-0.752597 h -4.702549 c -1.224144,0 -2.122555,1.150062 -1.825044,2.337752 l 3.705358,12.714167 -3.705358,12.714169 c -0.297511,1.18769 0.6009,2.337751 1.825044,2.337751 h 4.702549 c 0.592669,0 1.150061,-0.278694 1.505193,-0.752596 l 5.080022,-6.773364 H 91.436971 L 85.67138,61.571604 c -0.343371,1.201805 0.558568,2.398899 1.808583,2.398899 h 7.70235 c 0.674981,0 1.298228,-0.362184 1.633368,-0.9478 L 109.17589,41.392626 h 13.43971 c 4.15692,0 11.28895,-3.369043 11.28895,-7.52596 0,-4.156916 -7.13203,-7.525959 -11.28895,-7.525959 z"
       id="path1010"
       style="stroke-width:0.117593;fill:#325d88;fill-opacity:1" />
  </g>
</svg>
