<?xml version="1.0" encoding="UTF-8" standalone="no"?>
<!-- Created with Inkscape (http://www.inkscape.org/) -->

<svg
   width="512"
   height="256"
   viewBox="0 0 135.46666 67.733332"
   version="1.1"
   id="svg5"
   inkscape:version="1.1.2 (0a00cf5339, 2022-02-04, custom)"
   sodipodi:docname="icon_calendar_week_absences.svg"
   xmlns:inkscape="http://www.inkscape.org/namespaces/inkscape"
   xmlns:sodipodi="http://sodipodi.sourceforge.net/DTD/sodipodi-0.dtd"
   xmlns="http://www.w3.org/2000/svg"
   xmlns:svg="http://www.w3.org/2000/svg">
  <sodipodi:namedview
     id="namedview7"
     pagecolor="#505050"
     bordercolor="#eeeeee"
     borderopacity="1"
     inkscape:pageshadow="0"
     inkscape:pageopacity="0"
     inkscape:pagecheckerboard="0"
     inkscape:document-units="px"
     showgrid="false"
     units="px"
     width="64px"
     inkscape:zoom="1.9185617"
     inkscape:cx="371.11133"
     inkscape:cy="171.48262"
     inkscape:window-width="2527"
     inkscape:window-height="1408"
     inkscape:window-x="33"
     inkscape:window-y="0"
     inkscape:window-maximized="1"
     inkscape:current-layer="layer1" />
  <defs
     id="defs2" />
  <g
     inkscape:label="Livello 1"
     inkscape:groupmode="layer"
     id="layer1">
    <path
       d="m 4.233333,61.383331 c 0,3.505731 2.8442708,6.350001 6.350001,6.350001 H 57.15 c 3.505729,0 6.349999,-2.84427 6.349999,-6.350001 V 25.4 H 4.233333 Z m 8.466666,-25.399998 c 0,-1.164165 0.9525,-2.116667 2.116667,-2.116667 h 38.099999 c 1.164169,0 2.116669,0.952502 2.116669,2.116667 v 8.466666 c 0,1.164168 -0.9525,2.116668 -2.116669,2.116668 H 14.816666 c -1.164167,0 -2.116667,-0.9525 -2.116667,-2.116668 z M 57.15,8.4666669 H 50.799999 V 2.116667 C 50.799999,0.95249995 49.847499,1.5e-7 48.683334,1.5e-7 h -4.233335 c -1.164165,0 -2.116666,0.9524998 -2.116666,2.11666685 V 8.4666669 H 25.4 V 2.116667 C 25.4,0.95249995 24.4475,1.5e-7 23.283333,1.5e-7 H 19.05 c -1.164167,0 -2.116667,0.9524998 -2.116667,2.11666685 v 6.3499999 h -6.349999 c -3.5057302,0 -6.350001,2.8442711 -6.350001,6.3500011 v 6.35 h 59.266666 v -6.35 c 0,-3.50573 -2.84427,-6.3500011 -6.349999,-6.3500011 z"
       id="path864"
       style="fill:#325d88;fill-opacity:1;stroke-width:0.132292" />
    <path
       d="M 122.74078,26.340705 H 109.30106 L 96.942027,4.710625 A 1.8831364,1.8831364 0 0 0 95.307481,3.762824 h -7.70235 c -1.250015,0 -2.151954,1.195922 -1.808582,2.397724 L 91.56214,26.340705 H 79.46651 l -5.080023,-6.773364 c -0.355131,-0.4739 -0.913698,-0.752596 -1.505192,-0.752596 h -4.702549 c -1.224144,0 -2.122556,1.150061 -1.825045,2.337751 l 3.705359,12.71417 -3.705359,12.714169 c -0.297511,1.187691 0.600901,2.337753 1.825045,2.337753 h 4.702549 c 0.59267,0 1.150061,-0.278699 1.505192,-0.752597 l 5.080023,-6.773364 h 12.09563 l -5.765591,20.17898 c -0.343372,1.201801 0.558567,2.3989 1.808582,2.3989 h 7.70235 c 0.674986,0 1.298229,-0.362184 1.633368,-0.9478 l 12.360211,-21.63008 h 13.43972 c 4.15692,0 11.28894,-3.369044 11.28894,-7.525961 0,-4.156918 -7.13202,-7.525961 -11.28894,-7.525961 z"
       id="path6847"
       style="stroke-width:0.117593;fill:#325d88;fill-opacity:1" />
  </g>
</svg>
