<?xml version="1.0" encoding="UTF-8" standalone="no"?>
<!-- Created with Inkscape (http://www.inkscape.org/) -->

<svg
   width="512"
   height="256"
   viewBox="0 0 135.46666 67.733332"
   version="1.1"
   id="svg5"
   inkscape:version="1.1.2 (0a00cf5339, 2022-02-04, custom)"
   sodipodi:docname="icon_calendar_week_diseases.svg"
   xmlns:inkscape="http://www.inkscape.org/namespaces/inkscape"
   xmlns:sodipodi="http://sodipodi.sourceforge.net/DTD/sodipodi-0.dtd"
   xmlns="http://www.w3.org/2000/svg"
   xmlns:svg="http://www.w3.org/2000/svg">
  <sodipodi:namedview
     id="namedview7"
     pagecolor="#505050"
     bordercolor="#eeeeee"
     borderopacity="1"
     inkscape:pageshadow="0"
     inkscape:pageopacity="0"
     inkscape:pagecheckerboard="0"
     inkscape:document-units="px"
     showgrid="false"
     units="px"
     width="64px"
     inkscape:zoom="1.9185617"
     inkscape:cx="371.11133"
     inkscape:cy="171.48262"
     inkscape:window-width="2527"
     inkscape:window-height="1408"
     inkscape:window-x="33"
     inkscape:window-y="0"
     inkscape:window-maximized="1"
     inkscape:current-layer="layer1" />
  <defs
     id="defs2" />
  <g
     inkscape:label="Livello 1"
     inkscape:groupmode="layer"
     id="layer1">
    <path
       d="m 4.233333,61.383331 c 0,3.505731 2.8442708,6.350001 6.350001,6.350001 H 57.15 c 3.505729,0 6.349999,-2.84427 6.349999,-6.350001 V 25.4 H 4.233333 Z m 8.466666,-25.399998 c 0,-1.164165 0.9525,-2.116667 2.116667,-2.116667 h 38.099999 c 1.164169,0 2.116669,0.952502 2.116669,2.116667 v 8.466666 c 0,1.164168 -0.9525,2.116668 -2.116669,2.116668 H 14.816666 c -1.164167,0 -2.116667,-0.9525 -2.116667,-2.116668 z M 57.15,8.4666669 H 50.799999 V 2.116667 C 50.799999,0.95249995 49.847499,1.5e-7 48.683334,1.5e-7 h -4.233335 c -1.164165,0 -2.116666,0.9524998 -2.116666,2.11666685 V 8.4666669 H 25.4 V 2.116667 C 25.4,0.95249995 24.4475,1.5e-7 23.283333,1.5e-7 H 19.05 c -1.164167,0 -2.116667,0.9524998 -2.116667,2.11666685 v 6.3499999 h -6.349999 c -3.5057302,0 -6.350001,2.8442711 -6.350001,6.3500011 v 6.35 h 59.266666 v -6.35 c 0,-3.50573 -2.84427,-6.3500011 -6.349999,-6.3500011 z"
       id="path864"
       style="fill:#325d88;fill-opacity:1;stroke-width:0.132292" />
    <path
       d="m 108.5327,48.947917 c 0,4.164545 -3.37608,7.540623 -7.54063,7.540623 -4.16454,0 -7.540615,-3.376078 -7.540615,-7.540623 0,-2.790622 1.517073,-5.225301 3.77031,-6.529358 V 30.096353 c 0,-2.082273 1.688037,-3.770313 3.770305,-3.770313 2.08228,0 3.77032,1.68804 3.77032,3.770313 v 12.322206 c 2.25323,1.304057 3.77031,3.738736 3.77031,6.529358 z m 3.77031,-9.97401 c 2.34608,2.658424 3.77032,6.149615 3.77032,9.97401 0,8.329561 -6.75157,15.081247 -15.08126,15.081247 -0.0352,0 -0.0718,-1.15e-4 -0.10709,-3.52e-4 -8.283145,-0.0575 -15.016217,-6.876226 -14.973912,-15.159484 0.01933,-3.793641 1.44014,-7.25526 3.770069,-9.895421 V 15.015104 c 0,-6.2468188 5.06412,-11.3109375 11.310933,-11.3109375 6.24683,0 11.31094,5.0641187 11.31094,11.3109375 z m -1.88515,9.97401 c 0,-4.0459 -2.28222,-6.149146 -3.77032,-7.835418 V 15.015104 c 0,-3.118402 -2.53706,-5.6554688 -5.65547,-5.6554688 -3.118395,0 -5.655465,2.5370668 -5.655465,5.6554688 v 26.097395 c -1.500106,1.69994 -3.749691,3.782094 -3.770193,7.785694 -0.02636,5.169571 4.190114,9.43945 9.357798,9.475266 l 0.0679,2.36e-4 c 5.19737,0 9.42578,-4.228402 9.42578,-9.425778 z"
       id="path10134"
       style="stroke-width:0.117822;fill:#325d88;fill-opacity:1" />
  </g>
</svg>
