<?xml version="1.0" encoding="UTF-8" standalone="no"?>
<!-- Created with Inkscape (http://www.inkscape.org/) -->

<svg
   width="512"
   height="256"
   viewBox="0 0 135.46666 67.733332"
   version="1.1"
   id="svg5"
   inkscape:version="1.1.2 (0a00cf5339, 2022-02-04, custom)"
   sodipodi:docname="icon_calendar_month_holidays.svg"
   xmlns:inkscape="http://www.inkscape.org/namespaces/inkscape"
   xmlns:sodipodi="http://sodipodi.sourceforge.net/DTD/sodipodi-0.dtd"
   xmlns="http://www.w3.org/2000/svg"
   xmlns:svg="http://www.w3.org/2000/svg">
  <sodipodi:namedview
     id="namedview7"
     pagecolor="#505050"
     bordercolor="#eeeeee"
     borderopacity="1"
     inkscape:pageshadow="0"
     inkscape:pageopacity="0"
     inkscape:pagecheckerboard="0"
     inkscape:document-units="px"
     showgrid="false"
     units="px"
     width="64px"
     inkscape:zoom="1.0801487"
     inkscape:cx="377.72576"
     inkscape:cy="141.64716"
     inkscape:window-width="2527"
     inkscape:window-height="1408"
     inkscape:window-x="33"
     inkscape:window-y="0"
     inkscape:window-maximized="1"
     inkscape:current-layer="layer1" />
  <defs
     id="defs2" />
  <g
     inkscape:label="Livello 1"
     inkscape:groupmode="layer"
     id="layer1">
    <path
       id="path822"
       style="fill:#325d88;fill-opacity:1;stroke-width:0.132292"
       d="m 18.520833,0 c -0.873125,0 -1.5875,0.71437568 -1.5875,1.5875 v 6.8791666 h -6.35 c -3.505729,0 -6.3499998,2.8442704 -6.3499998,6.3499994 v 46.566667 c 0,3.505729 2.8442708,6.349999 6.3499998,6.349999 h 46.566666 c 3.505729,0 6.35,-2.84427 6.35,-6.349999 V 14.816666 c 0,-3.505729 -2.844271,-6.3499994 -6.35,-6.3499994 h -6.35 V 1.5875 C 50.799999,0.71437568 50.085624,0 49.212499,0 h -5.291666 c -0.873125,0 -1.5875,0.71437568 -1.5875,1.5875 V 8.4666666 H 25.4 V 1.5875 C 25.4,0.71437568 24.685625,0 23.8125,0 Z m 0,29.633333 H 23.8125 c 0.873125,0 1.5875,0.714375 1.5875,1.5875 V 36.5125 c 0,0.873125 -0.714375,1.5875 -1.5875,1.5875 h -5.291667 c -0.873125,0 -1.5875,-0.714375 -1.5875,-1.5875 v -5.291667 c 0,-0.873125 0.714375,-1.5875 1.5875,-1.5875 z m 12.7,0 h 5.291666 c 0.873131,0 1.5875,0.714375 1.5875,1.5875 V 36.5125 c 0,0.873125 -0.714369,1.5875 -1.5875,1.5875 h -5.291666 c -0.87313,0 -1.5875,-0.714375 -1.5875,-1.5875 v -5.291667 c 0,-0.873125 0.71437,-1.5875 1.5875,-1.5875 z m 12.7,0 h 5.291666 c 0.87313,0 1.5875,0.714375 1.5875,1.5875 V 36.5125 c 0,0.873125 -0.71437,1.5875 -1.5875,1.5875 h -5.291666 c -0.873131,0 -1.5875,-0.714375 -1.5875,-1.5875 v -5.291667 c 0,-0.873125 0.714369,-1.5875 1.5875,-1.5875 z m -25.4,12.7 H 23.8125 c 0.873125,0 1.5875,0.714375 1.5875,1.5875 v 5.291666 c 0,0.873125 -0.714375,1.5875 -1.5875,1.5875 h -5.291667 c -0.873125,0 -1.5875,-0.714375 -1.5875,-1.5875 v -5.291666 c 0,-0.873125 0.714375,-1.5875 1.5875,-1.5875 z m 12.7,0 h 5.291666 c 0.873131,0 1.5875,0.714375 1.5875,1.5875 v 5.291666 c 0,0.873125 -0.714369,1.5875 -1.5875,1.5875 h -5.291666 c -0.87313,0 -1.5875,-0.714375 -1.5875,-1.5875 v -5.291666 c 0,-0.873125 0.71437,-1.5875 1.5875,-1.5875 z m 12.7,0 h 5.291666 c 0.87313,0 1.5875,0.714375 1.5875,1.5875 v 5.291666 c 0,0.873125 -0.71437,1.5875 -1.5875,1.5875 h -5.291666 c -0.873131,0 -1.5875,-0.714375 -1.5875,-1.5875 v -5.291666 c 0,-0.873125 0.714369,-1.5875 1.5875,-1.5875 z" />
    <path
       d="m 102.52236,7.9374995 c -14.323771,0 -25.929163,11.6053935 -25.929163,25.9291645 0,14.323774 11.605392,25.929167 25.929163,25.929167 14.32377,0 25.92917,-11.605393 25.92917,-25.929167 0,-14.323772 -11.6054,-25.9291645 -25.92917,-25.9291645 z m 9.67012,32.7251155 v 0 l -2.09107,2.613827 a 1.6728493,1.6728493 0 0 1 -2.35139,0.261383 v 0 l -7.00506,-5.198379 A 4.1821234,4.1821234 0 0 1 99.176663,35.074252 V 18.81102 a 1.6728493,1.6728493 0 0 1 1.672847,-1.672849 h 3.3457 a 1.6728493,1.6728493 0 0 1 1.67285,1.672849 v 15.055644 l 6.06408,4.443506 a 1.6728493,1.6728493 0 0 1 0.26034,2.352445 z"
       id="path5220"
       style="stroke-width:0.104553;fill:#325d88;fill-opacity:1" />
  </g>
</svg>
