<?xml version="1.0" encoding="UTF-8" standalone="no"?>
<!-- Created with Inkscape (http://www.inkscape.org/) -->

<svg
   width="512"
   height="256"
   viewBox="0 0 135.46666 67.733332"
   version="1.1"
   id="svg5"
   inkscape:version="1.1.2 (0a00cf5339, 2022-02-04, custom)"
   sodipodi:docname="icon_list_permits.svg"
   xmlns:inkscape="http://www.inkscape.org/namespaces/inkscape"
   xmlns:sodipodi="http://sodipodi.sourceforge.net/DTD/sodipodi-0.dtd"
   xmlns="http://www.w3.org/2000/svg"
   xmlns:svg="http://www.w3.org/2000/svg">
  <sodipodi:namedview
     id="namedview7"
     pagecolor="#505050"
     bordercolor="#eeeeee"
     borderopacity="1"
     inkscape:pageshadow="0"
     inkscape:pageopacity="0"
     inkscape:pagecheckerboard="0"
     inkscape:document-units="px"
     showgrid="false"
     units="px"
     width="64px"
     inkscape:zoom="1.6538468"
     inkscape:cx="520.60445"
     inkscape:cy="193.4883"
     inkscape:window-width="2527"
     inkscape:window-height="1408"
     inkscape:window-x="33"
     inkscape:window-y="0"
     inkscape:window-maximized="1"
     inkscape:current-layer="layer1" />
  <defs
     id="defs2" />
  <g
     inkscape:label="Livello 1"
     inkscape:groupmode="layer"
     id="layer1">
    <path
       d="m 21.343012,28.574998 v 10.583334 c 0,1.753526 -1.42147,3.175 -3.175,3.175 H 4.7625008 c -1.75353,0 -3.1749999,-1.421474 -3.1749999,-3.175 V 28.574998 c 0,-1.753526 1.4214699,-3.175 3.1749999,-3.175 H 18.168012 c 1.75353,0 3.175,1.421474 3.175,3.175 z M 1.5875009,49.741665 V 60.325 c 0,1.753525 1.4214699,3.175 3.1749999,3.175 H 18.168012 c 1.75353,0 3.175,-1.421475 3.175,-3.175 V 49.741665 c 0,-1.753526 -1.42147,-3.175 -3.175,-3.175 H 4.7625008 c -1.75353,0 -3.1749999,1.421474 -3.1749999,3.175 z M 18.168012,4.2333315 H 4.7625008 c -1.75353,0 -3.1749999,1.421474 -3.1749999,3.175 V 17.991665 c 0,1.753526 1.4214699,3.175 3.1749999,3.175 H 18.168012 c 1.75353,0 3.175,-1.421474 3.175,-3.175 V 7.4083315 c 0,-1.753526 -1.42147,-3.175 -3.175,-3.175 z M 28.751352,63.5 h 37.39448 c 1.75353,0 3.175,-1.421475 3.175,-3.175 V 49.741665 c 0,-1.753526 -1.42147,-3.175 -3.175,-3.175 h -37.39448 c -1.75353,0 -3.175,1.421474 -3.175,3.175 V 60.325 c 0,1.753525 1.42147,3.175 3.175,3.175 z m -3.175,-56.0916685 V 17.991665 c 0,1.753526 1.42147,3.175 3.175,3.175 h 37.39448 c 1.75353,0 3.175,-1.421474 3.175,-3.175 V 7.4083315 c 0,-1.753526 -1.42147,-3.175 -3.175,-3.175 h -37.39448 c -1.75353,0 -3.175,1.421474 -3.175,3.175 z m 3.175,34.9250005 h 37.39448 c 1.75353,0 3.175,-1.421474 3.175,-3.175 V 28.574998 c 0,-1.753526 -1.42147,-3.175 -3.175,-3.175 h -37.39448 c -1.75353,0 -3.175,1.421474 -3.175,3.175 v 10.583334 c 0,1.753526 1.42147,3.175 3.175,3.175 z"
       id="path997"
       style="fill:#325d88;fill-opacity:1;stroke-width:0.132291" />
    <path
       d="m 95.308478,11.641668 h 6.350002 V 8.4666648 h 6.35 v 3.1750032 h 6.35001 V 59.266664 H 95.308478 V 11.641668 m -6.349999,-1.587506 v 50.800001 c 0,2.63029 2.132211,4.7625 4.7625,4.7625 h 22.225001 c 2.63029,0 4.7625,-2.13221 4.7625,-4.7625 V 10.054162 c 0,-2.6302878 -2.13221,-4.7625002 -4.7625,-4.7625002 h -1.58749 V 4.4979181 c 0,-1.3151437 -1.06611,-2.3812499 -2.38125,-2.3812499 H 97.689729 c -1.315144,0 -2.381251,1.0661062 -2.381251,2.3812499 v 0.7937437 h -1.587499 c -2.630289,0 -4.7625,2.1322124 -4.7625,4.7625002 z m 9.525,23.812499 V 56.091663 H 111.18348 V 33.866661 Z"
       id="path10476"
       style="stroke-width:0.0992184;fill:#325d88;fill-opacity:1" />
  </g>
</svg>
