<?xml version="1.0" encoding="UTF-8" standalone="no"?>
<!-- Created with Inkscape (http://www.inkscape.org/) -->

<svg
   width="256"
   height="256"
   viewBox="0 0 67.733332 67.733332"
   version="1.1"
   id="svg5"
   inkscape:version="1.1.2 (0a00cf5339, 2022-02-04)"
   sodipodi:docname="icon_calendar_month.svg"
   xmlns:inkscape="http://www.inkscape.org/namespaces/inkscape"
   xmlns:sodipodi="http://sodipodi.sourceforge.net/DTD/sodipodi-0.dtd"
   xmlns="http://www.w3.org/2000/svg"
   xmlns:svg="http://www.w3.org/2000/svg">
  <sodipodi:namedview
     id="namedview7"
     pagecolor="#505050"
     bordercolor="#eeeeee"
     borderopacity="1"
     inkscape:pageshadow="0"
     inkscape:pageopacity="0"
     inkscape:pagecheckerboard="0"
     inkscape:document-units="px"
     showgrid="false"
     units="px"
     width="64px"
     inkscape:zoom="2.3236875"
     inkscape:cx="205.70752"
     inkscape:cy="147.17986"
     inkscape:window-width="2527"
     inkscape:window-height="1408"
     inkscape:window-x="33"
     inkscape:window-y="0"
     inkscape:window-maximized="1"
     inkscape:current-layer="layer1" />
  <defs
     id="defs2" />
  <g
     inkscape:label="Livello 1"
     inkscape:groupmode="layer"
     id="layer1">
    <path
       d="m 23.8125,38.1 h -5.291667 c -0.873125,0 -1.5875,-0.714375 -1.5875,-1.5875 v -5.291667 c 0,-0.873125 0.714375,-1.587499 1.5875,-1.587499 H 23.8125 c 0.873125,0 1.5875,0.714374 1.5875,1.587499 V 36.5125 C 25.4,37.385625 24.685625,38.1 23.8125,38.1 Z M 38.1,36.5125 v -5.291667 c 0,-0.873125 -0.714375,-1.587499 -1.5875,-1.587499 h -5.291667 c -0.873125,0 -1.5875,0.714374 -1.5875,1.587499 V 36.5125 c 0,0.873125 0.714375,1.5875 1.5875,1.5875 H 36.5125 c 0.873125,0 1.5875,-0.714375 1.5875,-1.5875 z m 12.7,0 v -5.291667 c 0,-0.873125 -0.714375,-1.587499 -1.5875,-1.587499 h -5.291667 c -0.873125,0 -1.5875,0.714374 -1.5875,1.587499 V 36.5125 c 0,0.873125 0.714375,1.5875 1.5875,1.5875 H 49.2125 c 0.873125,0 1.5875,-0.714375 1.5875,-1.5875 z m -12.7,12.7 v -5.291666 c 0,-0.873126 -0.714375,-1.5875 -1.5875,-1.5875 h -5.291667 c -0.873125,0 -1.5875,0.714374 -1.5875,1.5875 V 49.2125 c 0,0.873126 0.714375,1.587502 1.5875,1.587502 H 36.5125 c 0.873125,0 1.5875,-0.714376 1.5875,-1.587502 z m -12.7,0 v -5.291666 c 0,-0.873126 -0.714375,-1.5875 -1.5875,-1.5875 h -5.291667 c -0.873125,0 -1.5875,0.714374 -1.5875,1.5875 V 49.2125 c 0,0.873126 0.714375,1.587502 1.5875,1.587502 H 23.8125 c 0.873125,0 1.5875,-0.714376 1.5875,-1.587502 z m 25.4,0 v -5.291666 c 0,-0.873126 -0.714375,-1.5875 -1.5875,-1.5875 h -5.291667 c -0.873125,0 -1.5875,0.714374 -1.5875,1.5875 V 49.2125 c 0,0.873126 0.714375,1.587502 1.5875,1.587502 H 49.2125 c 0.873125,0 1.5875,-0.714376 1.5875,-1.587502 z M 63.499999,14.816667 v 46.566665 c 0,3.50573 -2.84427,6.35 -6.349999,6.35 H 10.583333 c -3.5057292,0 -6.3500002,-2.84427 -6.3500002,-6.35 V 14.816667 c 0,-3.505729 2.844271,-6.3499999 6.3500002,-6.3499999 h 6.35 V 1.5874997 C 16.933333,0.7143754 17.647708,0 18.520833,0 H 23.8125 C 24.685625,0 25.4,0.7143754 25.4,1.5874997 V 8.4666671 H 42.333333 V 1.5874997 C 42.333333,0.7143754 43.047708,0 43.920833,0 H 49.2125 C 50.085625,0 50.8,0.7143754 50.8,1.5874997 v 6.8791674 h 6.35 c 3.505729,0 6.349999,2.8442709 6.349999,6.3499999 z M 57.15,60.589582 V 21.166667 H 10.583333 v 39.422915 c 0,0.436565 0.357187,0.79375 0.79375,0.79375 h 44.979166 c 0.436565,0 0.793751,-0.357185 0.793751,-0.79375 z"
       id="path867"
       style="fill:#325d88;fill-opacity:1;stroke-width:0.132292" />
  </g>
</svg>
