<?xml version="1.0" encoding="UTF-8" standalone="no"?>
<!-- Created with Inkscape (http://www.inkscape.org/) -->

<svg
   width="512"
   height="256"
   viewBox="0 0 135.46666 67.733332"
   version="1.1"
   id="svg5"
   inkscape:version="1.1.2 (0a00cf5339, 2022-02-04, custom)"
   sodipodi:docname="icon_calendar_month_holidays.svg"
   xmlns:inkscape="http://www.inkscape.org/namespaces/inkscape"
   xmlns:sodipodi="http://sodipodi.sourceforge.net/DTD/sodipodi-0.dtd"
   xmlns="http://www.w3.org/2000/svg"
   xmlns:svg="http://www.w3.org/2000/svg">
  <sodipodi:namedview
     id="namedview7"
     pagecolor="#505050"
     bordercolor="#eeeeee"
     borderopacity="1"
     inkscape:pageshadow="0"
     inkscape:pageopacity="0"
     inkscape:pagecheckerboard="0"
     inkscape:document-units="px"
     showgrid="false"
     units="px"
     width="64px"
     inkscape:zoom="1.0801487"
     inkscape:cx="377.72577"
     inkscape:cy="138.86977"
     inkscape:window-width="2527"
     inkscape:window-height="1408"
     inkscape:window-x="33"
     inkscape:window-y="0"
     inkscape:window-maximized="1"
     inkscape:current-layer="layer1" />
  <defs
     id="defs2" />
  <g
     inkscape:label="Livello 1"
     inkscape:groupmode="layer"
     id="layer1">
    <path
       id="path822"
       style="fill:#325d88;fill-opacity:1;stroke-width:0.132292"
       d="m 18.520833,0 c -0.873125,0 -1.5875,0.71437568 -1.5875,1.5875 v 6.8791666 h -6.35 c -3.505729,0 -6.3499998,2.8442704 -6.3499998,6.3499994 v 46.566667 c 0,3.505729 2.8442708,6.349999 6.3499998,6.349999 h 46.566666 c 3.505729,0 6.35,-2.84427 6.35,-6.349999 V 14.816666 c 0,-3.505729 -2.844271,-6.3499994 -6.35,-6.3499994 h -6.35 V 1.5875 C 50.799999,0.71437568 50.085624,0 49.212499,0 h -5.291666 c -0.873125,0 -1.5875,0.71437568 -1.5875,1.5875 V 8.4666666 H 25.4 V 1.5875 C 25.4,0.71437568 24.685625,0 23.8125,0 Z m 0,29.633333 H 23.8125 c 0.873125,0 1.5875,0.714375 1.5875,1.5875 V 36.5125 c 0,0.873125 -0.714375,1.5875 -1.5875,1.5875 h -5.291667 c -0.873125,0 -1.5875,-0.714375 -1.5875,-1.5875 v -5.291667 c 0,-0.873125 0.714375,-1.5875 1.5875,-1.5875 z m 12.7,0 h 5.291666 c 0.873131,0 1.5875,0.714375 1.5875,1.5875 V 36.5125 c 0,0.873125 -0.714369,1.5875 -1.5875,1.5875 h -5.291666 c -0.87313,0 -1.5875,-0.714375 -1.5875,-1.5875 v -5.291667 c 0,-0.873125 0.71437,-1.5875 1.5875,-1.5875 z m 12.7,0 h 5.291666 c 0.87313,0 1.5875,0.714375 1.5875,1.5875 V 36.5125 c 0,0.873125 -0.71437,1.5875 -1.5875,1.5875 h -5.291666 c -0.873131,0 -1.5875,-0.714375 -1.5875,-1.5875 v -5.291667 c 0,-0.873125 0.714369,-1.5875 1.5875,-1.5875 z m -25.4,12.7 H 23.8125 c 0.873125,0 1.5875,0.714375 1.5875,1.5875 v 5.291666 c 0,0.873125 -0.714375,1.5875 -1.5875,1.5875 h -5.291667 c -0.873125,0 -1.5875,-0.714375 -1.5875,-1.5875 v -5.291666 c 0,-0.873125 0.714375,-1.5875 1.5875,-1.5875 z m 12.7,0 h 5.291666 c 0.873131,0 1.5875,0.714375 1.5875,1.5875 v 5.291666 c 0,0.873125 -0.714369,1.5875 -1.5875,1.5875 h -5.291666 c -0.87313,0 -1.5875,-0.714375 -1.5875,-1.5875 v -5.291666 c 0,-0.873125 0.71437,-1.5875 1.5875,-1.5875 z m 12.7,0 h 5.291666 c 0.87313,0 1.5875,0.714375 1.5875,1.5875 v 5.291666 c 0,0.873125 -0.71437,1.5875 -1.5875,1.5875 h -5.291666 c -0.873131,0 -1.5875,-0.714375 -1.5875,-1.5875 v -5.291666 c 0,-0.873125 0.714369,-1.5875 1.5875,-1.5875 z" />
    <path
       d="m 74.703316,48.948101 a 11.240119,11.240119 0 0 0 3.770271,8.375892 v 4.820054 a 1.8851352,1.8851352 0 0 0 1.885135,1.885133 h 3.77027 a 1.8851352,1.8851352 0 0 0 1.885136,-1.885133 v -1.885134 h 30.162162 v 1.885134 a 1.8851352,1.8851352 0 0 0 1.88514,1.885133 h 3.77027 a 1.8851352,1.8851352 0 0 0 1.88513,-1.885133 v -4.820054 a 11.240119,11.240119 0 0 0 3.77028,-8.375892 V 43.292694 H 74.703316 Z M 129.37224,33.867017 H 80.358722 V 11.863954 a 2.5048735,2.5048735 0 0 1 4.274544,-1.76731 l 2.27041,2.26923 c -1.546989,3.520488 -0.896617,6.964394 1.015617,9.393863 l -0.02003,0.02003 a 1.8851352,1.8851352 0 0 0 0,2.661575 l 1.332555,1.332555 a 1.8851352,1.8851352 0 0 0 2.666288,0 L 104.3129,13.359103 a 1.8851352,1.8851352 0 0 0 0,-2.666289 l -1.33255,-1.3325498 a 1.8851352,1.8851352 0 0 0 -2.66511,0 l -0.02,0.02 c -2.429472,-1.91224 -5.871022,-2.56261 -9.393869,-1.01562 L 88.63211,6.094234 a 8.1591008,8.1591008 0 0 0 -13.928794,5.76969 v 22.003063 h -1.885135 a 1.8851352,1.8851352 0 0 0 -1.885135,1.885136 v 1.885135 a 1.8851352,1.8851352 0 0 0 1.885135,1.885135 h 56.554059 a 1.8851352,1.8851352 0 0 0 1.88514,-1.885135 v -1.885135 a 1.8851352,1.8851352 0 0 0 -1.88514,-1.885136 z"
       id="path13048"
       style="stroke-width:0.117821;fill:#325d88;fill-opacity:1" />
    <path
       style="fill:#325d88;fill-opacity:1;stroke-width:5.92511"
       d="m 35.548196,255.13197 c -4.708165,-0.93798 -11.448917,-5.10854 -14.301503,-8.84848 -5.168526,-6.77628 -5.045655,-4.28385 -5.040057,-102.23752 0.0032,-56.269115 0.348071,-91.583977 0.914233,-93.621913 1.578267,-5.681075 6.055537,-11.672015 10.812696,-14.468241 4.322938,-2.540994 4.985068,-2.642239 20.207955,-3.089971 L 63.880094,32.402946 64.342993,17.74449 c 0.41482,-13.1359412 0.649556,-14.7946832 2.259994,-15.9700234 2.555605,-1.86514825 24.401554,-1.86514825 26.957159,0 1.610438,1.1753402 1.845175,2.8340822 2.259994,15.9700234 l 0.4629,14.658456 h 31.94005 31.94004 l 0.25657,-14.304732 c 0.20919,-11.6635536 0.53482,-14.6122065 1.76364,-15.9700237 1.30575,-1.44284781 3.1382,-1.66529107 13.71837,-1.66529107 10.58016,0 12.41261,0.22244326 13.71837,1.66529107 1.22881,1.3578172 1.55444,4.3064701 1.76363,15.9700237 l 0.25657,14.304732 16.20147,0.462899 c 14.8973,0.425637 16.47966,0.635865 19.65728,2.6116 4.70293,2.924123 9.44683,8.661568 10.74543,12.995921 1.55545,5.191627 1.53072,185.867484 -0.0261,191.063854 -1.4503,4.84068 -8.07532,12.10166 -13.01067,14.25961 -3.74913,1.6393 -8.39921,1.73029 -95.13296,1.86158 -50.155131,0.0759 -92.69205,-0.16097 -94.526487,-0.52644 z m 59.348292,-65.55629 c 1.838328,-2.33705 1.965468,-3.41121 1.687342,-14.25567 -0.412179,-16.07133 0.06709,-15.61978 -16.578556,-15.61978 -12.67187,0 -12.762329,0.0151 -14.669288,2.43935 -1.697668,2.15823 -1.918792,3.71225 -1.918792,13.48494 0,10.57483 0.712385,14.1442 3.147441,15.77014 0.560259,0.37409 6.716793,0.68655 13.681187,0.69435 l 12.662534,0.0142 z m 47.372132,0.99531 c 1.48971,-1.34816 1.69304,-3.12086 1.69304,-14.76027 0,-16.78134 0.6711,-16.11049 -16.11635,-16.11049 -16.52238,0 -16.2866,-0.23689 -16.2866,16.36285 0,16.56014 -0.5304,16.0401 16.36003,16.0401 10.47812,0 12.94826,-0.26375 14.34988,-1.53219 z m 48.14152,0 c 1.48488,-1.3438 1.69304,-3.10806 1.69304,-14.34987 0,-17.0955 0.56351,-16.52089 -16.20147,-16.52089 -11.26389,0 -12.68116,0.18288 -14.34988,1.8516 -1.66872,1.66872 -1.8516,3.08599 -1.8516,14.34988 0,16.74617 -0.55003,16.20147 16.36003,16.20147 10.47812,0 12.94826,-0.26375 14.34988,-1.53219 z M 91.316127,143.94238 c 4.854407,-1.34838 5.651877,-4.00401 5.277714,-17.57511 -0.413074,-14.9825 -0.217415,-14.80856 -16.65692,-14.80856 -11.479691,0 -12.068871,0.094 -14.247313,2.27242 -2.157542,2.15754 -2.271775,2.82444 -2.259772,13.19263 0.01548,13.37164 0.40242,14.94937 4.056449,16.53998 3.432471,1.49418 18.927362,1.74037 23.829842,0.37864 z m 50.696983,-1.28146 c 1.80766,-1.63611 1.94855,-2.72008 1.94855,-14.99172 0,-16.76733 0.65179,-16.11049 -15.98665,-16.11049 -11.36988,0 -11.96748,0.096 -14.14388,2.27242 -2.1764,2.1764 -2.27242,2.774 -2.27242,14.14388 0,12.78406 0.78988,15.42949 4.86859,16.3058 1.1412,0.24519 6.92644,0.37784 12.85608,0.29477 9.16943,-0.12844 11.0725,-0.41468 12.72973,-1.91466 z m 48.14152,0 c 1.80212,-1.63109 1.94855,-2.72688 1.94855,-14.58132 0,-17.05972 0.51893,-16.52089 -15.91036,-16.52089 -16.73085,0 -16.49259,-0.23341 -16.49259,16.15686 0,13.06036 0.77138,15.68495 4.86859,16.56524 1.1412,0.24519 6.92644,0.37784 12.85608,0.29477 9.16943,-0.12844 11.0725,-0.41468 12.72973,-1.91466 z"
       id="path13174"
       transform="scale(0.26458332)" />
  </g>
</svg>
