<?xml version="1.0" encoding="UTF-8" standalone="no"?>
<!-- Created with Inkscape (http://www.inkscape.org/) -->

<svg
   width="256"
   height="256"
   viewBox="0 0 67.733332 67.733332"
   version="1.1"
   id="svg5"
   inkscape:version="1.1.2 (0a00cf5339, 2022-02-04, custom)"
   sodipodi:docname="icon_calendar_month.svg"
   xmlns:inkscape="http://www.inkscape.org/namespaces/inkscape"
   xmlns:sodipodi="http://sodipodi.sourceforge.net/DTD/sodipodi-0.dtd"
   xmlns="http://www.w3.org/2000/svg"
   xmlns:svg="http://www.w3.org/2000/svg">
  <sodipodi:namedview
     id="namedview7"
     pagecolor="#505050"
     bordercolor="#eeeeee"
     borderopacity="1"
     inkscape:pageshadow="0"
     inkscape:pageopacity="0"
     inkscape:pagecheckerboard="0"
     inkscape:document-units="px"
     showgrid="false"
     units="px"
     width="64px"
     inkscape:zoom="2.3236875"
     inkscape:cx="205.70752"
     inkscape:cy="147.17986"
     inkscape:window-width="2527"
     inkscape:window-height="1408"
     inkscape:window-x="33"
     inkscape:window-y="0"
     inkscape:window-maximized="1"
     inkscape:current-layer="layer1" />
  <defs
     id="defs2" />
  <g
     inkscape:label="Livello 1"
     inkscape:groupmode="layer"
     id="layer1">
    <path
       id="path822"
       style="fill:#325d88;fill-opacity:1;stroke-width:0.132292"
       d="m 18.520833,0 c -0.873125,0 -1.5875,0.71437568 -1.5875,1.5875 v 6.8791666 h -6.35 c -3.505729,0 -6.3499998,2.8442704 -6.3499998,6.3499994 v 46.566667 c 0,3.505729 2.8442708,6.349999 6.3499998,6.349999 h 46.566666 c 3.505729,0 6.35,-2.84427 6.35,-6.349999 V 14.816666 c 0,-3.505729 -2.844271,-6.3499994 -6.35,-6.3499994 h -6.35 V 1.5875 C 50.799999,0.71437568 50.085624,0 49.212499,0 h -5.291666 c -0.873125,0 -1.5875,0.71437568 -1.5875,1.5875 V 8.4666666 H 25.4 V 1.5875 C 25.4,0.71437568 24.685625,0 23.8125,0 Z m 0,29.633333 H 23.8125 c 0.873125,0 1.5875,0.714375 1.5875,1.5875 V 36.5125 c 0,0.873125 -0.714375,1.5875 -1.5875,1.5875 h -5.291667 c -0.873125,0 -1.5875,-0.714375 -1.5875,-1.5875 v -5.291667 c 0,-0.873125 0.714375,-1.5875 1.5875,-1.5875 z m 12.7,0 h 5.291666 c 0.873131,0 1.5875,0.714375 1.5875,1.5875 V 36.5125 c 0,0.873125 -0.714369,1.5875 -1.5875,1.5875 h -5.291666 c -0.87313,0 -1.5875,-0.714375 -1.5875,-1.5875 v -5.291667 c 0,-0.873125 0.71437,-1.5875 1.5875,-1.5875 z m 12.7,0 h 5.291666 c 0.87313,0 1.5875,0.714375 1.5875,1.5875 V 36.5125 c 0,0.873125 -0.71437,1.5875 -1.5875,1.5875 h -5.291666 c -0.873131,0 -1.5875,-0.714375 -1.5875,-1.5875 v -5.291667 c 0,-0.873125 0.714369,-1.5875 1.5875,-1.5875 z m -25.4,12.7 H 23.8125 c 0.873125,0 1.5875,0.714375 1.5875,1.5875 v 5.291666 c 0,0.873125 -0.714375,1.5875 -1.5875,1.5875 h -5.291667 c -0.873125,0 -1.5875,-0.714375 -1.5875,-1.5875 v -5.291666 c 0,-0.873125 0.714375,-1.5875 1.5875,-1.5875 z m 12.7,0 h 5.291666 c 0.873131,0 1.5875,0.714375 1.5875,1.5875 v 5.291666 c 0,0.873125 -0.714369,1.5875 -1.5875,1.5875 h -5.291666 c -0.87313,0 -1.5875,-0.714375 -1.5875,-1.5875 v -5.291666 c 0,-0.873125 0.71437,-1.5875 1.5875,-1.5875 z m 12.7,0 h 5.291666 c 0.87313,0 1.5875,0.714375 1.5875,1.5875 v 5.291666 c 0,0.873125 -0.71437,1.5875 -1.5875,1.5875 h -5.291666 c -0.873131,0 -1.5875,-0.714375 -1.5875,-1.5875 v -5.291666 c 0,-0.873125 0.714369,-1.5875 1.5875,-1.5875 z" />
  </g>
</svg>
