<?xml version="1.0" encoding="UTF-8" standalone="no"?>
<!-- Created with Inkscape (http://www.inkscape.org/) -->

<svg
   width="512"
   height="256"
   viewBox="0 0 135.46666 67.733332"
   version="1.1"
   id="svg5"
   inkscape:version="1.1.2 (0a00cf5339, 2022-02-04, custom)"
   sodipodi:docname="icon_list_absences.svg"
   xmlns:inkscape="http://www.inkscape.org/namespaces/inkscape"
   xmlns:sodipodi="http://sodipodi.sourceforge.net/DTD/sodipodi-0.dtd"
   xmlns="http://www.w3.org/2000/svg"
   xmlns:svg="http://www.w3.org/2000/svg">
  <sodipodi:namedview
     id="namedview7"
     pagecolor="#505050"
     bordercolor="#eeeeee"
     borderopacity="1"
     inkscape:pageshadow="0"
     inkscape:pageopacity="0"
     inkscape:pagecheckerboard="0"
     inkscape:document-units="px"
     showgrid="false"
     units="px"
     width="64px"
     inkscape:zoom="1.6538468"
     inkscape:cx="520.60443"
     inkscape:cy="193.79062"
     inkscape:window-width="2527"
     inkscape:window-height="1408"
     inkscape:window-x="33"
     inkscape:window-y="0"
     inkscape:window-maximized="1"
     inkscape:current-layer="layer1" />
  <defs
     id="defs2" />
  <g
     inkscape:label="Livello 1"
     inkscape:groupmode="layer"
     id="layer1">
    <path
       d="m 21.343012,28.574998 v 10.583334 c 0,1.753526 -1.42147,3.175 -3.175,3.175 H 4.7625008 c -1.75353,0 -3.1749999,-1.421474 -3.1749999,-3.175 V 28.574998 c 0,-1.753526 1.4214699,-3.175 3.1749999,-3.175 H 18.168012 c 1.75353,0 3.175,1.421474 3.175,3.175 z M 1.5875009,49.741665 V 60.325 c 0,1.753525 1.4214699,3.175 3.1749999,3.175 H 18.168012 c 1.75353,0 3.175,-1.421475 3.175,-3.175 V 49.741665 c 0,-1.753526 -1.42147,-3.175 -3.175,-3.175 H 4.7625008 c -1.75353,0 -3.1749999,1.421474 -3.1749999,3.175 z M 18.168012,4.2333315 H 4.7625008 c -1.75353,0 -3.1749999,1.421474 -3.1749999,3.175 V 17.991665 c 0,1.753526 1.4214699,3.175 3.1749999,3.175 H 18.168012 c 1.75353,0 3.175,-1.421474 3.175,-3.175 V 7.4083315 c 0,-1.753526 -1.42147,-3.175 -3.175,-3.175 z M 28.751352,63.5 h 37.39448 c 1.75353,0 3.175,-1.421475 3.175,-3.175 V 49.741665 c 0,-1.753526 -1.42147,-3.175 -3.175,-3.175 h -37.39448 c -1.75353,0 -3.175,1.421474 -3.175,3.175 V 60.325 c 0,1.753525 1.42147,3.175 3.175,3.175 z m -3.175,-56.0916685 V 17.991665 c 0,1.753526 1.42147,3.175 3.175,3.175 h 37.39448 c 1.75353,0 3.175,-1.421474 3.175,-3.175 V 7.4083315 c 0,-1.753526 -1.42147,-3.175 -3.175,-3.175 h -37.39448 c -1.75353,0 -3.175,1.421474 -3.175,3.175 z m 3.175,34.9250005 h 37.39448 c 1.75353,0 3.175,-1.421474 3.175,-3.175 V 28.574998 c 0,-1.753526 -1.42147,-3.175 -3.175,-3.175 h -37.39448 c -1.75353,0 -3.175,1.421474 -3.175,3.175 v 10.583334 c 0,1.753526 1.42147,3.175 3.175,3.175 z"
       id="path997"
       style="fill:#325d88;fill-opacity:1;stroke-width:0.132291" />
    <path
       d="M 124.12367,27.163858 H 112.15392 L 101.14665,7.8995672 A 1.6771683,1.6771683 0 0 0 99.690885,7.0554328 h -6.859906 c -1.113299,0 -1.916589,1.065118 -1.610766,2.1354729 L 96.355191,27.163858 H 85.582521 L 81.058119,21.131331 C 80.741832,20.709262 80.244364,20.461049 79.71756,20.461049 h -4.188209 c -1.09025,0 -1.890396,1.024273 -1.625426,2.08206 l 3.300077,11.323557 -3.300077,11.323557 c -0.26497,1.057786 0.535176,2.082061 1.625426,2.082061 h 4.188209 c 0.527846,0 1.024272,-0.248216 1.340559,-0.670282 l 4.524402,-6.032527 h 10.77267 l -5.134978,17.971903 c -0.305823,1.070354 0.497467,2.13652 1.610766,2.13652 h 6.859906 c 0.601155,0 1.156235,-0.32257 1.454725,-0.844134 l 11.00831,-19.264289 h 11.96975 c 3.70226,0 10.05422,-3.000554 10.05422,-6.702809 0,-3.702254 -6.35196,-6.702808 -10.05422,-6.702808 z"
       id="path13031"
       style="stroke-width:0.104731;fill:#325d88;fill-opacity:1" />
  </g>
</svg>
