<?xml version="1.0" encoding="UTF-8" standalone="no"?>
<!-- Created with Inkscape (http://www.inkscape.org/) -->

<svg
   width="512"
   height="256"
   viewBox="0 0 135.46666 67.733332"
   version="1.1"
   id="svg5"
   inkscape:version="1.1.2 (0a00cf5339, 2022-02-04, custom)"
   sodipodi:docname="icon_list_holidays.svg"
   xmlns:inkscape="http://www.inkscape.org/namespaces/inkscape"
   xmlns:sodipodi="http://sodipodi.sourceforge.net/DTD/sodipodi-0.dtd"
   xmlns="http://www.w3.org/2000/svg"
   xmlns:svg="http://www.w3.org/2000/svg">
  <sodipodi:namedview
     id="namedview7"
     pagecolor="#505050"
     bordercolor="#eeeeee"
     borderopacity="1"
     inkscape:pageshadow="0"
     inkscape:pageopacity="0"
     inkscape:pagecheckerboard="0"
     inkscape:document-units="px"
     showgrid="false"
     units="px"
     width="64px"
     inkscape:zoom="1.6538468"
     inkscape:cx="520.60445"
     inkscape:cy="192.27899"
     inkscape:window-width="2527"
     inkscape:window-height="1408"
     inkscape:window-x="33"
     inkscape:window-y="0"
     inkscape:window-maximized="1"
     inkscape:current-layer="layer1" />
  <defs
     id="defs2" />
  <g
     inkscape:label="Livello 1"
     inkscape:groupmode="layer"
     id="layer1">
    <path
       d="m 21.343012,28.574998 v 10.583334 c 0,1.753526 -1.42147,3.175 -3.175,3.175 H 4.7625008 c -1.75353,0 -3.1749999,-1.421474 -3.1749999,-3.175 V 28.574998 c 0,-1.753526 1.4214699,-3.175 3.1749999,-3.175 H 18.168012 c 1.75353,0 3.175,1.421474 3.175,3.175 z M 1.5875009,49.741665 V 60.325 c 0,1.753525 1.4214699,3.175 3.1749999,3.175 H 18.168012 c 1.75353,0 3.175,-1.421475 3.175,-3.175 V 49.741665 c 0,-1.753526 -1.42147,-3.175 -3.175,-3.175 H 4.7625008 c -1.75353,0 -3.1749999,1.421474 -3.1749999,3.175 z M 18.168012,4.2333315 H 4.7625008 c -1.75353,0 -3.1749999,1.421474 -3.1749999,3.175 V 17.991665 c 0,1.753526 1.4214699,3.175 3.1749999,3.175 H 18.168012 c 1.75353,0 3.175,-1.421474 3.175,-3.175 V 7.4083315 c 0,-1.753526 -1.42147,-3.175 -3.175,-3.175 z M 28.751352,63.5 h 37.39448 c 1.75353,0 3.175,-1.421475 3.175,-3.175 V 49.741665 c 0,-1.753526 -1.42147,-3.175 -3.175,-3.175 h -37.39448 c -1.75353,0 -3.175,1.421474 -3.175,3.175 V 60.325 c 0,1.753525 1.42147,3.175 3.175,3.175 z m -3.175,-56.0916685 V 17.991665 c 0,1.753526 1.42147,3.175 3.175,3.175 h 37.39448 c 1.75353,0 3.175,-1.421474 3.175,-3.175 V 7.4083315 c 0,-1.753526 -1.42147,-3.175 -3.175,-3.175 h -37.39448 c -1.75353,0 -3.175,1.421474 -3.175,3.175 z m 3.175,34.9250005 h 37.39448 c 1.75353,0 3.175,-1.421474 3.175,-3.175 V 28.574998 c 0,-1.753526 -1.42147,-3.175 -3.175,-3.175 h -37.39448 c -1.75353,0 -3.175,1.421474 -3.175,3.175 v 10.583334 c 0,1.753526 1.42147,3.175 3.175,3.175 z"
       id="path997"
       style="fill:#325d88;fill-opacity:1;stroke-width:0.132291" />
    <path
       d="m 102.57769,7.9374997 c -14.323768,0 -25.929161,11.6053923 -25.929161,25.9291653 0,14.323774 11.605393,25.929166 25.929161,25.929166 14.32378,0 25.92917,-11.605392 25.92917,-25.929166 0,-14.323773 -11.60539,-25.9291653 -25.92917,-25.9291653 z m 9.67012,32.7251153 v 0 l -2.09106,2.613827 a 1.6728494,1.6728494 0 0 1 -2.3514,0.261383 v 0 l -7.00506,-5.198379 A 4.1821234,4.1821234 0 0 1 99.231996,35.074253 V 18.81102 a 1.6728494,1.6728494 0 0 1 1.672844,-1.672849 h 3.3457 a 1.6728494,1.6728494 0 0 1 1.67285,1.672849 v 15.055645 l 6.06408,4.443506 a 1.6728494,1.6728494 0 0 1 0.26034,2.352444 z"
       id="path9809"
       style="stroke-width:0.104553;fill:#325d88;fill-opacity:1" />
  </g>
</svg>
