<?xml version="1.0" encoding="UTF-8" standalone="no"?>
<!-- Created with Inkscape (http://www.inkscape.org/) -->

<svg
   width="512"
   height="256"
   viewBox="0 0 135.46666 67.733332"
   version="1.1"
   id="svg5"
   inkscape:version="1.1.2 (0a00cf5339, 2022-02-04, custom)"
   sodipodi:docname="icon_list_holidays.svg"
   xmlns:inkscape="http://www.inkscape.org/namespaces/inkscape"
   xmlns:sodipodi="http://sodipodi.sourceforge.net/DTD/sodipodi-0.dtd"
   xmlns="http://www.w3.org/2000/svg"
   xmlns:svg="http://www.w3.org/2000/svg">
  <sodipodi:namedview
     id="namedview7"
     pagecolor="#505050"
     bordercolor="#eeeeee"
     borderopacity="1"
     inkscape:pageshadow="0"
     inkscape:pageopacity="0"
     inkscape:pagecheckerboard="0"
     inkscape:document-units="px"
     showgrid="false"
     units="px"
     width="64px"
     inkscape:zoom="1.6538468"
     inkscape:cx="520.60445"
     inkscape:cy="193.79062"
     inkscape:window-width="2527"
     inkscape:window-height="1408"
     inkscape:window-x="33"
     inkscape:window-y="0"
     inkscape:window-maximized="1"
     inkscape:current-layer="layer1" />
  <defs
     id="defs2" />
  <g
     inkscape:label="Livello 1"
     inkscape:groupmode="layer"
     id="layer1">
    <path
       d="m 21.343012,28.574998 v 10.583334 c 0,1.753526 -1.42147,3.175 -3.175,3.175 H 4.7625008 c -1.75353,0 -3.1749999,-1.421474 -3.1749999,-3.175 V 28.574998 c 0,-1.753526 1.4214699,-3.175 3.1749999,-3.175 H 18.168012 c 1.75353,0 3.175,1.421474 3.175,3.175 z M 1.5875009,49.741665 V 60.325 c 0,1.753525 1.4214699,3.175 3.1749999,3.175 H 18.168012 c 1.75353,0 3.175,-1.421475 3.175,-3.175 V 49.741665 c 0,-1.753526 -1.42147,-3.175 -3.175,-3.175 H 4.7625008 c -1.75353,0 -3.1749999,1.421474 -3.1749999,3.175 z M 18.168012,4.2333315 H 4.7625008 c -1.75353,0 -3.1749999,1.421474 -3.1749999,3.175 V 17.991665 c 0,1.753526 1.4214699,3.175 3.1749999,3.175 H 18.168012 c 1.75353,0 3.175,-1.421474 3.175,-3.175 V 7.4083315 c 0,-1.753526 -1.42147,-3.175 -3.175,-3.175 z M 28.751352,63.5 h 37.39448 c 1.75353,0 3.175,-1.421475 3.175,-3.175 V 49.741665 c 0,-1.753526 -1.42147,-3.175 -3.175,-3.175 h -37.39448 c -1.75353,0 -3.175,1.421474 -3.175,3.175 V 60.325 c 0,1.753525 1.42147,3.175 3.175,3.175 z m -3.175,-56.0916685 V 17.991665 c 0,1.753526 1.42147,3.175 3.175,3.175 h 37.39448 c 1.75353,0 3.175,-1.421474 3.175,-3.175 V 7.4083315 c 0,-1.753526 -1.42147,-3.175 -3.175,-3.175 h -37.39448 c -1.75353,0 -3.175,1.421474 -3.175,3.175 z m 3.175,34.9250005 h 37.39448 c 1.75353,0 3.175,-1.421474 3.175,-3.175 V 28.574998 c 0,-1.753526 -1.42147,-3.175 -3.175,-3.175 h -37.39448 c -1.75353,0 -3.175,1.421474 -3.175,3.175 v 10.583334 c 0,1.753526 1.42147,3.175 3.175,3.175 z"
       id="path997"
       style="fill:#325d88;fill-opacity:1;stroke-width:0.132291" />
    <path
       d="m 76.754494,48.948082 a 11.240122,11.240122 0 0 0 3.770271,8.375893 v 4.820056 a 1.8851358,1.8851358 0 0 0 1.885136,1.885134 h 3.770272 a 1.8851358,1.8851358 0 0 0 1.885135,-1.885134 v -1.885135 h 30.162182 v 1.885135 a 1.8851358,1.8851358 0 0 0 1.88513,1.885134 h 3.77028 a 1.8851358,1.8851358 0 0 0 1.88513,-1.885134 v -4.820056 a 11.240122,11.240122 0 0 0 3.77027,-8.375893 V 43.292673 H 76.754494 Z M 131.42343,33.866994 H 82.409901 v -22.00307 a 2.5048743,2.5048743 0 0 1 4.274546,-1.767315 l 2.27041,2.269232 c -1.546989,3.520492 -0.896617,6.964399 1.015615,9.393868 l -0.02004,0.02003 a 1.8851358,1.8851358 0 0 0 0,2.661576 l 1.332557,1.332556 a 1.8851358,1.8851358 0 0 0 2.666288,0 L 106.36408,13.359072 a 1.8851358,1.8851358 0 0 0 0,-2.666289 l -1.33256,-1.332555 a 1.8851358,1.8851358 0 0 0 -2.66511,0 l -0.02,0.02003 C 99.916905,7.4680225 96.475353,6.8176506 92.952506,8.3646402 L 90.683272,6.0942296 A 8.1591035,8.1591035 0 0 0 76.754494,11.863924 v 22.00307 h -1.885136 a 1.8851358,1.8851358 0 0 0 -1.885136,1.885135 v 1.885136 a 1.8851358,1.8851358 0 0 0 1.885136,1.885137 h 56.554072 a 1.8851358,1.8851358 0 0 0 1.88513,-1.885137 v -1.885136 a 1.8851358,1.8851358 0 0 0 -1.88513,-1.885135 z"
       id="path847"
       style="stroke-width:0.117821;fill:#325d88;fill-opacity:1" />
  </g>
</svg>
