<?xml version="1.0" encoding="UTF-8" standalone="no"?>
<!-- Created with Inkscape (http://www.inkscape.org/) -->

<svg
   width="512"
   height="256"
   viewBox="0 0 135.46666 67.733332"
   version="1.1"
   id="svg5"
   inkscape:version="1.1.2 (0a00cf5339, 2022-02-04, custom)"
   sodipodi:docname="icon_list_diseases.svg"
   xmlns:inkscape="http://www.inkscape.org/namespaces/inkscape"
   xmlns:sodipodi="http://sodipodi.sourceforge.net/DTD/sodipodi-0.dtd"
   xmlns="http://www.w3.org/2000/svg"
   xmlns:svg="http://www.w3.org/2000/svg">
  <sodipodi:namedview
     id="namedview7"
     pagecolor="#505050"
     bordercolor="#eeeeee"
     borderopacity="1"
     inkscape:pageshadow="0"
     inkscape:pageopacity="0"
     inkscape:pagecheckerboard="0"
     inkscape:document-units="px"
     showgrid="false"
     units="px"
     width="64px"
     inkscape:zoom="1.6538468"
     inkscape:cx="520.60443"
     inkscape:cy="192.27899"
     inkscape:window-width="2527"
     inkscape:window-height="1408"
     inkscape:window-x="33"
     inkscape:window-y="0"
     inkscape:window-maximized="1"
     inkscape:current-layer="layer1" />
  <defs
     id="defs2" />
  <g
     inkscape:label="Livello 1"
     inkscape:groupmode="layer"
     id="layer1">
    <path
       d="m 21.343012,28.574998 v 10.583334 c 0,1.753526 -1.42147,3.175 -3.175,3.175 H 4.7625008 c -1.75353,0 -3.1749999,-1.421474 -3.1749999,-3.175 V 28.574998 c 0,-1.753526 1.4214699,-3.175 3.1749999,-3.175 H 18.168012 c 1.75353,0 3.175,1.421474 3.175,3.175 z M 1.5875009,49.741665 V 60.325 c 0,1.753525 1.4214699,3.175 3.1749999,3.175 H 18.168012 c 1.75353,0 3.175,-1.421475 3.175,-3.175 V 49.741665 c 0,-1.753526 -1.42147,-3.175 -3.175,-3.175 H 4.7625008 c -1.75353,0 -3.1749999,1.421474 -3.1749999,3.175 z M 18.168012,4.2333315 H 4.7625008 c -1.75353,0 -3.1749999,1.421474 -3.1749999,3.175 V 17.991665 c 0,1.753526 1.4214699,3.175 3.1749999,3.175 H 18.168012 c 1.75353,0 3.175,-1.421474 3.175,-3.175 V 7.4083315 c 0,-1.753526 -1.42147,-3.175 -3.175,-3.175 z M 28.751352,63.5 h 37.39448 c 1.75353,0 3.175,-1.421475 3.175,-3.175 V 49.741665 c 0,-1.753526 -1.42147,-3.175 -3.175,-3.175 h -37.39448 c -1.75353,0 -3.175,1.421474 -3.175,3.175 V 60.325 c 0,1.753525 1.42147,3.175 3.175,3.175 z m -3.175,-56.0916685 V 17.991665 c 0,1.753526 1.42147,3.175 3.175,3.175 h 37.39448 c 1.75353,0 3.175,-1.421474 3.175,-3.175 V 7.4083315 c 0,-1.753526 -1.42147,-3.175 -3.175,-3.175 h -37.39448 c -1.75353,0 -3.175,1.421474 -3.175,3.175 z m 3.175,34.9250005 h 37.39448 c 1.75353,0 3.175,-1.421474 3.175,-3.175 V 28.574998 c 0,-1.753526 -1.42147,-3.175 -3.175,-3.175 h -37.39448 c -1.75353,0 -3.175,1.421474 -3.175,3.175 v 10.583334 c 0,1.753526 1.42147,3.175 3.175,3.175 z"
       id="path997"
       style="fill:#325d88;fill-opacity:1;stroke-width:0.132291" />
    <path
       d="m 111.81367,48.947917 c 0,4.164545 -3.37607,7.540623 -7.54062,7.540623 -4.16455,0 -7.540633,-3.376078 -7.540633,-7.540623 0,-2.790622 1.51708,-5.225301 3.770313,-6.529358 V 30.096353 c 0,-2.082273 1.68804,-3.770313 3.77032,-3.770313 2.08227,0 3.77031,1.68804 3.77031,3.770313 v 12.322206 c 2.25323,1.304057 3.77031,3.738736 3.77031,6.529358 z m 3.77032,-9.97401 c 2.34607,2.658424 3.77031,6.149615 3.77031,9.97401 0,8.329561 -6.75157,15.081247 -15.08125,15.081247 -0.0352,0 -0.0718,-1.15e-4 -0.10711,-3.52e-4 -8.283143,-0.0575 -15.016213,-6.876226 -14.973903,-15.159484 0.0193,-3.793641 1.44014,-7.25526 3.77007,-9.895421 V 15.015104 c 0,-6.2468188 5.06412,-11.3109375 11.310943,-11.3109375 6.24682,0 11.31094,5.0641187 11.31094,11.3109375 z m -1.88516,9.97401 c 0,-4.0459 -2.28222,-6.149146 -3.77031,-7.835418 V 15.015104 c 0,-3.118402 -2.53707,-5.6554688 -5.65547,-5.6554688 -3.11841,0 -5.655473,2.5370668 -5.655473,5.6554688 v 26.097395 c -1.50011,1.69994 -3.7497,3.782094 -3.7702,7.785694 -0.0265,5.169571 4.19011,9.43945 9.357813,9.475266 l 0.0679,2.36e-4 c 5.19738,0 9.42578,-4.228402 9.42578,-9.425778 z"
       id="path19847"
       style="stroke-width:0.117822;fill:#325d88;fill-opacity:1" />
  </g>
</svg>
