<?xml version="1.0" encoding="UTF-8" standalone="no"?>
<!-- Created with Inkscape (http://www.inkscape.org/) -->

<svg
   width="512"
   height="256"
   viewBox="0 0 135.46666 67.733332"
   version="1.1"
   id="svg5"
   inkscape:version="1.1.2 (0a00cf5339, 2022-02-04, custom)"
   sodipodi:docname="icon_calendar_month_diseases.svg"
   xmlns:inkscape="http://www.inkscape.org/namespaces/inkscape"
   xmlns:sodipodi="http://sodipodi.sourceforge.net/DTD/sodipodi-0.dtd"
   xmlns="http://www.w3.org/2000/svg"
   xmlns:svg="http://www.w3.org/2000/svg">
  <sodipodi:namedview
     id="namedview7"
     pagecolor="#505050"
     bordercolor="#eeeeee"
     borderopacity="1"
     inkscape:pageshadow="0"
     inkscape:pageopacity="0"
     inkscape:pagecheckerboard="0"
     inkscape:document-units="px"
     showgrid="false"
     units="px"
     width="64px"
     inkscape:zoom="2.3236875"
     inkscape:cx="399.36523"
     inkscape:cy="147.17986"
     inkscape:window-width="2527"
     inkscape:window-height="1408"
     inkscape:window-x="33"
     inkscape:window-y="0"
     inkscape:window-maximized="1"
     inkscape:current-layer="layer1" />
  <defs
     id="defs2" />
  <g
     inkscape:label="Livello 1"
     inkscape:groupmode="layer"
     id="layer1">
    <path
       id="path822"
       style="fill:#325d88;fill-opacity:1;stroke-width:0.132292"
       d="m 18.520833,0 c -0.873125,0 -1.5875,0.71437568 -1.5875,1.5875 v 6.8791666 h -6.35 c -3.505729,0 -6.3499998,2.8442704 -6.3499998,6.3499994 v 46.566667 c 0,3.505729 2.8442708,6.349999 6.3499998,6.349999 h 46.566666 c 3.505729,0 6.35,-2.84427 6.35,-6.349999 V 14.816666 c 0,-3.505729 -2.844271,-6.3499994 -6.35,-6.3499994 h -6.35 V 1.5875 C 50.799999,0.71437568 50.085624,0 49.212499,0 h -5.291666 c -0.873125,0 -1.5875,0.71437568 -1.5875,1.5875 V 8.4666666 H 25.4 V 1.5875 C 25.4,0.71437568 24.685625,0 23.8125,0 Z m 0,29.633333 H 23.8125 c 0.873125,0 1.5875,0.714375 1.5875,1.5875 V 36.5125 c 0,0.873125 -0.714375,1.5875 -1.5875,1.5875 h -5.291667 c -0.873125,0 -1.5875,-0.714375 -1.5875,-1.5875 v -5.291667 c 0,-0.873125 0.714375,-1.5875 1.5875,-1.5875 z m 12.7,0 h 5.291666 c 0.873131,0 1.5875,0.714375 1.5875,1.5875 V 36.5125 c 0,0.873125 -0.714369,1.5875 -1.5875,1.5875 h -5.291666 c -0.87313,0 -1.5875,-0.714375 -1.5875,-1.5875 v -5.291667 c 0,-0.873125 0.71437,-1.5875 1.5875,-1.5875 z m 12.7,0 h 5.291666 c 0.87313,0 1.5875,0.714375 1.5875,1.5875 V 36.5125 c 0,0.873125 -0.71437,1.5875 -1.5875,1.5875 h -5.291666 c -0.873131,0 -1.5875,-0.714375 -1.5875,-1.5875 v -5.291667 c 0,-0.873125 0.714369,-1.5875 1.5875,-1.5875 z m -25.4,12.7 H 23.8125 c 0.873125,0 1.5875,0.714375 1.5875,1.5875 v 5.291666 c 0,0.873125 -0.714375,1.5875 -1.5875,1.5875 h -5.291667 c -0.873125,0 -1.5875,-0.714375 -1.5875,-1.5875 v -5.291666 c 0,-0.873125 0.714375,-1.5875 1.5875,-1.5875 z m 12.7,0 h 5.291666 c 0.873131,0 1.5875,0.714375 1.5875,1.5875 v 5.291666 c 0,0.873125 -0.714369,1.5875 -1.5875,1.5875 h -5.291666 c -0.87313,0 -1.5875,-0.714375 -1.5875,-1.5875 v -5.291666 c 0,-0.873125 0.71437,-1.5875 1.5875,-1.5875 z m 12.7,0 h 5.291666 c 0.87313,0 1.5875,0.714375 1.5875,1.5875 v 5.291666 c 0,0.873125 -0.71437,1.5875 -1.5875,1.5875 h -5.291666 c -0.873131,0 -1.5875,-0.714375 -1.5875,-1.5875 v -5.291666 c 0,-0.873125 0.714369,-1.5875 1.5875,-1.5875 z" />
    <path
       d="m 109.53049,48.947918 c 0,4.164545 -3.37607,7.540623 -7.54061,7.540623 -4.164555,0 -7.54063,-3.376078 -7.54063,-7.540623 0,-2.790622 1.517082,-5.225302 3.77031,-6.529358 V 30.096354 c 0,-2.082273 1.688047,-3.770313 3.77032,-3.770313 2.08227,0 3.77031,1.68804 3.77031,3.770313 V 42.41856 c 2.25322,1.304056 3.7703,3.738736 3.7703,6.529358 z m 3.77033,-9.97401 c 2.34608,2.658424 3.7703,6.149615 3.7703,9.97401 0,8.329561 -6.75156,15.081247 -15.08124,15.081247 -0.0352,0 -0.0717,-1.15e-4 -0.10711,-3.52e-4 -8.28314,-0.0575 -15.016212,-6.876226 -14.973907,-15.159484 0.01933,-3.793641 1.44014,-7.255261 3.770078,-9.895421 V 15.015104 c 0,-6.2468192 5.064112,-11.3109379 11.310939,-11.3109379 6.24682,0 11.31094,5.0641187 11.31094,11.3109379 z m -1.88517,9.97401 c 0,-4.0459 -2.28221,-6.149146 -3.7703,-7.835418 V 15.015104 c 0,-3.118402 -2.53708,-5.6554691 -5.65547,-5.6554691 -3.118409,0 -5.65547,2.5370671 -5.65547,5.6554691 V 41.1125 c -1.500115,1.69994 -3.7497,3.782095 -3.770194,7.785695 -0.02646,5.169569 4.190106,9.439448 9.357804,9.475265 l 0.0678,2.36e-4 c 5.19738,0 9.42577,-4.228403 9.42577,-9.425778 z"
       id="path3874"
       style="fill:#325d88;fill-opacity:1;stroke-width:0.117822" />
  </g>
</svg>
