<?xml version="1.0" encoding="UTF-8" standalone="no"?>
<svg
   inkscape:export-ydpi="96"
   inkscape:export-xdpi="96"
   inkscape:export-filename="/run/user/1000/gvfs/dav:host=cloud.cgil-fvg.net,ssl=true,user=davo%40fvg.cgil.it,prefix=%2Fremote.php%2Fwebdav/Loghi/logo_davo_istantmessaging_v2_27042020.svg.png"
   sodipodi:docname="logo_davosky_connection.svg"
   inkscape:version="1.1.2 (0a00cf5339, 2022-02-04, custom)"
   id="svg8"
   version="1.1"
   viewBox="0 0 125.67708 33.866668"
   height="128"
   width="475"
   xmlns:inkscape="http://www.inkscape.org/namespaces/inkscape"
   xmlns:sodipodi="http://sodipodi.sourceforge.net/DTD/sodipodi-0.dtd"
   xmlns="http://www.w3.org/2000/svg"
   xmlns:svg="http://www.w3.org/2000/svg"
   xmlns:rdf="http://www.w3.org/1999/02/22-rdf-syntax-ns#"
   xmlns:cc="http://creativecommons.org/ns#"
   xmlns:dc="http://purl.org/dc/elements/1.1/">
  <defs
     id="defs2" />
  <sodipodi:namedview
     inkscape:document-rotation="0"
     inkscape:measure-end="0,0"
     inkscape:measure-start="550.341,241.548"
     inkscape:window-maximized="1"
     inkscape:window-y="0"
     inkscape:window-x="33"
     inkscape:window-height="1408"
     inkscape:window-width="2527"
     inkscape:showpageshadow="false"
     units="px"
     showgrid="false"
     inkscape:current-layer="layer1"
     inkscape:document-units="px"
     inkscape:cy="220"
     inkscape:cx="142.22222"
     inkscape:zoom="0.9"
     inkscape:pageshadow="2"
     inkscape:pageopacity="0.0"
     borderopacity="1.0"
     bordercolor="#666666"
     pagecolor="#ffffff"
     id="base"
     inkscape:pagecheckerboard="0" />
  <metadata
     id="metadata5">
    <rdf:RDF>
      <cc:Work
         rdf:about="">
        <dc:format>image/svg+xml</dc:format>
        <dc:type
           rdf:resource="http://purl.org/dc/dcmitype/StillImage" />
      </cc:Work>
    </rdf:RDF>
  </metadata>
  <g
     transform="translate(0,-161.53331)"
     id="layer1"
     inkscape:groupmode="layer"
     inkscape:label="Livello 1">
    <g
       aria-label="by Davo Davosky"
       id="text3969"
       style="font-size:1.22231px;font-family:Dunkin;-inkscape-font-specification:Dunkin;fill:#3c629e;stroke-width:0.2151" />
    <g
       style="font-style:normal;font-weight:normal;font-size:17.7836px;line-height:1.25;font-family:sans-serif;fill:#325d88;fill-opacity:1;stroke:none;stroke-width:0.444589"
       id="text40"
       aria-label="The"
       transform="matrix(0.27508611,0,0,0.27508611,-1.7172793,115.39858)">
      <path
         id="path865"
         style="font-style:normal;font-variant:normal;font-weight:normal;font-stretch:normal;font-size:17.7836px;font-family:'Lobster Two';-inkscape-font-specification:'Lobster Two, Normal';font-variant-ligatures:normal;font-variant-caps:normal;font-variant-numeric:normal;font-variant-east-asian:normal;fill:#325d88;fill-opacity:1;stroke-width:0.444589"
         d="m 211.54146,186.66967 c 0,-2.79202 1.58274,-3.55672 3.57451,-3.62785 l -2.54306,11.80831 h 2.56084 l 2.50749,-11.64826 c 0.81804,0.1067 1.61831,0.24897 2.34743,0.30232 l -2.43635,11.34594 h 2.56084 c 0.4268,-2.36522 0.78248,-4.26807 1.0848,-5.81524 0.26675,-0.83583 0.72912,-1.52939 1.35155,-1.52939 0.42681,0 0.64021,0.32011 0.64021,0.90697 0,1.13815 -0.80026,3.32553 -0.80026,4.53481 0,1.01367 0.55129,2.00955 2.09846,2.00955 0.94253,0 2.31187,-0.37346 3.30775,-3.28997 h -0.74691 c -0.39124,0.92475 -0.71134,1.56496 -1.49382,1.56496 -0.53351,0 -0.71134,-0.30232 -0.71134,-0.74691 0,-0.99588 0.85361,-3.1477 0.85361,-4.58817 0,-1.42269 -0.83583,-2.00955 -1.97398,-2.00955 -0.56908,0 -1.35156,0.16006 -2.11625,1.03145 0.81805,-4.05466 1.06702,-4.57038 1.49382,-5.35286 -0.49794,0.3201 -1.28042,0.42681 -2.15181,0.42681 -1.81393,0 -3.98353,-0.46238 -4.80157,-0.46238 -4.39255,0 -6.25983,2.25852 -6.25983,4.62374 0,1.28042 0.67577,1.72501 1.90284,1.72501 -0.0178,-0.16006 -0.24897,-0.30232 -0.24897,-1.20929 z" />
      <path
         id="path867"
         style="font-style:normal;font-variant:normal;font-weight:normal;font-stretch:normal;font-size:17.7836px;font-family:'Lobster Two';-inkscape-font-specification:'Lobster Two, Normal';font-variant-ligatures:normal;font-variant-caps:normal;font-variant-numeric:normal;font-variant-east-asian:normal;fill:#325d88;fill-opacity:1;stroke-width:0.444589"
         d="m 229.46732,191.25784 c 2.13403,-0.12448 4.09023,-1.65387 4.09023,-3.6812 0,-0.88918 -0.37346,-1.70723 -1.9562,-1.70723 -3.64564,0 -4.80157,4.2325 -4.80157,6.25983 0,2.00954 1.10258,2.82759 2.75646,2.82759 1.42269,0 2.70311,-0.60464 3.07656,-2.63197 -0.56907,0.49794 -1.42269,0.94253 -2.09846,0.94253 -0.88918,0 -1.10259,-0.74691 -1.10259,-1.45826 0,-0.19562 0.0178,-0.37345 0.0356,-0.55129 z m 2.72089,-3.71677 c 0,1.45825 -1.20928,2.79202 -2.5964,2.86316 0.37345,-1.67166 1.26263,-3.59229 2.15181,-3.59229 0.33789,0 0.44459,0.28454 0.44459,0.72913 z" />
    </g>
    <path
       inkscape:connector-curvature="0"
       id="path4564"
       d="M 16.915023,161.55143 C 7.5793829,161.55199 -8.3839477e-7,169.13148 1.1646448e-6,178.46723 3.1491377e-6,187.80323 7.5798076,195.38186 16.915805,195.38186 c 9.335999,0 16.914631,-7.57863 16.914635,-16.91463 0,-6.2276 -3.37228,-11.6737 -8.388817,-14.60986 -2.376759,-1.39111 -8.961137,-2.92 -14.992693,2.49891 v 1.02908 c 6.825793,-5.64925 12.15086,-3.97723 14.353482,-2.71539 4.780332,2.73859 7.99973,7.88798 7.99973,13.79726 -2e-6,8.78053 -7.105798,15.8879 -15.886337,15.8879 -8.7805361,0 -15.8875056,-7.10737 -15.8875076,-15.8879 -2e-6,-8.78029 7.1065466,-15.88709 15.8867256,-15.8875 z m 0,6.46179 a 10.453621,10.453621 0 0 0 -10.2954869,8.71134 h 7.6329559 a 3.1845287,3.1845287 0 0 1 2.662923,-1.44242 3.1845287,3.1845287 0 0 1 2.664488,1.44242 h 7.641177 a 10.453621,10.453621 0 0 0 -10.306057,-8.71134 z m -8.1061984,9.45116 v 2.00414 h 5.0878544 a 3.1845287,3.1845287 0 0 1 -0.165967,-1.00207 3.1845287,3.1845287 0 0 1 0.164792,-1.00207 z m 11.1249324,0 a 3.1845287,3.1845287 0 0 1 0.166364,1.00207 3.1845287,3.1845287 0 0 1 -0.164787,1.00207 h 5.08668 v -2.00414 z m -13.3243981,2.74473 a 10.453621,10.453621 0 0 0 10.3056641,8.71097 10.453621,10.453621 0 0 0 10.295879,-8.71097 h -7.632955 a 3.1845287,3.1845287 0 0 1 -2.662532,1.44205 3.1845287,3.1845287 0 0 1 -2.664097,-1.44205 z"
       style="color:#000000;font-style:normal;font-variant:normal;font-weight:normal;font-stretch:normal;font-size:medium;line-height:normal;font-family:sans-serif;font-variant-ligatures:normal;font-variant-position:normal;font-variant-caps:normal;font-variant-numeric:normal;font-variant-alternates:normal;font-feature-settings:normal;text-indent:0;text-align:start;text-decoration:none;text-decoration-line:none;text-decoration-style:solid;text-decoration-color:#000000;letter-spacing:normal;word-spacing:normal;text-transform:none;writing-mode:lr-tb;direction:ltr;text-orientation:mixed;dominant-baseline:auto;baseline-shift:baseline;text-anchor:start;white-space:normal;shape-padding:0;clip-rule:nonzero;display:inline;overflow:visible;visibility:visible;isolation:auto;mix-blend-mode:normal;color-interpolation:sRGB;color-interpolation-filters:linearRGB;solid-color:#000000;solid-opacity:1;vector-effect:none;fill:#325d88;fill-opacity:1;fill-rule:nonzero;stroke:none;stroke-width:1.02779;stroke-linecap:round;stroke-linejoin:round;stroke-miterlimit:4;stroke-dasharray:none;stroke-dashoffset:0;stroke-opacity:1;color-rendering:auto;image-rendering:auto;shape-rendering:auto;text-rendering:auto;enable-background:accumulate" />
    <path
       id="path870"
       style="font-style:normal;font-variant:normal;font-weight:normal;font-stretch:normal;font-size:93.855px;line-height:1.25;font-family:'Lobster Two';-inkscape-font-specification:'Lobster Two';fill:#325d88;fill-opacity:1;stroke:none;stroke-width:0.645454"
       d="m 44.401472,168.26401 -3.511276,16.42037 h 3.717821 l 0.206547,-1.03271 c 1.110181,0.95527 2.168727,1.36835 3.14982,1.36835 3.821095,0 7.151642,-6.42874 7.151642,-12.10872 0,-4.26002 -1.884727,-7.59056 -6.996732,-7.59056 -5.08619,0 -9.5011,3.2789 -9.5011,6.81599 0,1.75565 1.058546,2.40111 2.762546,2.40111 -0.07745,-0.23237 -0.361454,-0.54219 -0.361454,-1.75565 0,-3.92436 3.020732,-6.27381 6.557823,-6.27381 2.685093,0 3.976004,1.34253 3.976004,5.21527 0,4.69892 -1.884727,11.02437 -4.957094,11.02437 -0.490544,0 -0.981093,-0.15486 -1.471637,-0.51636 l 3.098184,-14.48401 z" />
    <path
       id="path872"
       style="font-style:normal;font-variant:normal;font-weight:normal;font-stretch:normal;font-size:93.855px;line-height:1.25;font-family:'Lobster Two';-inkscape-font-specification:'Lobster Two';fill:#325d88;fill-opacity:1;stroke:none;stroke-width:0.645454"
       d="m 64.539629,171.77529 -0.258183,1.21346 c -0.180736,-1.18764 -1.265093,-1.34256 -2.117091,-1.34256 -4.492369,0 -6.635282,5.55092 -6.635282,9.03638 0,3.07236 1.678185,4.15674 3.433824,4.15674 1.83309,0 3.072365,-1.21346 3.846911,-2.40109 0.206545,1.47162 1.136,2.24616 2.530184,2.24616 1.394183,0 3.717821,-0.41309 5.18946,-4.62145 h -1.084364 c -0.387275,1.29092 -1.084364,2.272 -2.091275,2.272 -0.72291,0 -1.058546,-0.23236 -1.058546,-0.95527 0,-0.23236 0.02584,-0.49055 0.103268,-0.82617 l 1.884729,-8.7782 z m -1.574911,1.47162 c 0.800364,0 1.032728,0.67128 1.058546,0.98111 l -1.239273,5.83491 c -0.309818,1.49746 -1.394184,2.272 -2.142913,2.272 -0.464727,0 -1.290911,-0.0258 -1.290911,-2.01381 0,-2.42691 1.420003,-7.07421 3.614551,-7.07421 z" />
    <path
       id="path874"
       style="font-style:normal;font-variant:normal;font-weight:normal;font-stretch:normal;font-size:93.855px;line-height:1.25;font-family:'Lobster Two';-inkscape-font-specification:'Lobster Two';fill:#325d88;fill-opacity:1;stroke:none;stroke-width:0.645454"
       d="m 78.11998,171.25892 c -1.084364,0 -1.600727,0.59382 -1.600727,1.39419 0,0.56799 0.309818,1.31672 0.929455,1.31672 0.206545,0 0.748728,-0.0776 0.826181,-0.25817 0,2.83999 -1.936362,8.62327 -4.466548,8.62327 -0.619636,0 -0.877819,-0.33564 -0.877819,-0.852 0,-0.23237 0.05164,-0.568 0.129085,-0.92944 l 1.858911,-8.7782 h -3.717821 l -1.858912,8.7782 c -0.103268,0.49054 -0.129085,0.95526 -0.129085,1.23927 0,2.03963 1.213455,3.04655 3.17564,3.04655 5.266913,0 7.35819,-7.20329 7.35819,-11.33421 0,-1.136 -0.387275,-2.24618 -1.62655,-2.24618 z" />
    <path
       id="path876"
       style="font-style:normal;font-variant:normal;font-weight:normal;font-stretch:normal;font-size:93.855px;line-height:1.25;font-family:'Lobster Two';-inkscape-font-specification:'Lobster Two';fill:#325d88;fill-opacity:1;stroke:none;stroke-width:0.645454"
       d="m 94.282173,171.49129 c -1.445819,2.50436 -2.840007,3.976 -4.130918,4.1051 -0.05163,-2.63346 -1.135999,-3.9502 -3.304728,-3.9502 -5.318551,0 -7.074189,6.14474 -7.074189,9.11383 0,2.94329 1.729819,4.07929 4.130912,4.07929 3.201459,0 5.809095,-3.04655 6.19637,-7.9262 1.57491,-0.49054 3.020732,-1.65235 4.26,-3.53709 0.284007,4.77636 0.568005,5.57672 0.568005,7.02255 0,1.80728 -0.490549,2.40108 -1.62655,2.40108 -0.981089,0 -1.497452,-0.72289 -1.497452,-1.93636 0.129085,0.25819 0.438906,0.33564 0.697089,0.33564 0.671278,0 1.239274,-0.54217 1.239274,-1.16182 0,-0.74873 -0.46473,-1.08437 -1.342548,-1.08437 -0.903634,0 -1.858909,0.92947 -1.858909,2.45274 0,1.57492 0.516363,3.43383 3.58873,3.43383 1.394181,0 2.917456,-0.46474 3.795278,-1.75565 1.110183,-0.6971 2.375283,-1.62654 3.588723,-3.02073 h -1.08436 c -0.490539,0.38727 -1.136001,0.87783 -1.833091,1.26511 0.05167,-0.28401 0.07747,-0.61965 0.07747,-0.95529 0,-1.70399 -0.258188,-2.71091 -0.568005,-9.39782 z m -9.346194,10.92109 c -0.981091,0 -1.316729,-0.38727 -1.316729,-2.09126 0,-2.53019 1.600728,-7.12583 3.433823,-7.12583 0.645453,0 0.929455,0.36145 0.981091,1.39418 -0.464728,0.18064 -0.800367,0.64547 -0.800367,1.36836 0,0.67128 0.232366,1.05855 0.697093,1.18766 -0.413089,3.02073 -1.729821,5.26689 -2.994911,5.26689 z" />
    <path
       id="path878"
       style="font-style:normal;font-variant:normal;font-weight:normal;font-stretch:normal;font-size:93.855px;line-height:1.25;font-family:'Lobster Two';-inkscape-font-specification:'Lobster Two';fill:#325d88;fill-opacity:1;stroke:none;stroke-width:0.645454"
       d="m 110.05707,171.77529 -4.98291,3.92437 1.93636,-9.08801 -3.82109,0.51635 -3.743637,17.55638 h 3.717817 l 1.34255,-6.37708 c 0.72291,-0.59383 1.31673,-0.95528 1.91055,-0.95528 0.67127,0 0.92946,0.49054 0.92946,1.23926 0,1.08438 -0.46473,2.11711 -0.46473,3.30474 0,1.88473 1.136,2.94329 3.25309,2.94329 1.18764,0 3.27891,-0.43891 4.75055,-4.77638 h -1.08437 c -0.568,1.34255 -1.03273,2.272 -2.16873,2.272 -0.80036,0 -1.0069,-0.43891 -1.0069,-0.95527 0,-1.00691 0.51635,-1.98799 0.51635,-3.09817 0,-1.65238 -0.92945,-3.02073 -2.83999,-3.02073 -0.284,0 -0.568,0.0516 -0.85201,0.1033 l 5.16365,-3.58873 z" />
    <path
       id="path880"
       style="font-style:normal;font-variant:normal;font-weight:normal;font-stretch:normal;font-size:93.855px;line-height:1.25;font-family:'Lobster Two';-inkscape-font-specification:'Lobster Two';fill:#325d88;fill-opacity:1;stroke:none;stroke-width:0.645454"
       d="m 115.55635,171.77529 -1.75565,8.28764 c -0.12908,0.61964 -0.20654,1.18763 -0.20654,1.67819 0,2.16872 1.21345,3.09819 2.76254,3.09819 0.87782,0 2.03964,-0.23237 3.14983,-1.49746 l -0.25818,1.136 c -2.45274,0.72291 -4.46655,1.47164 -4.46655,3.87273 0,1.67818 1.47164,2.78836 3.04655,2.78836 1.704,0 3.92436,-0.69709 4.69891,-4.38909 l 3.14982,-14.97456 h -3.74365 l -1.75563,8.28764 c -0.38727,1.29092 -1.05855,2.272 -2.06545,2.272 -0.59383,0 -0.77455,-0.54217 -0.77455,-1.136 0,-0.20654 0.0258,-0.43891 0.0775,-0.64544 l 1.85891,-8.7782 z m 0.64545,16.21383 c 0,-1.39419 1.23927,-2.14292 2.86582,-2.68509 l -0.30982,1.52327 c -0.33564,1.52328 -1.00691,2.01382 -1.52328,2.01382 -0.56799,0 -1.03272,-0.49054 -1.03272,-0.852 z" />
    <path
       style="color:#000000;font-size:1.22231px;font-family:Dunkin;-inkscape-font-specification:'Lobster Two, Normal';fill:#325d88;fill-opacity:1;stroke-width:0.398939;-inkscape-stroke:none"
       d="m 96.794885,193.18434 c -0.01132,0.0477 -0.01596,0.0906 -0.01596,0.12927 0,0.18138 0.108805,0.29018 0.317378,0.29018 0.480594,0 0.621146,-0.501 0.621146,-0.76624 0,-0.28792 -0.108814,-0.39219 -0.267503,-0.39219 -0.04537,0 -0.09294,0.0111 -0.18589,0.0681 l 0.108814,-0.51007 -0.335515,0.0453 z m 0.693695,-0.35591 c 0,0.23802 -0.117887,0.55539 -0.265239,0.55539 -0.08164,0 -0.120142,-0.0386 -0.120142,-0.10423 0,-0.0167 0.0019,-0.034 0.0065,-0.0521 l 0.124688,-0.57579 c 0.02496,-0.0295 0.102004,-0.0408 0.133751,-0.0408 0.08164,0 0.120151,0.10645 0.120151,0.21762 z"
       id="path13069" />
    <path
       style="color:#000000;font-size:1.22231px;font-family:Dunkin;-inkscape-font-specification:'Lobster Two, Normal';fill:#325d88;fill-opacity:1;stroke-width:0.398939;-inkscape-stroke:none"
       d="m 97.955574,192.45665 -0.154162,0.72769 c -0.01132,0.0544 -0.01818,0.10423 -0.01818,0.14745 0,0.19041 0.10655,0.27204 0.242565,0.27204 0.07709,0 0.17909,-0.0204 0.276576,-0.1315 l -0.02264,0.0998 c -0.215364,0.0634 -0.39219,0.12927 -0.39219,0.34005 0,0.14744 0.129215,0.24483 0.267503,0.24483 0.149616,0 0.344579,-0.0612 0.412591,-0.38538 l 0.276567,-1.31484 h -0.328705 l -0.154162,0.72769 c -0.03396,0.11332 -0.09294,0.19948 -0.181354,0.19948 -0.05214,0 -0.068,-0.0477 -0.068,-0.0998 0,-0.0186 0.0019,-0.0386 0.0065,-0.0568 l 0.163234,-0.77076 z m 0.05668,1.42365 c 0,-0.1224 0.108814,-0.18815 0.251639,-0.23576 l -0.02718,0.13372 c -0.0295,0.13372 -0.08841,0.17675 -0.13376,0.17675 -0.04982,0 -0.09064,-0.043 -0.09064,-0.0748 z"
       id="path13071" />
    <path
       style="color:#000000;font-size:1.22231px;font-family:Dunkin;-inkscape-font-specification:'Lobster Two, Normal';fill:#325d88;fill-opacity:1;stroke-width:0.398939;-inkscape-stroke:none"
       d="m 99.98451,192.14832 -0.308304,1.4418 h 0.326444 l 0.0182,-0.0907 c 0.0975,0.0839 0.19043,0.12018 0.27658,0.12018 0.3355,0 0.62794,-0.56446 0.62794,-1.0632 0,-0.37406 -0.16549,-0.6665 -0.61434,-0.6665 -0.446595,0 -0.834249,0.28791 -0.834249,0.59849 0,0.15412 0.09295,0.21083 0.242566,0.21083 -0.0065,-0.0204 -0.03173,-0.0477 -0.03173,-0.15411 0,-0.34458 0.265239,-0.55088 0.575813,-0.55088 0.23577,0 0.34912,0.11796 0.34912,0.45792 0,0.41259 -0.1655,0.96801 -0.43526,0.96801 -0.043,0 -0.0862,-0.013 -0.12922,-0.0455 l 0.27204,-1.27177 z"
       id="path13073" />
    <path
       style="color:#000000;font-size:1.22231px;font-family:Dunkin;-inkscape-font-specification:'Lobster Two, Normal';fill:#325d88;fill-opacity:1;stroke-width:0.398939;-inkscape-stroke:none"
       d="m 101.75275,192.45665 -0.0226,0.10645 c -0.016,-0.10423 -0.11108,-0.11796 -0.1859,-0.11796 -0.39446,0 -0.58261,0.48739 -0.58261,0.79345 0,0.26976 0.14735,0.36498 0.3015,0.36498 0.16096,0 0.26978,-0.10665 0.33778,-0.21084 0.0182,0.12927 0.0998,0.19723 0.22217,0.19723 0.1224,0 0.32645,-0.0364 0.45566,-0.40579 h -0.0952 c -0.034,0.11332 -0.0952,0.19949 -0.18363,0.19949 -0.0635,0 -0.0929,-0.0204 -0.0929,-0.0839 0,-0.0204 0.002,-0.043 0.009,-0.0726 l 0.16549,-0.77076 z m -0.13828,0.12927 c 0.0702,0 0.0906,0.059 0.093,0.0861 l -0.10881,0.51233 c -0.0272,0.1315 -0.12241,0.19948 -0.18816,0.19948 -0.0408,0 -0.11336,-0.002 -0.11336,-0.17674 0,-0.21308 0.12469,-0.62115 0.31738,-0.62115 z"
       id="path13075" />
    <path
       style="color:#000000;font-size:1.22231px;font-family:Dunkin;-inkscape-font-specification:'Lobster Two, Normal';fill:#325d88;fill-opacity:1;stroke-width:0.398939;-inkscape-stroke:none"
       d="m 102.94518,192.4113 c -0.0952,0 -0.14055,0.0521 -0.14055,0.1224 0,0.0499 0.0272,0.11555 0.0816,0.11555 0.0182,0 0.0658,-0.007 0.0726,-0.0226 0,0.24937 -0.17002,0.75716 -0.39219,0.75716 -0.0545,0 -0.0771,-0.0295 -0.0771,-0.0748 0,-0.0204 0.005,-0.0499 0.0113,-0.0816 l 0.16323,-0.77076 h -0.32645 l -0.16323,0.77076 c -0.009,0.043 -0.0113,0.0839 -0.0113,0.10887 0,0.17916 0.10655,0.26751 0.27884,0.26751 0.46246,0 0.64608,-0.63249 0.64608,-0.99521 0,-0.0998 -0.0339,-0.19722 -0.1428,-0.19722 z"
       id="path13077" />
    <path
       style="color:#000000;font-size:1.22231px;font-family:Dunkin;-inkscape-font-specification:'Lobster Two, Normal';fill:#325d88;fill-opacity:1;stroke-width:0.398939;-inkscape-stroke:none"
       d="m 103.71141,192.44531 c -0.46699,0 -0.62115,0.53954 -0.62115,0.80023 0,0.25845 0.15188,0.35819 0.36272,0.35819 0.28564,0 0.51914,-0.27656 0.54407,-0.71636 0.11788,-0.0681 0.18363,-0.2063 0.22897,-0.30151 h -0.0726 c -0.0226,0.0408 -0.0793,0.13594 -0.15415,0.15634 -0.016,-0.19722 -0.11108,-0.29697 -0.28792,-0.29697 z m -0.16775,0.94532 c -0.0862,0 -0.11562,-0.0339 -0.11562,-0.1836 0,-0.22216 0.14055,-0.62568 0.30151,-0.62568 0.0567,0 0.0793,0.0317 0.0862,0.12018 -0.0408,0.0167 -0.0702,0.0568 -0.0702,0.12019 0,0.059 0.0204,0.0929 0.0612,0.10423 -0.0363,0.26523 -0.1519,0.46472 -0.26297,0.46472 z"
       id="path13079" />
    <path
       style="color:#000000;font-size:1.22231px;font-family:Dunkin;-inkscape-font-specification:'Lobster Two, Normal';fill:#325d88;fill-opacity:1;stroke-width:0.398939;-inkscape-stroke:none"
       d="m 105.30283,192.14832 -0.30831,1.4418 h 0.32645 l 0.0182,-0.0907 c 0.0975,0.0839 0.19043,0.12018 0.27657,0.12018 0.33551,0 0.62795,-0.56446 0.62795,-1.0632 0,-0.37406 -0.16549,-0.6665 -0.61435,-0.6665 -0.44659,0 -0.83425,0.28791 -0.83425,0.59849 0,0.15412 0.0929,0.21083 0.24257,0.21083 -0.007,-0.0204 -0.0317,-0.0477 -0.0317,-0.15411 0,-0.34458 0.26523,-0.55088 0.57581,-0.55088 0.23576,0 0.34911,0.11796 0.34911,0.45792 0,0.41259 -0.16549,0.96801 -0.43525,0.96801 -0.0431,0 -0.0862,-0.013 -0.12922,-0.0455 l 0.27203,-1.27177 z"
       id="path13081" />
    <path
       style="color:#000000;font-size:1.22231px;font-family:Dunkin;-inkscape-font-specification:'Lobster Two, Normal';fill:#325d88;fill-opacity:1;stroke-width:0.398939;-inkscape-stroke:none"
       d="m 107.07106,192.45665 -0.0226,0.10645 c -0.016,-0.10423 -0.11108,-0.11796 -0.18589,-0.11796 -0.39446,0 -0.58261,0.48739 -0.58261,0.79345 0,0.26976 0.14735,0.36498 0.3015,0.36498 0.16095,0 0.26977,-0.10665 0.33778,-0.21084 0.0182,0.12927 0.0997,0.19723 0.22217,0.19723 0.1224,0 0.32644,-0.0364 0.45565,-0.40579 h -0.0952 c -0.034,0.11332 -0.0952,0.19949 -0.18363,0.19949 -0.0635,0 -0.093,-0.0204 -0.093,-0.0839 0,-0.0204 0.002,-0.043 0.009,-0.0726 l 0.1655,-0.77076 z m -0.13827,0.12927 c 0.0702,0 0.0906,0.059 0.0929,0.0861 l -0.10882,0.51233 c -0.0272,0.1315 -0.12242,0.19948 -0.18815,0.19948 -0.0408,0 -0.11336,-0.002 -0.11336,-0.17674 0,-0.21308 0.12469,-0.62115 0.31738,-0.62115 z"
       id="path13083" />
    <path
       style="color:#000000;font-size:1.22231px;font-family:Dunkin;-inkscape-font-specification:'Lobster Two, Normal';fill:#325d88;fill-opacity:1;stroke-width:0.398939;-inkscape-stroke:none"
       d="m 108.26349,192.4113 c -0.0952,0 -0.14054,0.0521 -0.14054,0.1224 0,0.0499 0.0272,0.11555 0.0816,0.11555 0.0182,0 0.0658,-0.007 0.0726,-0.0226 0,0.24937 -0.17002,0.75716 -0.39219,0.75716 -0.0544,0 -0.0771,-0.0295 -0.0771,-0.0748 0,-0.0204 0.005,-0.0499 0.0113,-0.0816 l 0.16324,-0.77076 h -0.32646 l -0.16322,0.77076 c -0.009,0.043 -0.0113,0.0839 -0.0113,0.10887 0,0.17916 0.10656,0.26751 0.27884,0.26751 0.46247,0 0.64609,-0.63249 0.64609,-0.99521 0,-0.0998 -0.034,-0.19722 -0.14281,-0.19722 z"
       id="path13085" />
    <path
       style="color:#000000;font-size:1.22231px;font-family:Dunkin;-inkscape-font-specification:'Lobster Two, Normal';fill:#325d88;fill-opacity:1;stroke-width:0.398939;-inkscape-stroke:none"
       d="m 109.68262,192.4317 c -0.12695,0.21991 -0.24937,0.34912 -0.36272,0.36045 -0.005,-0.23124 -0.0997,-0.34684 -0.29017,-0.34684 -0.467,0 -0.62115,0.53954 -0.62115,0.80023 0,0.25845 0.1519,0.35819 0.36272,0.35819 0.2811,0 0.51006,-0.26751 0.54407,-0.69595 0.13828,-0.043 0.26523,-0.14505 0.37405,-0.31059 0.025,0.4194 0.0499,0.48967 0.0499,0.61662 0,0.15876 -0.043,0.21082 -0.14281,0.21082 -0.0862,0 -0.13147,-0.0635 -0.13147,-0.17008 0.0113,0.0226 0.0385,0.0295 0.0612,0.0295 0.0589,0 0.10881,-0.0477 0.10881,-0.102 0,-0.0657 -0.0408,-0.0951 -0.11789,-0.0951 -0.0793,0 -0.16322,0.0816 -0.16322,0.21537 0,0.13836 0.0454,0.30151 0.31511,0.30151 0.12241,0 0.25617,-0.0408 0.33324,-0.15412 0.0975,-0.0612 0.20857,-0.14281 0.31511,-0.26523 h -0.0952 c -0.043,0.034 -0.0998,0.0772 -0.16096,0.11109 0.005,-0.0249 0.007,-0.0544 0.007,-0.0839 0,-0.14967 -0.0226,-0.23802 -0.0499,-0.82517 z m -0.82065,0.95893 c -0.0862,0 -0.11561,-0.0339 -0.11561,-0.1836 0,-0.22216 0.14054,-0.62568 0.3015,-0.62568 0.0567,0 0.0816,0.0317 0.0862,0.12241 -0.0408,0.0167 -0.0702,0.0568 -0.0702,0.12019 0,0.059 0.0204,0.0929 0.0612,0.10423 -0.0363,0.26523 -0.1519,0.46245 -0.26298,0.46245 z"
       id="path13087" />
    <path
       style="color:#000000;font-size:1.22231px;font-family:Dunkin;-inkscape-font-specification:'Lobster Two, Normal';fill:#325d88;fill-opacity:1;stroke-width:0.398939;-inkscape-stroke:none"
       d="m 111.06774,192.45665 -0.43752,0.34457 0.17001,-0.79797 -0.3355,0.0453 -0.32872,1.54154 h 0.32644 l 0.11789,-0.55995 c 0.0635,-0.0521 0.11561,-0.0839 0.16775,-0.0839 0.0589,0 0.0816,0.043 0.0816,0.10887 0,0.0951 -0.0408,0.18589 -0.0408,0.29016 0,0.16543 0.0997,0.25844 0.28564,0.25844 0.10429,0 0.28791,-0.0386 0.41712,-0.41939 h -0.0952 c -0.0499,0.11795 -0.0906,0.19948 -0.19043,0.19948 -0.0702,0 -0.0884,-0.0386 -0.0884,-0.0839 0,-0.0885 0.0454,-0.17453 0.0454,-0.27204 0,-0.14504 -0.0816,-0.26524 -0.24937,-0.26524 -0.025,0 -0.0499,0.004 -0.0748,0.009 l 0.4534,-0.3151 z"
       id="path13089" />
    <path
       style="color:#000000;font-size:1.22231px;font-family:Dunkin;-inkscape-font-specification:'Lobster Two, Normal';fill:#325d88;fill-opacity:1;stroke-width:0.398939;-inkscape-stroke:none"
       d="m 111.55061,192.45665 -0.15416,0.72769 c -0.0113,0.0544 -0.0182,0.10423 -0.0182,0.14745 0,0.19041 0.10655,0.27204 0.24256,0.27204 0.0771,0 0.17908,-0.0204 0.27657,-0.1315 l -0.0226,0.0998 c -0.21536,0.0634 -0.39219,0.12927 -0.39219,0.34005 0,0.14744 0.12922,0.24483 0.26751,0.24483 0.14962,0 0.34458,-0.0612 0.41259,-0.38538 l 0.27657,-1.31484 h -0.32871 l -0.15416,0.72769 c -0.0341,0.11332 -0.0929,0.19948 -0.18137,0.19948 -0.0521,0 -0.068,-0.0477 -0.068,-0.0998 0,-0.0186 0.002,-0.0386 0.006,-0.0568 l 0.16323,-0.77076 z m 0.0567,1.42365 c 0,-0.1224 0.10881,-0.18815 0.25163,-0.23576 l -0.0272,0.13372 c -0.0295,0.13372 -0.0884,0.17675 -0.13376,0.17675 -0.0499,0 -0.0906,-0.043 -0.0906,-0.0748 z"
       id="path13091" />
    <path
       id="path883"
       style="font-style:normal;font-variant:normal;font-weight:normal;font-stretch:normal;font-size:28.1463px;line-height:1.25;font-family:'Lobster Two';-inkscape-font-specification:'Lobster Two, Normal';font-variant-ligatures:normal;font-variant-caps:normal;font-variant-numeric:normal;font-variant-east-asian:normal;fill:#325d88;fill-opacity:1;stroke:none;stroke-width:0.193566"
       d="m 83.214882,188.43556 c 0.09292,0.062 0.224536,0.0929 0.309705,0.0929 0.224537,0 0.410363,-0.27099 0.410363,-0.65038 0,-0.33293 -0.170332,-0.68135 -0.859435,-0.68135 -1.57176,0 -2.082776,1.84274 -2.082776,2.72542 0,0.87492 0.480046,1.23106 1.207854,1.23106 1.029774,0 1.6879,-0.72005 2.129232,-1.43237 h -0.263251 c -0.387132,0.44132 -0.758779,0.78201 -1.37045,0.78201 -0.371647,0 -0.588441,-0.13169 -0.588441,-0.65814 0,-0.84394 0.487789,-2.23763 1.022029,-2.23763 0.147112,0 0.216796,0.10831 0.216796,0.28648 0,0.13169 -0.05419,0.37165 -0.131626,0.542 z" />
    <path
       id="path885"
       style="font-style:normal;font-variant:normal;font-weight:normal;font-stretch:normal;font-size:28.1463px;line-height:1.25;font-family:'Lobster Two';-inkscape-font-specification:'Lobster Two, Normal';font-variant-ligatures:normal;font-variant-caps:normal;font-variant-numeric:normal;font-variant-east-asian:normal;fill:#325d88;fill-opacity:1;stroke:none;stroke-width:0.193566"
       d="m 86.079657,187.19674 c -1.594989,0 -2.121489,1.84274 -2.121489,2.73314 0,0.88267 0.518757,1.22334 1.238826,1.22334 0.952347,0 1.734353,-0.90589 1.858236,-2.34602 0.557473,-0.0929 1.068486,-0.3252 1.362709,-0.64264 l -0.06968,-0.20904 c -0.332935,0.23228 -0.836208,0.46455 -1.192369,0.46455 -0.02322,0 -0.05419,0 -0.08517,-0.007 -0.0078,-0.80523 -0.332935,-1.2156 -0.991058,-1.2156 z m -0.572959,3.22867 c -0.29422,0 -0.394874,-0.1161 -0.394874,-0.62715 0,-0.75878 0.480045,-2.13697 1.029773,-2.13697 0.193568,0 0.278736,0.1161 0.294221,0.43358 -0.13936,0.0542 -0.240024,0.19358 -0.240024,0.41037 0,0.15487 0.04646,0.28647 0.209053,0.3252 -0.116139,0.91362 -0.518758,1.59497 -0.898149,1.59497 z" />
    <path
       id="path887"
       style="font-style:normal;font-variant:normal;font-weight:normal;font-stretch:normal;font-size:28.1463px;line-height:1.25;font-family:'Lobster Two';-inkscape-font-specification:'Lobster Two, Normal';font-variant-ligatures:normal;font-variant-caps:normal;font-variant-numeric:normal;font-variant-east-asian:normal;fill:#325d88;fill-opacity:1;stroke:none;stroke-width:0.193566"
       d="m 89.69547,188.30393 c 0,0.49553 -0.348422,1.44787 -0.348422,1.97437 0,0.44134 0.240026,0.87492 0.913636,0.87492 0.410361,0 1.006543,-0.16265 1.440135,-1.43238 h -0.325195 c -0.170332,0.40261 -0.309704,0.68135 -0.650382,0.68135 -0.232277,0 -0.309706,-0.13168 -0.309706,-0.32519 0,-0.43359 0.371646,-1.37045 0.371646,-1.99761 0,-0.6194 -0.363902,-0.87492 -0.859432,-0.87492 -0.240023,0 -0.580702,0.062 -0.905891,0.43358 l 0.08517,-0.40261 h -1.114944 l -0.820721,3.87132 h 1.114942 l 0.526503,-2.48539 c 0.116138,-0.38713 0.325189,-0.71231 0.603925,-0.71231 0.185824,0 0.278736,0.13928 0.278736,0.39487 z" />
    <path
       id="path889"
       style="font-style:normal;font-variant:normal;font-weight:normal;font-stretch:normal;font-size:28.1463px;line-height:1.25;font-family:'Lobster Two';-inkscape-font-specification:'Lobster Two, Normal';font-variant-ligatures:normal;font-variant-caps:normal;font-variant-numeric:normal;font-variant-east-asian:normal;fill:#325d88;fill-opacity:1;stroke:none;stroke-width:0.193566"
       d="m 93.605511,188.30393 c 0,0.49553 -0.348429,1.44787 -0.348429,1.97437 0,0.44134 0.240023,0.87492 0.913642,0.87492 0.410355,0 1.006536,-0.16265 1.440131,-1.43238 h -0.325199 c -0.170332,0.40261 -0.309705,0.68135 -0.650378,0.68135 -0.232277,0 -0.309706,-0.13168 -0.309706,-0.32519 0,-0.43359 0.37165,-1.37045 0.37165,-1.99761 0,-0.6194 -0.363903,-0.87492 -0.859434,-0.87492 -0.240024,0 -0.580706,0.062 -0.905896,0.43358 l 0.08517,-0.40261 H 91.90212 l -0.820721,3.87132 h 1.114942 l 0.526502,-2.48539 c 0.116141,-0.38713 0.325187,-0.71231 0.603925,-0.71231 0.185825,0 0.278738,0.13928 0.278738,0.39487 z" />
    <path
       id="path891"
       style="font-style:normal;font-variant:normal;font-weight:normal;font-stretch:normal;font-size:28.1463px;line-height:1.25;font-family:'Lobster Two';-inkscape-font-specification:'Lobster Two, Normal';font-variant-ligatures:normal;font-variant-caps:normal;font-variant-numeric:normal;font-variant-east-asian:normal;fill:#325d88;fill-opacity:1;stroke:none;stroke-width:0.193566"
       d="m 96.330916,189.85247 c 0,-0.0929 0.0074,-0.20133 0.01559,-0.30971 0.929117,-0.0542 1.780805,-0.72781 1.780805,-1.60273 0,-0.38715 -0.162595,-0.74329 -0.851688,-0.74329 -1.587242,0 -2.09052,1.84274 -2.09052,2.72541 0,0.87492 0.480047,1.23107 1.207855,1.23107 1.029776,0 1.687901,-0.72006 2.129234,-1.43238 h -0.263245 c -0.387144,0.44132 -0.758785,0.78201 -1.370459,0.78201 -0.371641,0 -0.557466,-0.12389 -0.557466,-0.65038 z m 1.200108,-1.92793 c 0,0.62716 -0.518761,1.20786 -1.122688,1.24656 0.162604,-0.75878 0.541991,-1.56402 0.929125,-1.56402 0.147111,0 0.193563,0.12389 0.193563,0.31746 z" />
    <path
       id="path893"
       style="font-style:normal;font-variant:normal;font-weight:normal;font-stretch:normal;font-size:28.1463px;line-height:1.25;font-family:'Lobster Two';-inkscape-font-specification:'Lobster Two, Normal';font-variant-ligatures:normal;font-variant-caps:normal;font-variant-numeric:normal;font-variant-east-asian:normal;fill:#325d88;fill-opacity:1;stroke:none;stroke-width:0.193566"
       d="m 100.38031,188.43556 c 0.0929,0.062 0.22454,0.0929 0.30971,0.0929 0.22453,0 0.41036,-0.27099 0.41036,-0.65038 0,-0.33293 -0.17033,-0.68135 -0.85943,-0.68135 -1.571763,0 -2.082778,1.84274 -2.082778,2.72542 0,0.87492 0.480038,1.23106 1.207855,1.23106 1.029773,0 1.687903,-0.72005 2.129223,-1.43237 h -0.26324 c -0.38714,0.44132 -0.75879,0.78201 -1.370452,0.78201 -0.371651,0 -0.588444,-0.13169 -0.588444,-0.65814 0,-0.84394 0.487784,-2.23763 1.022026,-2.23763 0.14711,0 0.2168,0.10831 0.2168,0.28648 0,0.13169 -0.0542,0.37165 -0.13163,0.542 z" />
    <path
       id="path895"
       style="font-style:normal;font-variant:normal;font-weight:normal;font-stretch:normal;font-size:28.1463px;line-height:1.25;font-family:'Lobster Two';-inkscape-font-specification:'Lobster Two, Normal';font-variant-ligatures:normal;font-variant-caps:normal;font-variant-numeric:normal;font-variant-east-asian:normal;fill:#325d88;fill-opacity:1;stroke:none;stroke-width:0.193566"
       d="m 101.99078,186.16695 -0.23228,1.06849 h -0.25551 l -0.062,0.30972 h 0.2555 l -0.46455,2.17568 c -0.0387,0.18583 -0.062,0.35616 -0.062,0.50327 0,0.65037 0.36391,0.92911 0.82846,0.92911 0.41811,0 1.18464,-0.17026 1.62596,-1.43238 h -0.32519 c -0.11614,0.38713 -0.39487,0.68135 -0.69684,0.68135 -0.21679,0 -0.31744,-0.0698 -0.31744,-0.28649 0,-0.0698 0.007,-0.14707 0.031,-0.24777 l 0.49554,-2.32277 h 0.46456 l 0.062,-0.30972 h -0.46456 l 0.26325,-1.22334 z" />
    <path
       id="path897"
       style="font-style:normal;font-variant:normal;font-weight:normal;font-stretch:normal;font-size:28.1463px;line-height:1.25;font-family:'Lobster Two';-inkscape-font-specification:'Lobster Two, Normal';font-variant-ligatures:normal;font-variant-caps:normal;font-variant-numeric:normal;font-variant-east-asian:normal;fill:#325d88;fill-opacity:1;stroke:none;stroke-width:0.193566"
       d="m 103.98062,186.20567 c 0,0.34067 0.271,0.61168 0.61168,0.61168 0.34067,0 0.61941,-0.27101 0.61941,-0.61168 0,-0.34068 -0.27874,-0.61942 -0.61941,-0.61942 -0.34068,0 -0.61168,0.27874 -0.61168,0.61942 z m -0.15484,1.02977 -0.5265,2.4854 c -0.0387,0.18583 -0.062,0.35616 -0.062,0.50327 0,0.65037 0.36391,0.92911 0.82847,0.92911 0.4181,0 1.18463,-0.17026 1.62596,-1.43238 h -0.3252 c -0.11613,0.38713 -0.39487,0.68135 -0.69683,0.68135 -0.21679,0 -0.31745,-0.0698 -0.31745,-0.28649 0,-0.0698 0.007,-0.14707 0.031,-0.24777 l 0.55748,-2.63249 z" />
    <path
       id="path899"
       style="font-style:normal;font-variant:normal;font-weight:normal;font-stretch:normal;font-size:28.1463px;line-height:1.25;font-family:'Lobster Two';-inkscape-font-specification:'Lobster Two, Normal';font-variant-ligatures:normal;font-variant-caps:normal;font-variant-numeric:normal;font-variant-east-asian:normal;fill:#325d88;fill-opacity:1;stroke:none;stroke-width:0.193566"
       d="m 107.37964,187.19674 c -1.59499,0 -2.12149,1.84274 -2.12149,2.73314 0,0.88267 0.51876,1.22334 1.23882,1.22334 0.95235,0 1.73437,-0.90589 1.85825,-2.34602 0.55746,-0.0929 1.06848,-0.3252 1.3627,-0.64264 l -0.0697,-0.20904 c -0.33294,0.23228 -0.83621,0.46455 -1.19237,0.46455 -0.0232,0 -0.0542,0 -0.0852,-0.007 -0.007,-0.80523 -0.33294,-1.2156 -0.99106,-1.2156 z m -0.57296,3.22867 c -0.29422,0 -0.39487,-0.1161 -0.39487,-0.62715 0,-0.75878 0.48004,-2.13697 1.02977,-2.13697 0.19357,0 0.27874,0.1161 0.29422,0.43358 -0.13936,0.0542 -0.24002,0.19358 -0.24002,0.41037 0,0.15487 0.0465,0.28647 0.20905,0.3252 -0.11614,0.91362 -0.51875,1.59497 -0.89815,1.59497 z" />
    <path
       id="path901"
       style="font-style:normal;font-variant:normal;font-weight:normal;font-stretch:normal;font-size:28.1463px;line-height:1.25;font-family:'Lobster Two';-inkscape-font-specification:'Lobster Two, Normal';font-variant-ligatures:normal;font-variant-caps:normal;font-variant-numeric:normal;font-variant-east-asian:normal;fill:#325d88;fill-opacity:1;stroke:none;stroke-width:0.193566"
       d="m 110.99546,188.30393 c 0,0.49553 -0.34842,1.44787 -0.34842,1.97437 0,0.44134 0.18582,0.87492 0.782,0.87492 0.41036,0 0.78202,-0.24001 0.85169,-0.79748 -0.0465,0.031 -0.12389,0.0464 -0.25551,0.0464 -0.23228,0 -0.3097,-0.13167 -0.3097,-0.32519 0,-0.43358 0.37165,-1.37045 0.37165,-1.9976 0,-0.61941 -0.36391,-0.87492 -0.85944,-0.87492 -0.24002,0 -0.58069,0.062 -0.90588,0.43357 l 0.0852,-0.4026 h -1.11495 l -0.82072,3.87132 h 1.11494 l 0.52651,-2.48541 c 0.11613,-0.38714 0.32519,-0.71232 0.60393,-0.71232 0.18581,0 0.27873,0.13928 0.27873,0.39487 z" />
    <g
       style="font-style:normal;font-weight:normal;font-size:17.7836px;line-height:1.25;font-family:sans-serif;fill:#325d88;fill-opacity:1;stroke:none;stroke-width:0.444589"
       id="g1054"
       aria-label="The"
       transform="matrix(0.27508611,0,0,0.27508611,-1.7172793,115.39858)">
      <path
         id="path1050"
         style="font-style:normal;font-variant:normal;font-weight:normal;font-stretch:normal;font-size:17.7836px;font-family:'Lobster Two';-inkscape-font-specification:'Lobster Two, Normal';font-variant-ligatures:normal;font-variant-caps:normal;font-variant-numeric:normal;font-variant-east-asian:normal;fill:#325d88;fill-opacity:1;stroke-width:0.444589"
         d="m 211.54146,186.66967 c 0,-2.79202 1.58274,-3.55672 3.57451,-3.62785 l -2.54306,11.80831 h 2.56084 l 2.50749,-11.64826 c 0.81804,0.1067 1.61831,0.24897 2.34743,0.30232 l -2.43635,11.34594 h 2.56084 c 0.4268,-2.36522 0.78248,-4.26807 1.0848,-5.81524 0.26675,-0.83583 0.72912,-1.52939 1.35155,-1.52939 0.42681,0 0.64021,0.32011 0.64021,0.90697 0,1.13815 -0.80026,3.32553 -0.80026,4.53481 0,1.01367 0.55129,2.00955 2.09846,2.00955 0.94253,0 2.31187,-0.37346 3.30775,-3.28997 h -0.74691 c -0.39124,0.92475 -0.71134,1.56496 -1.49382,1.56496 -0.53351,0 -0.71134,-0.30232 -0.71134,-0.74691 0,-0.99588 0.85361,-3.1477 0.85361,-4.58817 0,-1.42269 -0.83583,-2.00955 -1.97398,-2.00955 -0.56908,0 -1.35156,0.16006 -2.11625,1.03145 0.81805,-4.05466 1.06702,-4.57038 1.49382,-5.35286 -0.49794,0.3201 -1.28042,0.42681 -2.15181,0.42681 -1.81393,0 -3.98353,-0.46238 -4.80157,-0.46238 -4.39255,0 -6.25983,2.25852 -6.25983,4.62374 0,1.28042 0.67577,1.72501 1.90284,1.72501 -0.0178,-0.16006 -0.24897,-0.30232 -0.24897,-1.20929 z" />
      <path
         id="path1052"
         style="font-style:normal;font-variant:normal;font-weight:normal;font-stretch:normal;font-size:17.7836px;font-family:'Lobster Two';-inkscape-font-specification:'Lobster Two, Normal';font-variant-ligatures:normal;font-variant-caps:normal;font-variant-numeric:normal;font-variant-east-asian:normal;fill:#325d88;fill-opacity:1;stroke-width:0.444589"
         d="m 229.46732,191.25784 c 2.13403,-0.12448 4.09023,-1.65387 4.09023,-3.6812 0,-0.88918 -0.37346,-1.70723 -1.9562,-1.70723 -3.64564,0 -4.80157,4.2325 -4.80157,6.25983 0,2.00954 1.10258,2.82759 2.75646,2.82759 1.42269,0 2.70311,-0.60464 3.07656,-2.63197 -0.56907,0.49794 -1.42269,0.94253 -2.09846,0.94253 -0.88918,0 -1.10259,-0.74691 -1.10259,-1.45826 0,-0.19562 0.0178,-0.37345 0.0356,-0.55129 z m 2.72089,-3.71677 c 0,1.45825 -1.20928,2.79202 -2.5964,2.86316 0.37345,-1.67166 1.26263,-3.59229 2.15181,-3.59229 0.33789,0 0.44459,0.28454 0.44459,0.72913 z" />
    </g>
    <path
       inkscape:connector-curvature="0"
       id="path1056"
       d="M 16.915023,161.55143 C 7.5793829,161.55199 -8.3839477e-7,169.13148 1.1646448e-6,178.46723 3.1491377e-6,187.80323 7.5798076,195.38186 16.915805,195.38186 c 9.335999,0 16.914631,-7.57863 16.914635,-16.91463 0,-6.2276 -3.37228,-11.6737 -8.388817,-14.60986 -2.376759,-1.39111 -8.961137,-2.92 -14.992693,2.49891 v 1.02908 c 6.825793,-5.64925 12.15086,-3.97723 14.353482,-2.71539 4.780332,2.73859 7.99973,7.88798 7.99973,13.79726 -2e-6,8.78053 -7.105798,15.8879 -15.886337,15.8879 -8.7805361,0 -15.8875056,-7.10737 -15.8875076,-15.8879 -2e-6,-8.78029 7.1065466,-15.88709 15.8867256,-15.8875 z m 0,6.46179 a 10.453621,10.453621 0 0 0 -10.2954869,8.71134 h 7.6329559 a 3.1845287,3.1845287 0 0 1 2.662923,-1.44242 3.1845287,3.1845287 0 0 1 2.664488,1.44242 h 7.641177 a 10.453621,10.453621 0 0 0 -10.306057,-8.71134 z m -8.1061984,9.45116 v 2.00414 h 5.0878544 a 3.1845287,3.1845287 0 0 1 -0.165967,-1.00207 3.1845287,3.1845287 0 0 1 0.164792,-1.00207 z m 11.1249324,0 a 3.1845287,3.1845287 0 0 1 0.166364,1.00207 3.1845287,3.1845287 0 0 1 -0.164787,1.00207 h 5.08668 v -2.00414 z m -13.3243981,2.74473 a 10.453621,10.453621 0 0 0 10.3056641,8.71097 10.453621,10.453621 0 0 0 10.295879,-8.71097 h -7.632955 a 3.1845287,3.1845287 0 0 1 -2.662532,1.44205 3.1845287,3.1845287 0 0 1 -2.664097,-1.44205 z"
       style="color:#000000;font-style:normal;font-variant:normal;font-weight:normal;font-stretch:normal;font-size:medium;line-height:normal;font-family:sans-serif;font-variant-ligatures:normal;font-variant-position:normal;font-variant-caps:normal;font-variant-numeric:normal;font-variant-alternates:normal;font-feature-settings:normal;text-indent:0;text-align:start;text-decoration:none;text-decoration-line:none;text-decoration-style:solid;text-decoration-color:#000000;letter-spacing:normal;word-spacing:normal;text-transform:none;writing-mode:lr-tb;direction:ltr;text-orientation:mixed;dominant-baseline:auto;baseline-shift:baseline;text-anchor:start;white-space:normal;shape-padding:0;clip-rule:nonzero;display:inline;overflow:visible;visibility:visible;isolation:auto;mix-blend-mode:normal;color-interpolation:sRGB;color-interpolation-filters:linearRGB;solid-color:#000000;solid-opacity:1;vector-effect:none;fill:#325d88;fill-opacity:1;fill-rule:nonzero;stroke:none;stroke-width:1.02779;stroke-linecap:round;stroke-linejoin:round;stroke-miterlimit:4;stroke-dasharray:none;stroke-dashoffset:0;stroke-opacity:1;color-rendering:auto;image-rendering:auto;shape-rendering:auto;text-rendering:auto;enable-background:accumulate" />
    <path
       id="path1058"
       style="font-style:normal;font-variant:normal;font-weight:normal;font-stretch:normal;font-size:93.855px;line-height:1.25;font-family:'Lobster Two';-inkscape-font-specification:'Lobster Two';fill:#325d88;fill-opacity:1;stroke:none;stroke-width:0.645454"
       d="m 44.401472,168.26401 -3.511276,16.42037 h 3.717821 l 0.206547,-1.03271 c 1.110181,0.95527 2.168727,1.36835 3.14982,1.36835 3.821095,0 7.151642,-6.42874 7.151642,-12.10872 0,-4.26002 -1.884727,-7.59056 -6.996732,-7.59056 -5.08619,0 -9.5011,3.2789 -9.5011,6.81599 0,1.75565 1.058546,2.40111 2.762546,2.40111 -0.07745,-0.23237 -0.361454,-0.54219 -0.361454,-1.75565 0,-3.92436 3.020732,-6.27381 6.557823,-6.27381 2.685093,0 3.976004,1.34253 3.976004,5.21527 0,4.69892 -1.884727,11.02437 -4.957094,11.02437 -0.490544,0 -0.981093,-0.15486 -1.471637,-0.51636 l 3.098184,-14.48401 z" />
    <path
       id="path1060"
       style="font-style:normal;font-variant:normal;font-weight:normal;font-stretch:normal;font-size:93.855px;line-height:1.25;font-family:'Lobster Two';-inkscape-font-specification:'Lobster Two';fill:#325d88;fill-opacity:1;stroke:none;stroke-width:0.645454"
       d="m 64.539629,171.77529 -0.258183,1.21346 c -0.180736,-1.18764 -1.265093,-1.34256 -2.117091,-1.34256 -4.492369,0 -6.635282,5.55092 -6.635282,9.03638 0,3.07236 1.678185,4.15674 3.433824,4.15674 1.83309,0 3.072365,-1.21346 3.846911,-2.40109 0.206545,1.47162 1.136,2.24616 2.530184,2.24616 1.394183,0 3.717821,-0.41309 5.18946,-4.62145 h -1.084364 c -0.387275,1.29092 -1.084364,2.272 -2.091275,2.272 -0.72291,0 -1.058546,-0.23236 -1.058546,-0.95527 0,-0.23236 0.02584,-0.49055 0.103268,-0.82617 l 1.884729,-8.7782 z m -1.574911,1.47162 c 0.800364,0 1.032728,0.67128 1.058546,0.98111 l -1.239273,5.83491 c -0.309818,1.49746 -1.394184,2.272 -2.142913,2.272 -0.464727,0 -1.290911,-0.0258 -1.290911,-2.01381 0,-2.42691 1.420003,-7.07421 3.614551,-7.07421 z" />
    <path
       id="path1062"
       style="font-style:normal;font-variant:normal;font-weight:normal;font-stretch:normal;font-size:93.855px;line-height:1.25;font-family:'Lobster Two';-inkscape-font-specification:'Lobster Two';fill:#325d88;fill-opacity:1;stroke:none;stroke-width:0.645454"
       d="m 78.11998,171.25892 c -1.084364,0 -1.600727,0.59382 -1.600727,1.39419 0,0.56799 0.309818,1.31672 0.929455,1.31672 0.206545,0 0.748728,-0.0776 0.826181,-0.25817 0,2.83999 -1.936362,8.62327 -4.466548,8.62327 -0.619636,0 -0.877819,-0.33564 -0.877819,-0.852 0,-0.23237 0.05164,-0.568 0.129085,-0.92944 l 1.858911,-8.7782 h -3.717821 l -1.858912,8.7782 c -0.103268,0.49054 -0.129085,0.95526 -0.129085,1.23927 0,2.03963 1.213455,3.04655 3.17564,3.04655 5.266913,0 7.35819,-7.20329 7.35819,-11.33421 0,-1.136 -0.387275,-2.24618 -1.62655,-2.24618 z" />
    <path
       id="path1064"
       style="font-style:normal;font-variant:normal;font-weight:normal;font-stretch:normal;font-size:93.855px;line-height:1.25;font-family:'Lobster Two';-inkscape-font-specification:'Lobster Two';fill:#325d88;fill-opacity:1;stroke:none;stroke-width:0.645454"
       d="m 94.282173,171.49129 c -1.445819,2.50436 -2.840007,3.976 -4.130918,4.1051 -0.05163,-2.63346 -1.135999,-3.9502 -3.304728,-3.9502 -5.318551,0 -7.074189,6.14474 -7.074189,9.11383 0,2.94329 1.729819,4.07929 4.130912,4.07929 3.201459,0 5.809095,-3.04655 6.19637,-7.9262 1.57491,-0.49054 3.020732,-1.65235 4.26,-3.53709 0.284007,4.77636 0.568005,5.57672 0.568005,7.02255 0,1.80728 -0.490549,2.40108 -1.62655,2.40108 -0.981089,0 -1.497452,-0.72289 -1.497452,-1.93636 0.129085,0.25819 0.438906,0.33564 0.697089,0.33564 0.671278,0 1.239274,-0.54217 1.239274,-1.16182 0,-0.74873 -0.46473,-1.08437 -1.342548,-1.08437 -0.903634,0 -1.858909,0.92947 -1.858909,2.45274 0,1.57492 0.516363,3.43383 3.58873,3.43383 1.394181,0 2.917456,-0.46474 3.795278,-1.75565 1.110183,-0.6971 2.375283,-1.62654 3.588723,-3.02073 h -1.08436 c -0.490539,0.38727 -1.136001,0.87783 -1.833091,1.26511 0.05167,-0.28401 0.07747,-0.61965 0.07747,-0.95529 0,-1.70399 -0.258188,-2.71091 -0.568005,-9.39782 z m -9.346194,10.92109 c -0.981091,0 -1.316729,-0.38727 -1.316729,-2.09126 0,-2.53019 1.600728,-7.12583 3.433823,-7.12583 0.645453,0 0.929455,0.36145 0.981091,1.39418 -0.464728,0.18064 -0.800367,0.64547 -0.800367,1.36836 0,0.67128 0.232366,1.05855 0.697093,1.18766 -0.413089,3.02073 -1.729821,5.26689 -2.994911,5.26689 z" />
    <path
       id="path1066"
       style="font-style:normal;font-variant:normal;font-weight:normal;font-stretch:normal;font-size:93.855px;line-height:1.25;font-family:'Lobster Two';-inkscape-font-specification:'Lobster Two';fill:#325d88;fill-opacity:1;stroke:none;stroke-width:0.645454"
       d="m 110.05707,171.77529 -4.98291,3.92437 1.93636,-9.08801 -3.82109,0.51635 -3.743637,17.55638 h 3.717817 l 1.34255,-6.37708 c 0.72291,-0.59383 1.31673,-0.95528 1.91055,-0.95528 0.67127,0 0.92946,0.49054 0.92946,1.23926 0,1.08438 -0.46473,2.11711 -0.46473,3.30474 0,1.88473 1.136,2.94329 3.25309,2.94329 1.18764,0 3.27891,-0.43891 4.75055,-4.77638 h -1.08437 c -0.568,1.34255 -1.03273,2.272 -2.16873,2.272 -0.80036,0 -1.0069,-0.43891 -1.0069,-0.95527 0,-1.00691 0.51635,-1.98799 0.51635,-3.09817 0,-1.65238 -0.92945,-3.02073 -2.83999,-3.02073 -0.284,0 -0.568,0.0516 -0.85201,0.1033 l 5.16365,-3.58873 z" />
    <path
       id="path1068"
       style="font-style:normal;font-variant:normal;font-weight:normal;font-stretch:normal;font-size:93.855px;line-height:1.25;font-family:'Lobster Two';-inkscape-font-specification:'Lobster Two';fill:#325d88;fill-opacity:1;stroke:none;stroke-width:0.645454"
       d="m 115.55635,171.77529 -1.75565,8.28764 c -0.12908,0.61964 -0.20654,1.18763 -0.20654,1.67819 0,2.16872 1.21345,3.09819 2.76254,3.09819 0.87782,0 2.03964,-0.23237 3.14983,-1.49746 l -0.25818,1.136 c -2.45274,0.72291 -4.46655,1.47164 -4.46655,3.87273 0,1.67818 1.47164,2.78836 3.04655,2.78836 1.704,0 3.92436,-0.69709 4.69891,-4.38909 l 3.14982,-14.97456 h -3.74365 l -1.75563,8.28764 c -0.38727,1.29092 -1.05855,2.272 -2.06545,2.272 -0.59383,0 -0.77455,-0.54217 -0.77455,-1.136 0,-0.20654 0.0258,-0.43891 0.0775,-0.64544 l 1.85891,-8.7782 z m 0.64545,16.21383 c 0,-1.39419 1.23927,-2.14292 2.86582,-2.68509 l -0.30982,1.52327 c -0.33564,1.52328 -1.00691,2.01382 -1.52328,2.01382 -0.56799,0 -1.03272,-0.49054 -1.03272,-0.852 z" />
    <path
       style="color:#000000;font-size:1.22231px;font-family:Dunkin;-inkscape-font-specification:'Lobster Two, Normal';fill:#325d88;fill-opacity:1;stroke-width:0.398939;-inkscape-stroke:none"
       d="m 96.794885,193.18434 c -0.01132,0.0477 -0.01596,0.0906 -0.01596,0.12927 0,0.18138 0.108805,0.29018 0.317378,0.29018 0.480594,0 0.621146,-0.501 0.621146,-0.76624 0,-0.28792 -0.108814,-0.39219 -0.267503,-0.39219 -0.04537,0 -0.09294,0.0111 -0.18589,0.0681 l 0.108814,-0.51007 -0.335515,0.0453 z m 0.693695,-0.35591 c 0,0.23802 -0.117887,0.55539 -0.265239,0.55539 -0.08164,0 -0.120142,-0.0386 -0.120142,-0.10423 0,-0.0167 0.0019,-0.034 0.0065,-0.0521 l 0.124688,-0.57579 c 0.02496,-0.0295 0.102004,-0.0408 0.133751,-0.0408 0.08164,0 0.120151,0.10645 0.120151,0.21762 z"
       id="path1070" />
    <path
       style="color:#000000;font-size:1.22231px;font-family:Dunkin;-inkscape-font-specification:'Lobster Two, Normal';fill:#325d88;fill-opacity:1;stroke-width:0.398939;-inkscape-stroke:none"
       d="m 97.955574,192.45665 -0.154162,0.72769 c -0.01132,0.0544 -0.01818,0.10423 -0.01818,0.14745 0,0.19041 0.10655,0.27204 0.242565,0.27204 0.07709,0 0.17909,-0.0204 0.276576,-0.1315 l -0.02264,0.0998 c -0.215364,0.0634 -0.39219,0.12927 -0.39219,0.34005 0,0.14744 0.129215,0.24483 0.267503,0.24483 0.149616,0 0.344579,-0.0612 0.412591,-0.38538 l 0.276567,-1.31484 h -0.328705 l -0.154162,0.72769 c -0.03396,0.11332 -0.09294,0.19948 -0.181354,0.19948 -0.05214,0 -0.068,-0.0477 -0.068,-0.0998 0,-0.0186 0.0019,-0.0386 0.0065,-0.0568 l 0.163234,-0.77076 z m 0.05668,1.42365 c 0,-0.1224 0.108814,-0.18815 0.251639,-0.23576 l -0.02718,0.13372 c -0.0295,0.13372 -0.08841,0.17675 -0.13376,0.17675 -0.04982,0 -0.09064,-0.043 -0.09064,-0.0748 z"
       id="path1072" />
    <path
       style="color:#000000;font-size:1.22231px;font-family:Dunkin;-inkscape-font-specification:'Lobster Two, Normal';fill:#325d88;fill-opacity:1;stroke-width:0.398939;-inkscape-stroke:none"
       d="m 99.98451,192.14832 -0.308304,1.4418 h 0.326444 l 0.0182,-0.0907 c 0.0975,0.0839 0.19043,0.12018 0.27658,0.12018 0.3355,0 0.62794,-0.56446 0.62794,-1.0632 0,-0.37406 -0.16549,-0.6665 -0.61434,-0.6665 -0.446595,0 -0.834249,0.28791 -0.834249,0.59849 0,0.15412 0.09295,0.21083 0.242566,0.21083 -0.0065,-0.0204 -0.03173,-0.0477 -0.03173,-0.15411 0,-0.34458 0.265239,-0.55088 0.575813,-0.55088 0.23577,0 0.34912,0.11796 0.34912,0.45792 0,0.41259 -0.1655,0.96801 -0.43526,0.96801 -0.043,0 -0.0862,-0.013 -0.12922,-0.0455 l 0.27204,-1.27177 z"
       id="path1074" />
    <path
       style="color:#000000;font-size:1.22231px;font-family:Dunkin;-inkscape-font-specification:'Lobster Two, Normal';fill:#325d88;fill-opacity:1;stroke-width:0.398939;-inkscape-stroke:none"
       d="m 101.75275,192.45665 -0.0226,0.10645 c -0.016,-0.10423 -0.11108,-0.11796 -0.1859,-0.11796 -0.39446,0 -0.58261,0.48739 -0.58261,0.79345 0,0.26976 0.14735,0.36498 0.3015,0.36498 0.16096,0 0.26978,-0.10665 0.33778,-0.21084 0.0182,0.12927 0.0998,0.19723 0.22217,0.19723 0.1224,0 0.32645,-0.0364 0.45566,-0.40579 h -0.0952 c -0.034,0.11332 -0.0952,0.19949 -0.18363,0.19949 -0.0635,0 -0.0929,-0.0204 -0.0929,-0.0839 0,-0.0204 0.002,-0.043 0.009,-0.0726 l 0.16549,-0.77076 z m -0.13828,0.12927 c 0.0702,0 0.0906,0.059 0.093,0.0861 l -0.10881,0.51233 c -0.0272,0.1315 -0.12241,0.19948 -0.18816,0.19948 -0.0408,0 -0.11336,-0.002 -0.11336,-0.17674 0,-0.21308 0.12469,-0.62115 0.31738,-0.62115 z"
       id="path1076" />
    <path
       style="color:#000000;font-size:1.22231px;font-family:Dunkin;-inkscape-font-specification:'Lobster Two, Normal';fill:#325d88;fill-opacity:1;stroke-width:0.398939;-inkscape-stroke:none"
       d="m 102.94518,192.4113 c -0.0952,0 -0.14055,0.0521 -0.14055,0.1224 0,0.0499 0.0272,0.11555 0.0816,0.11555 0.0182,0 0.0658,-0.007 0.0726,-0.0226 0,0.24937 -0.17002,0.75716 -0.39219,0.75716 -0.0545,0 -0.0771,-0.0295 -0.0771,-0.0748 0,-0.0204 0.005,-0.0499 0.0113,-0.0816 l 0.16323,-0.77076 h -0.32645 l -0.16323,0.77076 c -0.009,0.043 -0.0113,0.0839 -0.0113,0.10887 0,0.17916 0.10655,0.26751 0.27884,0.26751 0.46246,0 0.64608,-0.63249 0.64608,-0.99521 0,-0.0998 -0.0339,-0.19722 -0.1428,-0.19722 z"
       id="path1078" />
    <path
       style="color:#000000;font-size:1.22231px;font-family:Dunkin;-inkscape-font-specification:'Lobster Two, Normal';fill:#325d88;fill-opacity:1;stroke-width:0.398939;-inkscape-stroke:none"
       d="m 103.71141,192.44531 c -0.46699,0 -0.62115,0.53954 -0.62115,0.80023 0,0.25845 0.15188,0.35819 0.36272,0.35819 0.28564,0 0.51914,-0.27656 0.54407,-0.71636 0.11788,-0.0681 0.18363,-0.2063 0.22897,-0.30151 h -0.0726 c -0.0226,0.0408 -0.0793,0.13594 -0.15415,0.15634 -0.016,-0.19722 -0.11108,-0.29697 -0.28792,-0.29697 z m -0.16775,0.94532 c -0.0862,0 -0.11562,-0.0339 -0.11562,-0.1836 0,-0.22216 0.14055,-0.62568 0.30151,-0.62568 0.0567,0 0.0793,0.0317 0.0862,0.12018 -0.0408,0.0167 -0.0702,0.0568 -0.0702,0.12019 0,0.059 0.0204,0.0929 0.0612,0.10423 -0.0363,0.26523 -0.1519,0.46472 -0.26297,0.46472 z"
       id="path1080" />
    <path
       style="color:#000000;font-size:1.22231px;font-family:Dunkin;-inkscape-font-specification:'Lobster Two, Normal';fill:#325d88;fill-opacity:1;stroke-width:0.398939;-inkscape-stroke:none"
       d="m 105.30283,192.14832 -0.30831,1.4418 h 0.32645 l 0.0182,-0.0907 c 0.0975,0.0839 0.19043,0.12018 0.27657,0.12018 0.33551,0 0.62795,-0.56446 0.62795,-1.0632 0,-0.37406 -0.16549,-0.6665 -0.61435,-0.6665 -0.44659,0 -0.83425,0.28791 -0.83425,0.59849 0,0.15412 0.0929,0.21083 0.24257,0.21083 -0.007,-0.0204 -0.0317,-0.0477 -0.0317,-0.15411 0,-0.34458 0.26523,-0.55088 0.57581,-0.55088 0.23576,0 0.34911,0.11796 0.34911,0.45792 0,0.41259 -0.16549,0.96801 -0.43525,0.96801 -0.0431,0 -0.0862,-0.013 -0.12922,-0.0455 l 0.27203,-1.27177 z"
       id="path1082" />
    <path
       style="color:#000000;font-size:1.22231px;font-family:Dunkin;-inkscape-font-specification:'Lobster Two, Normal';fill:#325d88;fill-opacity:1;stroke-width:0.398939;-inkscape-stroke:none"
       d="m 107.07106,192.45665 -0.0226,0.10645 c -0.016,-0.10423 -0.11108,-0.11796 -0.18589,-0.11796 -0.39446,0 -0.58261,0.48739 -0.58261,0.79345 0,0.26976 0.14735,0.36498 0.3015,0.36498 0.16095,0 0.26977,-0.10665 0.33778,-0.21084 0.0182,0.12927 0.0997,0.19723 0.22217,0.19723 0.1224,0 0.32644,-0.0364 0.45565,-0.40579 h -0.0952 c -0.034,0.11332 -0.0952,0.19949 -0.18363,0.19949 -0.0635,0 -0.093,-0.0204 -0.093,-0.0839 0,-0.0204 0.002,-0.043 0.009,-0.0726 l 0.1655,-0.77076 z m -0.13827,0.12927 c 0.0702,0 0.0906,0.059 0.0929,0.0861 l -0.10882,0.51233 c -0.0272,0.1315 -0.12242,0.19948 -0.18815,0.19948 -0.0408,0 -0.11336,-0.002 -0.11336,-0.17674 0,-0.21308 0.12469,-0.62115 0.31738,-0.62115 z"
       id="path1084" />
    <path
       style="color:#000000;font-size:1.22231px;font-family:Dunkin;-inkscape-font-specification:'Lobster Two, Normal';fill:#325d88;fill-opacity:1;stroke-width:0.398939;-inkscape-stroke:none"
       d="m 108.26349,192.4113 c -0.0952,0 -0.14054,0.0521 -0.14054,0.1224 0,0.0499 0.0272,0.11555 0.0816,0.11555 0.0182,0 0.0658,-0.007 0.0726,-0.0226 0,0.24937 -0.17002,0.75716 -0.39219,0.75716 -0.0544,0 -0.0771,-0.0295 -0.0771,-0.0748 0,-0.0204 0.005,-0.0499 0.0113,-0.0816 l 0.16324,-0.77076 h -0.32646 l -0.16322,0.77076 c -0.009,0.043 -0.0113,0.0839 -0.0113,0.10887 0,0.17916 0.10656,0.26751 0.27884,0.26751 0.46247,0 0.64609,-0.63249 0.64609,-0.99521 0,-0.0998 -0.034,-0.19722 -0.14281,-0.19722 z"
       id="path1086" />
    <path
       style="color:#000000;font-size:1.22231px;font-family:Dunkin;-inkscape-font-specification:'Lobster Two, Normal';fill:#325d88;fill-opacity:1;stroke-width:0.398939;-inkscape-stroke:none"
       d="m 109.68262,192.4317 c -0.12695,0.21991 -0.24937,0.34912 -0.36272,0.36045 -0.005,-0.23124 -0.0997,-0.34684 -0.29017,-0.34684 -0.467,0 -0.62115,0.53954 -0.62115,0.80023 0,0.25845 0.1519,0.35819 0.36272,0.35819 0.2811,0 0.51006,-0.26751 0.54407,-0.69595 0.13828,-0.043 0.26523,-0.14505 0.37405,-0.31059 0.025,0.4194 0.0499,0.48967 0.0499,0.61662 0,0.15876 -0.043,0.21082 -0.14281,0.21082 -0.0862,0 -0.13147,-0.0635 -0.13147,-0.17008 0.0113,0.0226 0.0385,0.0295 0.0612,0.0295 0.0589,0 0.10881,-0.0477 0.10881,-0.102 0,-0.0657 -0.0408,-0.0951 -0.11789,-0.0951 -0.0793,0 -0.16322,0.0816 -0.16322,0.21537 0,0.13836 0.0454,0.30151 0.31511,0.30151 0.12241,0 0.25617,-0.0408 0.33324,-0.15412 0.0975,-0.0612 0.20857,-0.14281 0.31511,-0.26523 h -0.0952 c -0.043,0.034 -0.0998,0.0772 -0.16096,0.11109 0.005,-0.0249 0.007,-0.0544 0.007,-0.0839 0,-0.14967 -0.0226,-0.23802 -0.0499,-0.82517 z m -0.82065,0.95893 c -0.0862,0 -0.11561,-0.0339 -0.11561,-0.1836 0,-0.22216 0.14054,-0.62568 0.3015,-0.62568 0.0567,0 0.0816,0.0317 0.0862,0.12241 -0.0408,0.0167 -0.0702,0.0568 -0.0702,0.12019 0,0.059 0.0204,0.0929 0.0612,0.10423 -0.0363,0.26523 -0.1519,0.46245 -0.26298,0.46245 z"
       id="path1088" />
    <path
       style="color:#000000;font-size:1.22231px;font-family:Dunkin;-inkscape-font-specification:'Lobster Two, Normal';fill:#325d88;fill-opacity:1;stroke-width:0.398939;-inkscape-stroke:none"
       d="m 111.06774,192.45665 -0.43752,0.34457 0.17001,-0.79797 -0.3355,0.0453 -0.32872,1.54154 h 0.32644 l 0.11789,-0.55995 c 0.0635,-0.0521 0.11561,-0.0839 0.16775,-0.0839 0.0589,0 0.0816,0.043 0.0816,0.10887 0,0.0951 -0.0408,0.18589 -0.0408,0.29016 0,0.16543 0.0997,0.25844 0.28564,0.25844 0.10429,0 0.28791,-0.0386 0.41712,-0.41939 h -0.0952 c -0.0499,0.11795 -0.0906,0.19948 -0.19043,0.19948 -0.0702,0 -0.0884,-0.0386 -0.0884,-0.0839 0,-0.0885 0.0454,-0.17453 0.0454,-0.27204 0,-0.14504 -0.0816,-0.26524 -0.24937,-0.26524 -0.025,0 -0.0499,0.004 -0.0748,0.009 l 0.4534,-0.3151 z"
       id="path1090" />
    <path
       style="color:#000000;font-size:1.22231px;font-family:Dunkin;-inkscape-font-specification:'Lobster Two, Normal';fill:#325d88;fill-opacity:1;stroke-width:0.398939;-inkscape-stroke:none"
       d="m 111.55061,192.45665 -0.15416,0.72769 c -0.0113,0.0544 -0.0182,0.10423 -0.0182,0.14745 0,0.19041 0.10655,0.27204 0.24256,0.27204 0.0771,0 0.17908,-0.0204 0.27657,-0.1315 l -0.0226,0.0998 c -0.21536,0.0634 -0.39219,0.12927 -0.39219,0.34005 0,0.14744 0.12922,0.24483 0.26751,0.24483 0.14962,0 0.34458,-0.0612 0.41259,-0.38538 l 0.27657,-1.31484 h -0.32871 l -0.15416,0.72769 c -0.0341,0.11332 -0.0929,0.19948 -0.18137,0.19948 -0.0521,0 -0.068,-0.0477 -0.068,-0.0998 0,-0.0186 0.002,-0.0386 0.006,-0.0568 l 0.16323,-0.77076 z m 0.0567,1.42365 c 0,-0.1224 0.10881,-0.18815 0.25163,-0.23576 l -0.0272,0.13372 c -0.0295,0.13372 -0.0884,0.17675 -0.13376,0.17675 -0.0499,0 -0.0906,-0.043 -0.0906,-0.0748 z"
       id="path1092" />
    <path
       id="path1094"
       style="font-style:normal;font-variant:normal;font-weight:normal;font-stretch:normal;font-size:28.1463px;line-height:1.25;font-family:'Lobster Two';-inkscape-font-specification:'Lobster Two, Normal';font-variant-ligatures:normal;font-variant-caps:normal;font-variant-numeric:normal;font-variant-east-asian:normal;fill:#325d88;fill-opacity:1;stroke:none;stroke-width:0.193566"
       d="m 83.214882,188.43556 c 0.09292,0.062 0.224536,0.0929 0.309705,0.0929 0.224537,0 0.410363,-0.27099 0.410363,-0.65038 0,-0.33293 -0.170332,-0.68135 -0.859435,-0.68135 -1.57176,0 -2.082776,1.84274 -2.082776,2.72542 0,0.87492 0.480046,1.23106 1.207854,1.23106 1.029774,0 1.6879,-0.72005 2.129232,-1.43237 h -0.263251 c -0.387132,0.44132 -0.758779,0.78201 -1.37045,0.78201 -0.371647,0 -0.588441,-0.13169 -0.588441,-0.65814 0,-0.84394 0.487789,-2.23763 1.022029,-2.23763 0.147112,0 0.216796,0.10831 0.216796,0.28648 0,0.13169 -0.05419,0.37165 -0.131626,0.542 z" />
    <path
       id="path1096"
       style="font-style:normal;font-variant:normal;font-weight:normal;font-stretch:normal;font-size:28.1463px;line-height:1.25;font-family:'Lobster Two';-inkscape-font-specification:'Lobster Two, Normal';font-variant-ligatures:normal;font-variant-caps:normal;font-variant-numeric:normal;font-variant-east-asian:normal;fill:#325d88;fill-opacity:1;stroke:none;stroke-width:0.193566"
       d="m 86.079657,187.19674 c -1.594989,0 -2.121489,1.84274 -2.121489,2.73314 0,0.88267 0.518757,1.22334 1.238826,1.22334 0.952347,0 1.734353,-0.90589 1.858236,-2.34602 0.557473,-0.0929 1.068486,-0.3252 1.362709,-0.64264 l -0.06968,-0.20904 c -0.332935,0.23228 -0.836208,0.46455 -1.192369,0.46455 -0.02322,0 -0.05419,0 -0.08517,-0.007 -0.0078,-0.80523 -0.332935,-1.2156 -0.991058,-1.2156 z m -0.572959,3.22867 c -0.29422,0 -0.394874,-0.1161 -0.394874,-0.62715 0,-0.75878 0.480045,-2.13697 1.029773,-2.13697 0.193568,0 0.278736,0.1161 0.294221,0.43358 -0.13936,0.0542 -0.240024,0.19358 -0.240024,0.41037 0,0.15487 0.04646,0.28647 0.209053,0.3252 -0.116139,0.91362 -0.518758,1.59497 -0.898149,1.59497 z" />
    <path
       id="path1098"
       style="font-style:normal;font-variant:normal;font-weight:normal;font-stretch:normal;font-size:28.1463px;line-height:1.25;font-family:'Lobster Two';-inkscape-font-specification:'Lobster Two, Normal';font-variant-ligatures:normal;font-variant-caps:normal;font-variant-numeric:normal;font-variant-east-asian:normal;fill:#325d88;fill-opacity:1;stroke:none;stroke-width:0.193566"
       d="m 89.69547,188.30393 c 0,0.49553 -0.348422,1.44787 -0.348422,1.97437 0,0.44134 0.240026,0.87492 0.913636,0.87492 0.410361,0 1.006543,-0.16265 1.440135,-1.43238 h -0.325195 c -0.170332,0.40261 -0.309704,0.68135 -0.650382,0.68135 -0.232277,0 -0.309706,-0.13168 -0.309706,-0.32519 0,-0.43359 0.371646,-1.37045 0.371646,-1.99761 0,-0.6194 -0.363902,-0.87492 -0.859432,-0.87492 -0.240023,0 -0.580702,0.062 -0.905891,0.43358 l 0.08517,-0.40261 h -1.114944 l -0.820721,3.87132 h 1.114942 l 0.526503,-2.48539 c 0.116138,-0.38713 0.325189,-0.71231 0.603925,-0.71231 0.185824,0 0.278736,0.13928 0.278736,0.39487 z" />
    <path
       id="path1100"
       style="font-style:normal;font-variant:normal;font-weight:normal;font-stretch:normal;font-size:28.1463px;line-height:1.25;font-family:'Lobster Two';-inkscape-font-specification:'Lobster Two, Normal';font-variant-ligatures:normal;font-variant-caps:normal;font-variant-numeric:normal;font-variant-east-asian:normal;fill:#325d88;fill-opacity:1;stroke:none;stroke-width:0.193566"
       d="m 93.605511,188.30393 c 0,0.49553 -0.348429,1.44787 -0.348429,1.97437 0,0.44134 0.240023,0.87492 0.913642,0.87492 0.410355,0 1.006536,-0.16265 1.440131,-1.43238 h -0.325199 c -0.170332,0.40261 -0.309705,0.68135 -0.650378,0.68135 -0.232277,0 -0.309706,-0.13168 -0.309706,-0.32519 0,-0.43359 0.37165,-1.37045 0.37165,-1.99761 0,-0.6194 -0.363903,-0.87492 -0.859434,-0.87492 -0.240024,0 -0.580706,0.062 -0.905896,0.43358 l 0.08517,-0.40261 H 91.90212 l -0.820721,3.87132 h 1.114942 l 0.526502,-2.48539 c 0.116141,-0.38713 0.325187,-0.71231 0.603925,-0.71231 0.185825,0 0.278738,0.13928 0.278738,0.39487 z" />
    <path
       id="path1102"
       style="font-style:normal;font-variant:normal;font-weight:normal;font-stretch:normal;font-size:28.1463px;line-height:1.25;font-family:'Lobster Two';-inkscape-font-specification:'Lobster Two, Normal';font-variant-ligatures:normal;font-variant-caps:normal;font-variant-numeric:normal;font-variant-east-asian:normal;fill:#325d88;fill-opacity:1;stroke:none;stroke-width:0.193566"
       d="m 96.330916,189.85247 c 0,-0.0929 0.0074,-0.20133 0.01559,-0.30971 0.929117,-0.0542 1.780805,-0.72781 1.780805,-1.60273 0,-0.38715 -0.162595,-0.74329 -0.851688,-0.74329 -1.587242,0 -2.09052,1.84274 -2.09052,2.72541 0,0.87492 0.480047,1.23107 1.207855,1.23107 1.029776,0 1.687901,-0.72006 2.129234,-1.43238 h -0.263245 c -0.387144,0.44132 -0.758785,0.78201 -1.370459,0.78201 -0.371641,0 -0.557466,-0.12389 -0.557466,-0.65038 z m 1.200108,-1.92793 c 0,0.62716 -0.518761,1.20786 -1.122688,1.24656 0.162604,-0.75878 0.541991,-1.56402 0.929125,-1.56402 0.147111,0 0.193563,0.12389 0.193563,0.31746 z" />
    <path
       id="path1104"
       style="font-style:normal;font-variant:normal;font-weight:normal;font-stretch:normal;font-size:28.1463px;line-height:1.25;font-family:'Lobster Two';-inkscape-font-specification:'Lobster Two, Normal';font-variant-ligatures:normal;font-variant-caps:normal;font-variant-numeric:normal;font-variant-east-asian:normal;fill:#325d88;fill-opacity:1;stroke:none;stroke-width:0.193566"
       d="m 100.38031,188.43556 c 0.0929,0.062 0.22454,0.0929 0.30971,0.0929 0.22453,0 0.41036,-0.27099 0.41036,-0.65038 0,-0.33293 -0.17033,-0.68135 -0.85943,-0.68135 -1.571763,0 -2.082778,1.84274 -2.082778,2.72542 0,0.87492 0.480038,1.23106 1.207855,1.23106 1.029773,0 1.687903,-0.72005 2.129223,-1.43237 h -0.26324 c -0.38714,0.44132 -0.75879,0.78201 -1.370452,0.78201 -0.371651,0 -0.588444,-0.13169 -0.588444,-0.65814 0,-0.84394 0.487784,-2.23763 1.022026,-2.23763 0.14711,0 0.2168,0.10831 0.2168,0.28648 0,0.13169 -0.0542,0.37165 -0.13163,0.542 z" />
    <path
       id="path1106"
       style="font-style:normal;font-variant:normal;font-weight:normal;font-stretch:normal;font-size:28.1463px;line-height:1.25;font-family:'Lobster Two';-inkscape-font-specification:'Lobster Two, Normal';font-variant-ligatures:normal;font-variant-caps:normal;font-variant-numeric:normal;font-variant-east-asian:normal;fill:#325d88;fill-opacity:1;stroke:none;stroke-width:0.193566"
       d="m 101.99078,186.16695 -0.23228,1.06849 h -0.25551 l -0.062,0.30972 h 0.2555 l -0.46455,2.17568 c -0.0387,0.18583 -0.062,0.35616 -0.062,0.50327 0,0.65037 0.36391,0.92911 0.82846,0.92911 0.41811,0 1.18464,-0.17026 1.62596,-1.43238 h -0.32519 c -0.11614,0.38713 -0.39487,0.68135 -0.69684,0.68135 -0.21679,0 -0.31744,-0.0698 -0.31744,-0.28649 0,-0.0698 0.007,-0.14707 0.031,-0.24777 l 0.49554,-2.32277 h 0.46456 l 0.062,-0.30972 h -0.46456 l 0.26325,-1.22334 z" />
    <path
       id="path1108"
       style="font-style:normal;font-variant:normal;font-weight:normal;font-stretch:normal;font-size:28.1463px;line-height:1.25;font-family:'Lobster Two';-inkscape-font-specification:'Lobster Two, Normal';font-variant-ligatures:normal;font-variant-caps:normal;font-variant-numeric:normal;font-variant-east-asian:normal;fill:#325d88;fill-opacity:1;stroke:none;stroke-width:0.193566"
       d="m 103.98062,186.20567 c 0,0.34067 0.271,0.61168 0.61168,0.61168 0.34067,0 0.61941,-0.27101 0.61941,-0.61168 0,-0.34068 -0.27874,-0.61942 -0.61941,-0.61942 -0.34068,0 -0.61168,0.27874 -0.61168,0.61942 z m -0.15484,1.02977 -0.5265,2.4854 c -0.0387,0.18583 -0.062,0.35616 -0.062,0.50327 0,0.65037 0.36391,0.92911 0.82847,0.92911 0.4181,0 1.18463,-0.17026 1.62596,-1.43238 h -0.3252 c -0.11613,0.38713 -0.39487,0.68135 -0.69683,0.68135 -0.21679,0 -0.31745,-0.0698 -0.31745,-0.28649 0,-0.0698 0.007,-0.14707 0.031,-0.24777 l 0.55748,-2.63249 z" />
    <path
       id="path1110"
       style="font-style:normal;font-variant:normal;font-weight:normal;font-stretch:normal;font-size:28.1463px;line-height:1.25;font-family:'Lobster Two';-inkscape-font-specification:'Lobster Two, Normal';font-variant-ligatures:normal;font-variant-caps:normal;font-variant-numeric:normal;font-variant-east-asian:normal;fill:#325d88;fill-opacity:1;stroke:none;stroke-width:0.193566"
       d="m 107.37964,187.19674 c -1.59499,0 -2.12149,1.84274 -2.12149,2.73314 0,0.88267 0.51876,1.22334 1.23882,1.22334 0.95235,0 1.73437,-0.90589 1.85825,-2.34602 0.55746,-0.0929 1.06848,-0.3252 1.3627,-0.64264 l -0.0697,-0.20904 c -0.33294,0.23228 -0.83621,0.46455 -1.19237,0.46455 -0.0232,0 -0.0542,0 -0.0852,-0.007 -0.007,-0.80523 -0.33294,-1.2156 -0.99106,-1.2156 z m -0.57296,3.22867 c -0.29422,0 -0.39487,-0.1161 -0.39487,-0.62715 0,-0.75878 0.48004,-2.13697 1.02977,-2.13697 0.19357,0 0.27874,0.1161 0.29422,0.43358 -0.13936,0.0542 -0.24002,0.19358 -0.24002,0.41037 0,0.15487 0.0465,0.28647 0.20905,0.3252 -0.11614,0.91362 -0.51875,1.59497 -0.89815,1.59497 z" />
    <path
       id="path1112"
       style="font-style:normal;font-variant:normal;font-weight:normal;font-stretch:normal;font-size:28.1463px;line-height:1.25;font-family:'Lobster Two';-inkscape-font-specification:'Lobster Two, Normal';font-variant-ligatures:normal;font-variant-caps:normal;font-variant-numeric:normal;font-variant-east-asian:normal;fill:#325d88;fill-opacity:1;stroke:none;stroke-width:0.193566"
       d="m 110.99546,188.30393 c 0,0.49553 -0.34842,1.44787 -0.34842,1.97437 0,0.44134 0.18582,0.87492 0.782,0.87492 0.41036,0 0.78202,-0.24001 0.85169,-0.79748 -0.0465,0.031 -0.12389,0.0464 -0.25551,0.0464 -0.23228,0 -0.3097,-0.13167 -0.3097,-0.32519 0,-0.43358 0.37165,-1.37045 0.37165,-1.9976 0,-0.61941 -0.36391,-0.87492 -0.85944,-0.87492 -0.24002,0 -0.58069,0.062 -0.90588,0.43357 l 0.0852,-0.4026 h -1.11495 l -0.82072,3.87132 h 1.11494 l 0.52651,-2.48541 c 0.11613,-0.38714 0.32519,-0.71232 0.60393,-0.71232 0.18581,0 0.27873,0.13928 0.27873,0.39487 z" />
  </g>
</svg>
