<?xml version="1.0" encoding="UTF-8" standalone="no"?>
<!-- Created with Inkscape (http://www.inkscape.org/) -->

<svg
   width="475"
   height="87"
   viewBox="0 0 125.67708 23.018751"
   version="1.1"
   id="svg5"
   inkscape:version="1.1.2 (0a00cf5339, 2022-02-04)"
   sodipodi:docname="main_logo.svg"
   xmlns:inkscape="http://www.inkscape.org/namespaces/inkscape"
   xmlns:sodipodi="http://sodipodi.sourceforge.net/DTD/sodipodi-0.dtd"
   xmlns="http://www.w3.org/2000/svg"
   xmlns:svg="http://www.w3.org/2000/svg">
  <sodipodi:namedview
     id="namedview7"
     pagecolor="#505050"
     bordercolor="#eeeeee"
     borderopacity="1"
     inkscape:pageshadow="0"
     inkscape:pageopacity="0"
     inkscape:pagecheckerboard="0"
     inkscape:document-units="px"
     showgrid="false"
     units="px"
     inkscape:zoom="1.9041318"
     inkscape:cx="295.14764"
     inkscape:cy="7.877606"
     inkscape:window-width="2527"
     inkscape:window-height="1408"
     inkscape:window-x="33"
     inkscape:window-y="0"
     inkscape:window-maximized="1"
     inkscape:current-layer="layer1" />
  <defs
     id="defs2" />
  <g
     inkscape:label="Livello 1"
     inkscape:groupmode="layer"
     id="layer1">
    <g
       id="g22036"
       transform="matrix(1.1658015,0,0,1.1674291,-2.5394147e-6,-0.07371108)">
      <path
         id="path20604"
         style="fill:#325d88;fill-opacity:1;stroke:none;stroke-width:0.176404px;stroke-linecap:butt;stroke-linejoin:miter;stroke-opacity:1"
         d="M 0.85012407,0.06313998 C 0.38638153,0.06313998 3.9230085e-7,0.44952075 3.9230085e-7,0.91326356 V 18.930006 c 0,0.463743 0.38638113769915,0.850605 0.85012367769915,0.850605 H 30.559194 c 0.463743,0 0.850604,-0.386862 0.850604,-0.850605 V 0.91326356 c 0,-0.46374281 -0.386861,-0.85012358 -0.850604,-0.85012358 z M 12.432214,2.3437075 l 0.93581,6.6519863 4.66894,0.027918 0.940141,-6.6799062 4.506231,3.3983157 -5.445892,11.5149237 h -4.66557 L 7.9264636,5.7420213 12.432214,2.3437056 Z"
         sodipodi:nodetypes="ssssssssscccccccccc" />
      <g
         aria-label="HEIMDALLR"
         id="text6324"
         style="font-size:30.2381px;line-height:1.25;font-family:'Barlow Condensed';-inkscape-font-specification:'Barlow Condensed, ';fill:#325d88;fill-opacity:1;stroke-width:0.755952"
         transform="matrix(0.65790638,0,0,0.65790638,7.8215185,-10.66305)">
        <path
           d="m 50.369382,21.007575 q 0,-0.302381 0.302381,-0.302381 h 1.542143 q 0.302381,0 0.302381,0.302381 v 20.561908 q 0,0.302381 -0.302381,0.302381 h -1.542143 q -0.302381,0 -0.302381,-0.302381 v -9.22262 q 0,-0.120953 -0.120952,-0.120953 h -5.382382 q -0.120952,0 -0.120952,0.120953 v 9.22262 q 0,0.302381 -0.302381,0.302381 h -1.542144 q -0.302381,0 -0.302381,-0.302381 V 21.007575 q 0,-0.302381 0.302381,-0.302381 h 1.542144 q 0.302381,0 0.302381,0.302381 v 9.192383 q 0,0.120952 0.120952,0.120952 h 5.382382 q 0.120952,0 0.120952,-0.120952 z"
           style="font-stretch:condensed;-inkscape-font-specification:'Barlow Condensed,  Condensed';fill:#325d88;fill-opacity:1"
           id="path21264" />
        <path
           d="m 66.24439,22.277575 q 0,0.302381 -0.302381,0.302381 h -7.01524 q -0.120952,0 -0.120952,0.120953 v 7.499049 q 0,0.120952 0.120952,0.120952 h 4.414763 q 0.302381,0 0.302381,0.302381 v 1.300238 q 0,0.302381 -0.302381,0.302381 h -4.414763 q -0.120952,0 -0.120952,0.120953 v 7.529287 q 0,0.120952 0.120952,0.120952 h 7.01524 q 0.302381,0 0.302381,0.302381 v 1.27 q 0,0.302381 -0.302381,0.302381 h -8.980716 q -0.302381,0 -0.302381,-0.302381 V 21.007575 q 0,-0.302381 0.302381,-0.302381 h 8.980716 q 0.302381,0 0.302381,0.302381 z"
           style="font-stretch:condensed;-inkscape-font-specification:'Barlow Condensed,  Condensed';fill:#325d88;fill-opacity:1"
           id="path21261" />
        <path
           d="m 69.933464,41.871864 q -0.302381,0 -0.302381,-0.302381 V 21.007575 q 0,-0.302381 0.302381,-0.302381 h 1.542143 q 0.302381,0 0.302381,0.302381 v 20.561908 q 0,0.302381 -0.302381,0.302381 z"
           style="font-stretch:condensed;-inkscape-font-specification:'Barlow Condensed,  Condensed';fill:#325d88;fill-opacity:1"
           id="path21258" />
        <path
           d="m 85.354899,20.916861 q 0.09071,-0.211667 0.362857,-0.211667 h 1.572381 q 0.302381,0 0.302381,0.302381 v 20.561908 q 0,0.302381 -0.302381,0.302381 h -1.542143 q -0.302381,0 -0.302381,-0.302381 V 25.361862 q 0,-0.09071 -0.06048,-0.09071 -0.03024,0 -0.09071,0.06048 l -3.144763,6.531429 q -0.09071,0.211667 -0.302381,0.211667 -0.241904,0 -0.332619,-0.211667 L 78.369898,25.36187 q -0.06048,-0.06048 -0.120952,-0.06048 -0.03024,0 -0.03024,0.09071 v 16.177383 q 0,0.302381 -0.302381,0.302381 h -1.542143 q -0.302381,0 -0.302381,-0.302381 V 21.007575 q 0,-0.302381 0.302381,-0.302381 h 1.572382 q 0.272142,0 0.362857,0.211667 l 3.447143,6.985001 q 0.03024,0.06048 0.09071,0.06048 0.06048,0 0.09072,-0.06048 z"
           style="font-stretch:condensed;-inkscape-font-specification:'Barlow Condensed,  Condensed';fill:#325d88;fill-opacity:1"
           id="path21255" />
        <path
           d="m 92.188707,41.871864 q -0.302381,0 -0.302381,-0.302381 V 21.007575 q 0,-0.302381 0.302381,-0.302381 h 4.656667 q 2.328334,0 3.719286,1.542143 1.39095,1.511905 1.39095,4.082144 v 9.918097 q 0,2.570238 -1.39095,4.112381 -1.390952,1.511905 -3.719286,1.511905 z m 1.844524,-1.995714 q 0,0.120952 0.120952,0.120952 l 2.660953,-0.03024 q 1.330477,0 2.116667,-1.028095 0.816429,-1.028096 0.846667,-2.781906 v -9.736668 q 0,-1.784048 -0.786191,-2.812143 -0.78619,-1.028096 -2.177143,-1.028096 h -2.660953 q -0.120952,0 -0.120952,0.120953 z"
           style="font-stretch:condensed;-inkscape-font-specification:'Barlow Condensed,  Condensed';fill:#325d88;fill-opacity:1"
           id="path21252" />
        <path
           d="m 113.29491,41.871864 q -0.27214,0 -0.33262,-0.272143 l -0.75595,-3.749524 q 0,-0.06048 -0.0605,-0.09071 -0.0302,-0.03024 -0.0907,-0.03024 h -5.4731 q -0.0605,0 -0.12095,0.03024 -0.0302,0.03024 -0.0302,0.09071 l -0.75595,3.749524 q -0.0302,0.272143 -0.33262,0.272143 h -1.54215 q -0.15119,0 -0.2419,-0.09071 -0.0605,-0.09071 -0.0302,-0.241905 l 4.53572,-20.561908 q 0.0605,-0.272143 0.33262,-0.272143 h 1.81428 q 0.30238,0 0.33262,0.272143 l 4.59619,20.561908 v 0.06048 q 0,0.272143 -0.27214,0.272143 z m -6.47096,-6.017382 q 0,0.120953 0.0907,0.120953 h 4.77762 q 0.0907,0 0.0907,-0.120953 l -2.41904,-11.883573 q -0.0302,-0.09071 -0.0605,-0.09071 -0.0302,0 -0.0605,0.09071 z"
           style="font-stretch:condensed;-inkscape-font-specification:'Barlow Condensed,  Condensed';fill:#325d88;fill-opacity:1"
           id="path21249" />
        <path
           d="m 118.01204,41.871864 q -0.30238,0 -0.30238,-0.302381 V 21.007575 q 0,-0.302381 0.30238,-0.302381 h 1.54215 q 0.30238,0 0.30238,0.302381 V 39.87615 q 0,0.120952 0.12095,0.120952 h 6.92453 q 0.30238,0 0.30238,0.302381 v 1.27 q 0,0.302381 -0.30238,0.302381 z"
           style="font-stretch:condensed;-inkscape-font-specification:'Barlow Condensed,  Condensed';fill:#325d88;fill-opacity:1"
           id="path21246" />
        <path
           d="m 129.98633,41.871864 q -0.30238,0 -0.30238,-0.302381 V 21.007575 q 0,-0.302381 0.30238,-0.302381 h 1.54215 q 0.30238,0 0.30238,0.302381 V 39.87615 q 0,0.120952 0.12095,0.120952 h 6.92452 q 0.30239,0 0.30239,0.302381 v 1.27 q 0,0.302381 -0.30239,0.302381 z"
           style="font-stretch:condensed;-inkscape-font-specification:'Barlow Condensed,  Condensed';fill:#325d88;fill-opacity:1"
           id="path21243" />
        <path
           d="m 150.1249,41.871864 q -0.27214,0 -0.36286,-0.241904 l -3.08428,-9.343573 q -0.0302,-0.09071 -0.12095,-0.09071 h -2.63072 q -0.12095,0 -0.12095,0.120953 v 9.252858 q 0,0.302381 -0.30238,0.302381 h -1.54215 q -0.30238,0 -0.30238,-0.302381 V 21.007575 q 0,-0.302381 0.30238,-0.302381 h 4.98929 q 2.20738,0 3.5681,1.632858 1.36071,1.602619 1.36071,4.203096 0,1.965476 -0.84667,3.386667 -0.84666,1.421191 -2.29809,1.995714 -0.12095,0.03024 -0.0907,0.151191 l 3.29596,9.464525 0.0302,0.120953 q 0,0.211666 -0.27215,0.211666 z m -6.19881,-19.291908 q -0.12095,0 -0.12095,0.120953 v 7.650239 q 0,0.120953 0.12095,0.120953 h 2.72143 q 1.39095,0 2.23762,-1.058334 0.84667,-1.088572 0.84667,-2.872619 0,-1.784048 -0.84667,-2.87262 -0.84667,-1.088572 -2.23762,-1.088572 z"
           style="font-stretch:condensed;-inkscape-font-specification:'Barlow Condensed,  Condensed';fill:#325d88;fill-opacity:1"
           id="path21240" />
      </g>
    </g>
  </g>
</svg>
