<?xml version="1.0" encoding="UTF-8" standalone="no"?>
<!-- Created with Inkscape (http://www.inkscape.org/) -->

<svg
   width="475"
   height="87"
   viewBox="0 0 125.67708 23.018751"
   version="1.1"
   id="svg5"
   inkscape:version="1.1.2 (0a00cf5339, 2022-02-04, custom)"
   sodipodi:docname="main_logo.svg"
   xmlns:inkscape="http://www.inkscape.org/namespaces/inkscape"
   xmlns:sodipodi="http://sodipodi.sourceforge.net/DTD/sodipodi-0.dtd"
   xmlns="http://www.w3.org/2000/svg"
   xmlns:svg="http://www.w3.org/2000/svg">
  <sodipodi:namedview
     id="namedview7"
     pagecolor="#505050"
     bordercolor="#eeeeee"
     borderopacity="1"
     inkscape:pageshadow="0"
     inkscape:pageopacity="0"
     inkscape:pagecheckerboard="0"
     inkscape:document-units="px"
     showgrid="false"
     units="px"
     inkscape:zoom="1.9041318"
     inkscape:cx="295.41022"
     inkscape:cy="8.1401928"
     inkscape:window-width="2527"
     inkscape:window-height="1412"
     inkscape:window-x="33"
     inkscape:window-y="0"
     inkscape:window-maximized="1"
     inkscape:current-layer="layer1" />
  <defs
     id="defs2" />
  <g
     inkscape:label="Livello 1"
     inkscape:groupmode="layer"
     id="layer1">
    <g
       id="g3364"
       transform="translate(0,-36.366981)"
       style="fill:#325d88;fill-opacity:1">
      <path
         d="m 47.079053,39.966891 q 0,-0.232246 0.231922,-0.232246 h 1.182806 q 0.231922,0 0.231922,0.232246 v 15.79276 q 0,0.232246 -0.231922,0.232246 h -1.182806 q -0.231922,0 -0.231922,-0.232246 v -7.083517 q 0,-0.0929 -0.09277,-0.0929 H 42.85806 q -0.09277,0 -0.09277,0.0929 v 7.083517 q 0,0.232246 -0.231923,0.232246 h -1.182806 q -0.231923,0 -0.231923,-0.232246 v -15.79276 q 0,-0.232246 0.231923,-0.232246 h 1.182806 q 0.231923,0 0.231923,0.232246 v 7.060293 q 0,0.0929 0.09277,0.0929 h 4.128223 q 0.09277,0 0.09277,-0.0929 z"
         style="font-stretch:condensed;font-size:30.2381px;line-height:1.25;font-family:'Barlow Condensed';-inkscape-font-specification:'Barlow Condensed,  Condensed';fill:#325d88;fill-opacity:1;stroke-width:0.580211"
         id="path2548" />
      <g
         id="g2671"
         transform="matrix(0.6747258,0,0,0.6747258,14.68126,40.097602)"
         style="fill:#325d88;fill-opacity:1">
        <path
           d="m 59.927004,4.5884271 q 0,0.2322465 -0.231922,0.2322465 h -5.380607 q -0.09277,0 -0.09277,0.092899 v 5.7597124 q 0,0.0929 0.09277,0.0929 h 3.386071 q 0.231923,0 0.231923,0.232247 v 0.998659 q 0,0.232247 -0.231923,0.232247 h -3.386071 q -0.09277,0 -0.09277,0.0929 v 5.782937 q 0,0.0929 0.09277,0.0929 h 5.380607 q 0.231922,0 0.231922,0.232247 v 0.975435 q 0,0.232246 -0.231922,0.232246 h -6.888103 q -0.231923,0 -0.231923,-0.232246 V 3.6129921 q 0,-0.2322465 0.231923,-0.2322465 h 6.888103 q 0.231922,0 0.231922,0.2322465 z"
           style="font-stretch:condensed;font-size:30.2381px;line-height:1.25;font-family:'Barlow Condensed';-inkscape-font-specification:'Barlow Condensed,  Condensed';fill:#325d88;fill-opacity:1;stroke-width:0.580211"
           id="path2545" />
        <path
           d="m 62.75648,19.637998 q -0.231922,0 -0.231922,-0.232246 V 3.6129921 q 0,-0.2322465 0.231922,-0.2322465 h 1.182806 q 0.231922,0 0.231922,0.2322465 V 19.405752 q 0,0.232246 -0.231922,0.232246 z"
           style="font-stretch:condensed;font-size:30.2381px;line-height:1.25;font-family:'Barlow Condensed';-inkscape-font-specification:'Barlow Condensed,  Condensed';fill:#325d88;fill-opacity:1;stroke-width:0.580211"
           id="path2542" />
        <path
           d="m 74.584539,3.5433184 q 0.06957,-0.1625728 0.278307,-0.1625728 h 1.205997 q 0.231923,0 0.231923,0.2322465 V 19.405752 q 0,0.232246 -0.231923,0.232246 h -1.182805 q -0.231923,0 -0.231923,-0.232246 V 6.9573416 q 0,-0.069671 -0.04639,-0.069671 -0.02319,0 -0.06957,0.046452 l -2.411996,5.0165224 q -0.06957,0.162573 -0.231922,0.162573 -0.185538,0 -0.255115,-0.162573 L 69.227126,6.9573478 q -0.04639,-0.046452 -0.09277,-0.046452 -0.02319,0 -0.02319,0.069671 V 19.405752 q 0,0.232246 -0.231923,0.232246 h -1.182805 q -0.231923,0 -0.231923,-0.232246 V 3.6129921 q 0,-0.2322465 0.231923,-0.2322465 h 1.205998 q 0.20873,0 0.278307,0.1625728 l 2.643918,5.3648932 q 0.02319,0.046452 0.06957,0.046452 0.04639,0 0.06958,-0.046452 z"
           style="font-stretch:condensed;font-size:30.2381px;line-height:1.25;font-family:'Barlow Condensed';-inkscape-font-specification:'Barlow Condensed,  Condensed';fill:#325d88;fill-opacity:1;stroke-width:0.580211"
           id="path2539" />
        <path
           d="m 79.825989,19.637998 q -0.231923,0 -0.231923,-0.232246 V 3.6129921 q 0,-0.2322465 0.231923,-0.2322465 h 3.571608 q 1.785805,0 2.852649,1.1844569 1.066842,1.1612323 1.066842,3.1353277 v 7.6176838 q 0,1.974095 -1.066842,3.158552 -1.066844,1.161232 -2.852649,1.161232 z m 1.414728,-1.532826 q 0,0.0929 0.09277,0.0929 l 2.040919,-0.02323 q 1.02046,0 1.623459,-0.789638 0.626191,-0.789638 0.649383,-2.136668 V 7.7702023 q 0,-1.3702542 -0.602999,-2.1598918 Q 84.44125,4.820672 83.374405,4.820672 h -2.040919 q -0.09277,0 -0.09277,0.092899 z"
           style="font-stretch:condensed;font-size:30.2381px;line-height:1.25;font-family:'Barlow Condensed';-inkscape-font-specification:'Barlow Condensed,  Condensed';fill:#325d88;fill-opacity:1;stroke-width:0.580211"
           id="path2536" />
        <path
           d="m 96.014197,19.637998 q -0.208728,0 -0.255116,-0.209022 L 95.179277,16.54912 q 0,-0.04645 -0.0464,-0.06967 -0.02316,-0.02323 -0.06957,-0.02323 h -4.197803 q -0.0464,0 -0.09277,0.02323 -0.02316,0.02323 -0.02316,0.06967 l -0.579805,2.879856 q -0.02316,0.209022 -0.255116,0.209022 h -1.18281 q -0.115961,0 -0.185535,-0.06967 -0.0464,-0.06967 -0.02316,-0.185797 L 92.00199,3.5897706 q 0.0464,-0.2090219 0.255115,-0.2090219 h 1.391532 q 0.231922,0 0.255115,0.2090219 L 97.428976,19.38253 v 0.04645 q 0,0.209022 -0.208729,0.209022 z m -4.96315,-4.621705 q 0,0.0929 0.06957,0.0929 h 3.664378 q 0.06957,0 0.06957,-0.0929 L 92.999182,5.8890076 q -0.02316,-0.069671 -0.0464,-0.069671 -0.02316,0 -0.0464,0.069671 z"
           style="font-stretch:condensed;font-size:30.2381px;line-height:1.25;font-family:'Barlow Condensed';-inkscape-font-specification:'Barlow Condensed,  Condensed';fill:#325d88;fill-opacity:1;stroke-width:0.580211"
           id="path2533" />
        <path
           d="m 99.63218,19.637998 q -0.231922,0 -0.231922,-0.232246 V 3.6129921 q 0,-0.2322465 0.231922,-0.2322465 h 1.18281 q 0.23192,0 0.23192,0.2322465 V 18.105172 q 0,0.0929 0.0928,0.0929 h 5.31103 q 0.23192,0 0.23192,0.232247 v 0.975435 q 0,0.232246 -0.23192,0.232246 z"
           style="font-stretch:condensed;font-size:30.2381px;line-height:1.25;font-family:'Barlow Condensed';-inkscape-font-specification:'Barlow Condensed,  Condensed';fill:#325d88;fill-opacity:1;stroke-width:0.580211"
           id="path2530" />
        <path
           d="m 108.81632,19.637998 q -0.23192,0 -0.23192,-0.232246 V 3.6129921 q 0,-0.2322465 0.23192,-0.2322465 h 1.18281 q 0.23192,0 0.23192,0.2322465 V 18.105172 q 0,0.0929 0.0928,0.0929 h 5.31102 q 0.23193,0 0.23193,0.232247 v 0.975435 q 0,0.232246 -0.23193,0.232246 z"
           style="font-stretch:condensed;font-size:30.2381px;line-height:1.25;font-family:'Barlow Condensed';-inkscape-font-specification:'Barlow Condensed,  Condensed';fill:#325d88;fill-opacity:1;stroke-width:0.580211"
           id="path2527" />
        <path
           d="m 124.26236,19.637998 q -0.20872,0 -0.27831,-0.185796 l -2.3656,-7.176416 q -0.0232,-0.06967 -0.0928,-0.06967 h -2.01773 q -0.0928,0 -0.0928,0.0929 v 7.106741 q 0,0.232247 -0.23192,0.232247 h -1.18281 q -0.23192,0 -0.23192,-0.232247 V 3.6129921 q 0,-0.2322465 0.23192,-0.2322465 h 3.82673 q 1.69303,0 2.73669,1.2541314 1.04365,1.230906 1.04365,3.2282259 0,1.5096016 -0.64939,2.6011601 -0.64938,1.091559 -1.76261,1.532826 -0.0928,0.02323 -0.0696,0.116124 l 2.52796,7.269314 0.0232,0.0929 q 0,0.162572 -0.20873,0.162572 z M 119.50795,4.8206736 q -0.0928,0 -0.0928,0.092899 v 5.8758354 q 0,0.0929 0.0928,0.0929 h 2.0873 q 1.06685,0 1.71623,-0.812863 0.64939,-0.8360876 0.64939,-2.2063411 0,-1.3702542 -0.64939,-2.2063418 -0.64938,-0.8360875 -1.71623,-0.8360875 z"
           style="font-stretch:condensed;font-size:30.2381px;line-height:1.25;font-family:'Barlow Condensed';-inkscape-font-specification:'Barlow Condensed,  Condensed';fill:#325d88;fill-opacity:1;stroke-width:0.580211"
           id="path2524" />
      </g>
      <path
         id="path2022"
         style="color:#000000;fill:#325d88;stroke-width:0.792822;stroke-linecap:round;stroke-linejoin:bevel;-inkscape-stroke:none;fill-opacity:1"
         d="m 21.930354,37.963365 c -0.222249,10e-4 -0.435018,0.09015 -0.591611,0.24787 -0.326708,0.329515 -0.323931,0.861641 0.0062,1.187727 l 10.585481,10.464618 -9.137593,5.678474 v -5.526883 c 0,-0.463405 -0.375665,-0.83907 -0.83907,-0.83907 -0.462926,6.78e-4 -0.837842,0.376144 -0.837842,0.83907 v 7.036638 c 0.228751,0.570471 0.645462,0.824969 1.28073,0.712062 l 11.322126,-7.036229 c 0.224104,-0.318059 0.368556,-0.689907 0.147491,-1.308589 L 22.52487,38.205091 c -0.1583,-0.156165 -0.372117,-0.243106 -0.594478,-0.241726 z m -6.769922,0.0041 c -0.188837,0.02031 -0.365198,0.104087 -0.500247,0.23763 L 3.319213,49.419057 c -0.179612,0.63352 -0.02661,0.980779 0.147084,1.31023 l 11.340971,7.034588 c 0.44346,-0.02343 0.889879,-0.0072 1.282369,-0.7137 l -0.01885,-7.036229 c -6.77e-4,-0.464208 -0.378143,-0.839655 -0.842348,-0.837841 -0.463567,0.0016 -0.838016,0.378781 -0.836203,0.842347 l 0.01393,5.523606 L 5.256287,49.86356 15.840128,39.398942 c 0.330131,-0.326086 0.332908,-0.858212 0.0062,-1.187727 -0.179634,-0.181348 -0.43205,-0.271065 -0.685842,-0.243771 z"
         sodipodi:nodetypes="sccccscscccccssccccccccccccccc" />
    </g>
  </g>
</svg>
