<?xml version="1.0" encoding="UTF-8" standalone="no"?>
<!-- Created with Inkscape (http://www.inkscape.org/) -->

<svg
   width="175"
   height="32"
   viewBox="0 0 46.302081 8.4666671"
   version="1.1"
   id="svg5"
   inkscape:version="1.1.2 (0a00cf5339, 2022-02-04, custom)"
   sodipodi:docname="navbar_logo.svg"
   xmlns:inkscape="http://www.inkscape.org/namespaces/inkscape"
   xmlns:sodipodi="http://sodipodi.sourceforge.net/DTD/sodipodi-0.dtd"
   xmlns="http://www.w3.org/2000/svg"
   xmlns:svg="http://www.w3.org/2000/svg">
  <sodipodi:namedview
     id="namedview7"
     pagecolor="#505050"
     bordercolor="#eeeeee"
     borderopacity="1"
     inkscape:pageshadow="0"
     inkscape:pageopacity="0"
     inkscape:pagecheckerboard="0"
     inkscape:document-units="px"
     showgrid="false"
     units="px"
     inkscape:zoom="3.3098038"
     inkscape:cx="195.93306"
     inkscape:cy="16.466233"
     inkscape:window-width="2527"
     inkscape:window-height="1412"
     inkscape:window-x="33"
     inkscape:window-y="0"
     inkscape:window-maximized="1"
     inkscape:current-layer="layer1" />
  <defs
     id="defs2" />
  <g
     inkscape:label="Livello 1"
     inkscape:groupmode="layer"
     id="layer1">
    <path
       d="m 16.126565,1.4590072 q 0,-0.081597 0.08149,-0.081597 h 0.415568 q 0.08148,0 0.08148,0.081597 v 5.5486512 q 0,0.081598 -0.08148,0.081598 h -0.415568 q -0.08149,0 -0.08149,-0.081598 V 4.5189258 q 0,-0.032643 -0.0326,-0.032643 h -1.450417 q -0.0326,0 -0.0326,0.032643 v 2.4887326 q 0,0.081598 -0.08148,0.081598 h -0.415569 q -0.08148,0 -0.08148,-0.081598 V 1.4590072 q 0,-0.081597 0.08148,-0.081597 h 0.415569 q 0.08148,0 0.08148,0.081597 v 2.4805736 q 0,0.032643 0.0326,0.032643 h 1.450416 q 0.0326,0 0.0326,-0.032643 z"
       style="font-stretch:condensed;font-size:30.2381px;line-height:1.25;font-family:'Barlow Condensed';-inkscape-font-specification:'Barlow Condensed,  Condensed';fill:#ffffff;fill-opacity:1;stroke-width:0.203852"
       id="path2548" />
    <g
       id="g2671"
       transform="matrix(0.23705916,0,0,0.23705916,4.7438767,1.5049306)">
      <path
         d="m 59.927004,4.5884271 q 0,0.2322465 -0.231922,0.2322465 h -5.380607 q -0.09277,0 -0.09277,0.092899 v 5.7597124 q 0,0.0929 0.09277,0.0929 h 3.386071 q 0.231923,0 0.231923,0.232247 v 0.998659 q 0,0.232247 -0.231923,0.232247 h -3.386071 q -0.09277,0 -0.09277,0.0929 v 5.782937 q 0,0.0929 0.09277,0.0929 h 5.380607 q 0.231922,0 0.231922,0.232247 v 0.975435 q 0,0.232246 -0.231922,0.232246 h -6.888103 q -0.231923,0 -0.231923,-0.232246 V 3.6129921 q 0,-0.2322465 0.231923,-0.2322465 h 6.888103 q 0.231922,0 0.231922,0.2322465 z"
         style="font-stretch:condensed;font-size:30.2381px;line-height:1.25;font-family:'Barlow Condensed';-inkscape-font-specification:'Barlow Condensed,  Condensed';fill:#ffffff;fill-opacity:1;stroke-width:0.580211"
         id="path2545" />
      <path
         d="m 62.75648,19.637998 q -0.231922,0 -0.231922,-0.232246 V 3.6129921 q 0,-0.2322465 0.231922,-0.2322465 h 1.182806 q 0.231922,0 0.231922,0.2322465 V 19.405752 q 0,0.232246 -0.231922,0.232246 z"
         style="font-stretch:condensed;font-size:30.2381px;line-height:1.25;font-family:'Barlow Condensed';-inkscape-font-specification:'Barlow Condensed,  Condensed';fill:#ffffff;fill-opacity:1;stroke-width:0.580211"
         id="path2542" />
      <path
         d="m 74.584539,3.5433184 q 0.06957,-0.1625728 0.278307,-0.1625728 h 1.205997 q 0.231923,0 0.231923,0.2322465 V 19.405752 q 0,0.232246 -0.231923,0.232246 h -1.182805 q -0.231923,0 -0.231923,-0.232246 V 6.9573416 q 0,-0.069671 -0.04639,-0.069671 -0.02319,0 -0.06957,0.046452 l -2.411996,5.0165224 q -0.06957,0.162573 -0.231922,0.162573 -0.185538,0 -0.255115,-0.162573 L 69.227126,6.9573478 q -0.04639,-0.046452 -0.09277,-0.046452 -0.02319,0 -0.02319,0.069671 V 19.405752 q 0,0.232246 -0.231923,0.232246 h -1.182805 q -0.231923,0 -0.231923,-0.232246 V 3.6129921 q 0,-0.2322465 0.231923,-0.2322465 h 1.205998 q 0.20873,0 0.278307,0.1625728 l 2.643918,5.3648932 q 0.02319,0.046452 0.06957,0.046452 0.04639,0 0.06958,-0.046452 z"
         style="font-stretch:condensed;font-size:30.2381px;line-height:1.25;font-family:'Barlow Condensed';-inkscape-font-specification:'Barlow Condensed,  Condensed';fill:#ffffff;fill-opacity:1;stroke-width:0.580211"
         id="path2539" />
      <path
         d="m 79.825989,19.637998 q -0.231923,0 -0.231923,-0.232246 V 3.6129921 q 0,-0.2322465 0.231923,-0.2322465 h 3.571608 q 1.785805,0 2.852649,1.1844569 1.066842,1.1612323 1.066842,3.1353277 v 7.6176838 q 0,1.974095 -1.066842,3.158552 -1.066844,1.161232 -2.852649,1.161232 z m 1.414728,-1.532826 q 0,0.0929 0.09277,0.0929 l 2.040919,-0.02323 q 1.02046,0 1.623459,-0.789638 0.626191,-0.789638 0.649383,-2.136668 V 7.7702023 q 0,-1.3702542 -0.602999,-2.1598918 Q 84.44125,4.820672 83.374405,4.820672 h -2.040919 q -0.09277,0 -0.09277,0.092899 z"
         style="font-stretch:condensed;font-size:30.2381px;line-height:1.25;font-family:'Barlow Condensed';-inkscape-font-specification:'Barlow Condensed,  Condensed';fill:#ffffff;fill-opacity:1;stroke-width:0.580211"
         id="path2536" />
      <path
         d="m 96.014197,19.637998 q -0.208728,0 -0.255116,-0.209022 L 95.179277,16.54912 q 0,-0.04645 -0.0464,-0.06967 -0.02316,-0.02323 -0.06957,-0.02323 h -4.197803 q -0.0464,0 -0.09277,0.02323 -0.02316,0.02323 -0.02316,0.06967 l -0.579805,2.879856 q -0.02316,0.209022 -0.255116,0.209022 h -1.18281 q -0.115961,0 -0.185535,-0.06967 -0.0464,-0.06967 -0.02316,-0.185797 L 92.00199,3.5897706 q 0.0464,-0.2090219 0.255115,-0.2090219 h 1.391532 q 0.231922,0 0.255115,0.2090219 L 97.428976,19.38253 v 0.04645 q 0,0.209022 -0.208729,0.209022 z m -4.96315,-4.621705 q 0,0.0929 0.06957,0.0929 h 3.664378 q 0.06957,0 0.06957,-0.0929 L 92.999182,5.8890076 q -0.02316,-0.069671 -0.0464,-0.069671 -0.02316,0 -0.0464,0.069671 z"
         style="font-stretch:condensed;font-size:30.2381px;line-height:1.25;font-family:'Barlow Condensed';-inkscape-font-specification:'Barlow Condensed,  Condensed';fill:#ffffff;fill-opacity:1;stroke-width:0.580211"
         id="path2533" />
      <path
         d="m 99.63218,19.637998 q -0.231922,0 -0.231922,-0.232246 V 3.6129921 q 0,-0.2322465 0.231922,-0.2322465 h 1.18281 q 0.23192,0 0.23192,0.2322465 V 18.105172 q 0,0.0929 0.0928,0.0929 h 5.31103 q 0.23192,0 0.23192,0.232247 v 0.975435 q 0,0.232246 -0.23192,0.232246 z"
         style="font-stretch:condensed;font-size:30.2381px;line-height:1.25;font-family:'Barlow Condensed';-inkscape-font-specification:'Barlow Condensed,  Condensed';fill:#ffffff;fill-opacity:1;stroke-width:0.580211"
         id="path2530" />
      <path
         d="m 108.81632,19.637998 q -0.23192,0 -0.23192,-0.232246 V 3.6129921 q 0,-0.2322465 0.23192,-0.2322465 h 1.18281 q 0.23192,0 0.23192,0.2322465 V 18.105172 q 0,0.0929 0.0928,0.0929 h 5.31102 q 0.23193,0 0.23193,0.232247 v 0.975435 q 0,0.232246 -0.23193,0.232246 z"
         style="font-stretch:condensed;font-size:30.2381px;line-height:1.25;font-family:'Barlow Condensed';-inkscape-font-specification:'Barlow Condensed,  Condensed';fill:#ffffff;fill-opacity:1;stroke-width:0.580211"
         id="path2527" />
      <path
         d="m 124.26236,19.637998 q -0.20872,0 -0.27831,-0.185796 l -2.3656,-7.176416 q -0.0232,-0.06967 -0.0928,-0.06967 h -2.01773 q -0.0928,0 -0.0928,0.0929 v 7.106741 q 0,0.232247 -0.23192,0.232247 h -1.18281 q -0.23192,0 -0.23192,-0.232247 V 3.6129921 q 0,-0.2322465 0.23192,-0.2322465 h 3.82673 q 1.69303,0 2.73669,1.2541314 1.04365,1.230906 1.04365,3.2282259 0,1.5096016 -0.64939,2.6011601 -0.64938,1.091559 -1.76261,1.532826 -0.0928,0.02323 -0.0696,0.116124 l 2.52796,7.269314 0.0232,0.0929 q 0,0.162572 -0.20873,0.162572 z M 119.50795,4.8206736 q -0.0928,0 -0.0928,0.092899 v 5.8758354 q 0,0.0929 0.0928,0.0929 h 2.0873 q 1.06685,0 1.71623,-0.812863 0.64939,-0.8360876 0.64939,-2.2063411 0,-1.3702542 -0.64939,-2.2063418 -0.64938,-0.8360875 -1.71623,-0.8360875 z"
         style="font-stretch:condensed;font-size:30.2381px;line-height:1.25;font-family:'Barlow Condensed';-inkscape-font-specification:'Barlow Condensed,  Condensed';fill:#ffffff;fill-opacity:1;stroke-width:0.580211"
         id="path2524" />
    </g>
    <path
       id="path2022"
       style="color:#000000;fill:#ffffff;stroke-width:0.278551;stroke-linecap:round;stroke-linejoin:bevel;-inkscape-stroke:none"
       d="m 7.8199508,0.75049363 c -0.078086,3.515e-4 -0.1528399,0.0316746 -0.2078575,0.087087 C 7.4973072,0.95335305 7.498283,1.140311 7.6142733,1.2548786 L 11.33339,4.931533 8.122974,6.9266164 V 4.9847931 c 0,-0.1628135 -0.1319867,-0.2948005 -0.2948,-0.2948005 C 7.6655289,4.690231 7.5338053,4.8221475 7.5338053,4.9847931 v 2.4722626 c 0.08037,0.2004298 0.2267776,0.2898454 0.4499736,0.2501767 L 11.961712,5.2351137 c 0.07873,-0.1117474 0.129489,-0.242393 0.05182,-0.4597619 L 8.0288284,0.8354223 C 7.9732113,0.78055519 7.8980882,0.75000899 7.8199636,0.75049363 Z m -2.3785544,0.001427 c -0.066346,0.007135 -0.1283092,0.0365713 -0.1757575,0.0834898 L 1.2810848,4.7753471 c -0.063108,0.2225817 -0.00935,0.3445887 0.051679,0.4603382 l 3.9845537,2.4715385 c 0.1558058,-0.00823 0.3126514,-0.00256 0.4505494,-0.2507524 L 5.7612415,4.9843526 C 5.7610036,4.8212573 5.6283841,4.6893472 5.4652896,4.6899841 5.3024193,4.6905462 5.1708599,4.8230655 5.1714969,4.9859353 l 0.0049,1.9406718 L 1.9616607,4.9315159 5.6802032,1.2548615 C 5.7961919,1.1402939 5.7971676,0.95333596 5.6823844,0.83756356 5.6192719,0.77385101 5.5305873,0.74232685 5.4414197,0.7519169 Z"
       sodipodi:nodetypes="sccccscscccccssccccccccccccccc" />
  </g>
</svg>
